<?xml version="1.0" encoding="UTF-8"?>
<svg xmlns="http://www.w3.org/2000/svg" xmlns:xlink="http://www.w3.org/1999/xlink" version="1.1" viewBox="0 0 1080 608">
  <defs>
    <style>
      .cls-1, .cls-2, .cls-3, .cls-4 {
        fill: none;
      }

      .cls-5 {
        letter-spacing: 0em;
      }

      .cls-5, .cls-6 {
        font-family: IBMPlexSans-SemiBold, 'IBM Plex Sans';
        font-weight: 600;
      }

      .cls-5, .cls-6, .cls-7, .cls-8, .cls-9, .cls-10, .cls-11 {
        isolation: isolate;
      }

      .cls-5, .cls-6, .cls-11 {
        font-size: 14px;
      }

      .cls-6, .cls-11 {
        letter-spacing: 0em;
      }

      .cls-12 {
        fill: #f4f4f4;
      }

      .cls-7, .cls-9 {
        mix-blend-mode: multiply;
      }

      .cls-7, .cls-9, .cls-13 {
        fill: #fff;
      }

      .cls-2 {
        stroke: #8d8d8d;
      }

      .cls-14 {
        fill: #fff1f1;
      }

      .cls-15 {
        clip-path: url(#clippath-1);
      }

      .cls-16 {
        clip-path: url(#clippath-3);
      }

      .cls-17 {
        clip-path: url(#clippath-4);
      }

      .cls-18 {
        clip-path: url(#clippath-2);
      }

      .cls-19 {
        clip-path: url(#clippath-5);
      }

      .cls-9 {
        fill-opacity: 0;
      }

      .cls-10 {
        font-size: 12px;
        letter-spacing: 0em;
      }

      .cls-10, .cls-11 {
        font-family: IBMPlexSans, 'IBM Plex Sans';
      }

      .cls-3 {
        stroke: #fa4d56;
      }

      .cls-20 {
        fill: #8d8d8d;
      }

      .cls-21 {
        fill: #24a148;
      }

      .cls-22 {
        fill: #fa4d56;
      }

      .cls-4 {
        stroke: #000;
      }

      .cls-23 {
        clip-path: url(#clippath);
      }
    </style>
    <clipPath id="clippath">
      <rect class="cls-1" x="64" y="213" width="256" height="48"/>
    </clipPath>
    <clipPath id="clippath-1">
      <rect class="cls-1" x="753" y="102" width="256" height="48"/>
    </clipPath>
    <clipPath id="clippath-2">
      <rect class="cls-1" x="753" y="320" width="256" height="48"/>
    </clipPath>
    <clipPath id="clippath-3">
      <rect class="cls-1" x="515" y="169" width="210" height="44"/>
    </clipPath>
    <clipPath id="clippath-4">
      <rect class="cls-1" x="515" y="388" width="210" height="44"/>
    </clipPath>
    <clipPath id="clippath-5">
      <rect class="cls-1" x="126" y="293" width="20" height="20"/>
    </clipPath>
  </defs>
  <!-- Generator: Adobe Illustrator 28.7.1, SVG Export Plug-In . SVG Version: 1.2.0 Build 142)  -->
  <g class="cls-8">
    <g id="Layer_1">
      <rect class="cls-12" width="1080" height="608"/>
      <rect class="cls-13" x="65" y="214" width="254" height="176"/>
      <rect class="cls-12" x="65" y="214" width="254" height="176"/>
      <g class="cls-23">
        <g>
          <g class="cls-8">
            <text class="cls-5" transform="translate(128 233.2)"><tspan x="0" y="0">Source Region</tspan></text>
          </g>
          <g class="cls-8">
            <text class="cls-11" transform="translate(128 251.2)"><tspan x="0" y="0">(ca-tor)</tspan></text>
          </g>
          <rect class="cls-20" x="64" y="213" width="48" height="48"/>
          <rect class="cls-9" x="78" y="227" width="20" height="20"/>
          <path class="cls-13" d="M88,238.2c-.6,0-1.2-.2-1.7-.5-.5-.3-.9-.8-1.2-1.4-.2-.6-.3-1.2-.2-1.8.1-.6.4-1.2.9-1.6.4-.4,1-.7,1.6-.9.6-.1,1.2,0,1.8.2.6.2,1.1.6,1.4,1.2.3.5.5,1.1.5,1.7,0,.8-.3,1.6-.9,2.2-.6.6-1.4.9-2.2.9ZM88,233.2c-.4,0-.7.1-1,.3-.3.2-.5.5-.7.8-.1.3-.2.7-.1,1.1,0,.4.3.7.5,1,.3.3.6.4,1,.5.4,0,.7,0,1.1-.1s.6-.4.8-.7c.2-.3.3-.7.3-1,0-.5-.2-1-.5-1.3-.4-.4-.8-.5-1.3-.6Z"/>
          <path class="cls-13" d="M88,245.8l-5.3-6.2s-.2-.3-.2-.3c-.9-1.2-1.4-2.6-1.4-4.1,0-1.8.7-3.6,2-4.9,1.3-1.3,3-2,4.9-2s3.6.7,4.9,2c1.3,1.3,2,3,2,4.9,0,1.5-.5,2.9-1.4,4.1h0s-.2.2-.2.3l-5.3,6.2ZM83.5,238.5s.1.2.2.2l4.3,5.1,4.3-5.1s.2-.2.2-.2c.7-1,1.1-2.2,1.1-3.4,0-1.5-.6-2.9-1.6-4-1.1-1.1-2.5-1.6-4-1.6s-2.9.6-4,1.6c-1.1,1.1-1.6,2.5-1.6,4,0,1.2.4,2.4,1.1,3.4Z"/>
        </g>
      </g>
      <rect class="cls-2" x="64.5" y="213.5" width="255" height="177"/>
      <rect class="cls-7" x="161" y="290" width="58" height="24"/>
      <path class="cls-4" d="M161,302h50"/>
      <path d="M211,298l8,4-8,4v-8Z"/>
      <rect class="cls-7" x="266" y="290" width="113" height="24"/>
      <path class="cls-4" d="M266,302h105"/>
      <path d="M371,298l8,4-8,4v-8Z"/>
      <rect class="cls-7" x="418" y="290" width="47" height="24"/>
      <path class="cls-4" d="M418,302h47"/>
      <rect class="cls-7" x="351" y="278" width="104" height="92"/>
      <rect class="cls-21" x="379" y="278" width="48" height="48"/>
      <rect class="cls-9" x="393" y="292" width="20" height="20"/>
      <path class="cls-13" d="M407.1,304.1l2.2,2.2h-4.1l-2.7-4.4,2.7-4.4h4.1l-2.2,2.2.9.9,3.8-3.8-3.8-3.8-.9.9,2.2,2.2h-4.1c-.2,0-.4,0-.6.2-.2.1-.3.2-.5.4l-2.4,3.9-2.4-3.9c-.1-.2-.3-.3-.5-.4-.2-.1-.4-.2-.6-.2h-4v1.2h4l2.7,4.4-2.7,4.4h-4v1.2h4c.2,0,.4,0,.6-.2.2-.1.3-.2.5-.4l2.4-3.9,2.4,3.9c.1.2.3.3.5.4.2.1.4.2.6.2h4.1l-2.2,2.2.9.9,3.8-3.8-3.8-3.8-.9.9Z"/>
      <g class="cls-8">
        <text class="cls-6" transform="translate(351 348.2)"><tspan x="0" y="0">Activity Tracker </tspan></text>
        <text class="cls-6" transform="translate(356.8 366.2)"><tspan x="0" y="0">Event Routing</tspan></text>
      </g>
      <rect class="cls-13" x="754" y="103" width="254" height="176"/>
      <rect class="cls-14" x="754" y="103" width="254" height="176"/>
      <g class="cls-15">
        <g>
          <g class="cls-8">
            <text class="cls-5" transform="translate(817 122.2)"><tspan x="0" y="0">Unavailable Region MZR</tspan></text>
          </g>
          <g class="cls-8">
            <text class="cls-11" transform="translate(817 140.2)"><tspan x="0" y="0">(us-south)</tspan></text>
          </g>
          <rect class="cls-22" x="753" y="102" width="48" height="48"/>
          <rect class="cls-9" x="767" y="116" width="20" height="20"/>
          <path class="cls-13" d="M777,127.2c-.6,0-1.2-.2-1.7-.5-.5-.3-.9-.8-1.2-1.4-.2-.6-.3-1.2-.2-1.8.1-.6.4-1.2.9-1.6.4-.4,1-.7,1.6-.9.6-.1,1.2,0,1.8.2.6.2,1.1.6,1.4,1.2.3.5.5,1.1.5,1.7,0,.8-.3,1.6-.9,2.2s-1.4.9-2.2.9ZM777,122.2c-.4,0-.7.1-1,.3-.3.2-.5.5-.7.8-.1.3-.2.7-.1,1.1,0,.4.3.7.5,1,.3.3.6.4,1,.5.4,0,.7,0,1.1-.1.3-.1.6-.4.8-.7.2-.3.3-.7.3-1,0-.5-.2-1-.5-1.3-.4-.4-.8-.5-1.3-.6Z"/>
          <path class="cls-13" d="M777,134.8l-5.3-6.2s-.2-.3-.2-.3c-.9-1.2-1.4-2.6-1.4-4.1,0-1.8.7-3.6,2-4.9,1.3-1.3,3-2,4.9-2s3.6.7,4.9,2c1.3,1.3,2,3,2,4.9,0,1.5-.5,2.9-1.4,4.1h0s-.2.2-.2.3l-5.3,6.2ZM772.5,127.5s.1.2.2.2l4.3,5.1,4.3-5.1s.2-.2.2-.2c.7-1,1.1-2.2,1.1-3.4,0-1.5-.6-2.9-1.6-4-1.1-1.1-2.5-1.6-4-1.6s-2.9.6-4,1.6c-1.1,1.1-1.6,2.5-1.6,4,0,1.2.4,2.4,1.1,3.4Z"/>
        </g>
      </g>
      <rect class="cls-3" x="753.5" y="102.5" width="255" height="177"/>
      <rect class="cls-13" x="754" y="321" width="254" height="176"/>
      <rect class="cls-12" x="754" y="321" width="254" height="176"/>
      <g class="cls-18">
        <g>
          <g class="cls-8">
            <text class="cls-6" transform="translate(817 340.2)"><tspan x="0" y="0">Recovery Region MZR</tspan></text>
          </g>
          <g class="cls-8">
            <text class="cls-11" transform="translate(817 358.2)"><tspan x="0" y="0">(us-east)</tspan></text>
          </g>
          <rect class="cls-20" x="753" y="320" width="48" height="48"/>
          <rect class="cls-9" x="767" y="334" width="20" height="20"/>
          <path class="cls-13" d="M777,345.2c-.6,0-1.2-.2-1.7-.5-.5-.3-.9-.8-1.2-1.4-.2-.6-.3-1.2-.2-1.8.1-.6.4-1.2.9-1.6.4-.4,1-.7,1.6-.9.6-.1,1.2,0,1.8.2.6.2,1.1.6,1.4,1.2.3.5.5,1.1.5,1.7,0,.8-.3,1.6-.9,2.2-.6.6-1.4.9-2.2.9ZM777,340.2c-.4,0-.7.1-1,.3-.3.2-.5.5-.7.8-.1.3-.2.7-.1,1.1,0,.4.3.7.5,1,.3.3.6.4,1,.5.4,0,.7,0,1.1-.1.3-.1.6-.4.8-.7.2-.3.3-.7.3-1,0-.5-.2-1-.5-1.3-.4-.4-.8-.5-1.3-.5Z"/>
          <path class="cls-13" d="M777,352.8l-5.3-6.2s-.2-.3-.2-.3c-.9-1.2-1.4-2.6-1.4-4.1,0-1.8.7-3.6,2-4.9,1.3-1.3,3-2,4.9-2s3.6.7,4.9,2c1.3,1.3,2,3,2,4.9,0,1.5-.5,2.9-1.4,4.1h0s-.2.2-.2.3l-5.3,6.2ZM772.5,345.5s.1.2.2.2l4.3,5.1,4.3-5.1s.2-.2.2-.2c.7-1,1.1-2.2,1.1-3.4,0-1.5-.6-2.9-1.6-4-1.1-1.1-2.5-1.6-4-1.6s-2.9.6-4,1.6c-1.1,1.1-1.6,2.5-1.6,4,0,1.2.4,2.4,1.1,3.4Z"/>
        </g>
      </g>
      <rect class="cls-2" x="753.5" y="320.5" width="255" height="177"/>
      <rect class="cls-7" x="465" y="302" width="16" height="59"/>
      <path class="cls-4" d="M481,361v-51c0-4.4-3.6-8-8-8h-8"/>
      <rect class="cls-7" x="481" y="352" width="16" height="59"/>
      <path class="cls-4" d="M481,352v51c0,4.4,3.6,8,8,8h8"/>
      <rect class="cls-7" x="465" y="243" width="16" height="59"/>
      <path class="cls-4" d="M481,243v51c0,4.4-3.6,8-8,8h-8"/>
      <rect class="cls-7" x="481" y="190" width="16" height="59"/>
      <path class="cls-4" d="M481,249v-51c0-4.4,3.6-8,8-8h8"/>
      <rect class="cls-7" x="496" y="178" width="358" height="24"/>
      <path class="cls-4" d="M496,190h350"/>
      <path d="M846,186l8,4-8,4v-8Z"/>
      <rect class="cls-7" x="496" y="399" width="361" height="24"/>
      <path class="cls-4" d="M496,411h353"/>
      <path d="M849,407l8,4-8,4v-8Z"/>
      <rect class="cls-7" x="201" y="279" width="84" height="92"/>
      <rect class="cls-21" x="219" y="279" width="48" height="48"/>
      <rect class="cls-7" x="233" y="293" width="20" height="20"/>
      <path class="cls-13" d="M250.5,296.8h-11.2v1.2h11.2v-1.2Z"/>
      <path class="cls-13" d="M250.5,308h-11.2v1.2h11.2v-1.2Z"/>
      <path class="cls-13" d="M250.5,302.4h-11.2v1.2h11.2v-1.2Z"/>
      <path class="cls-13" d="M236.8,302.4h-1.2v1.2h1.2v-1.2Z"/>
      <path class="cls-13" d="M236.8,296.8h-1.2v1.2h1.2v-1.2Z"/>
      <path class="cls-13" d="M236.8,308h-1.2v1.2h1.2v-1.2Z"/>
      <g class="cls-8">
        <text class="cls-6" transform="translate(214.9 349.2)"><tspan x="0" y="0">Auditing </tspan></text>
        <text class="cls-6" transform="translate(224.2 367.2)"><tspan x="0" y="0">Event</tspan></text>
      </g>
      <rect class="cls-7" x="789" y="165" width="184" height="92"/>
      <rect class="cls-21" x="857" y="165" width="48" height="48"/>
      <rect class="cls-7" x="871" y="179" width="20" height="20"/>
      <path class="cls-13" d="M888.5,189v3.8h-15v-10h7.5v-1.2h-7.5c-.3,0-.6.1-.9.4-.2.2-.4.6-.4.9v10c0,.3.1.6.4.9.2.2.6.4.9.4h5v2.5h-2.5v1.2h10v-1.2h-2.5v-2.5h5c.3,0,.6-.1.9-.4.2-.2.4-.6.4-.9v-3.8h-1.2ZM882.2,196.5h-2.5v-2.5h2.5v2.5Z"/>
      <path class="cls-13" d="M884.1,188.4l-3.1-3.1,1-1,2.1,2.1,4.6-4.6,1,1-5.6,5.6Z"/>
      <g class="cls-8">
        <text class="cls-6" transform="translate(827.8 236.2)"><tspan x="0" y="0">IBM Cloud Logs</tspan></text>
        <text/>
      </g>
      <rect class="cls-7" x="789" y="384" width="184" height="92"/>
      <rect class="cls-21" x="857" y="384" width="48" height="48"/>
      <rect class="cls-7" x="871" y="398" width="20" height="20"/>
      <path class="cls-13" d="M888.5,408v3.8h-15v-10h7.5v-1.2h-7.5c-.3,0-.6.1-.9.4-.2.2-.4.6-.4.9v10c0,.3.1.6.4.9.2.2.6.4.9.4h5v2.5h-2.5v1.2h10v-1.2h-2.5v-2.5h5c.3,0,.6-.1.9-.4.2-.2.4-.6.4-.9v-3.8h-1.2ZM882.2,415.5h-2.5v-2.5h2.5v2.5Z"/>
      <path class="cls-13" d="M884.1,407.4l-3.1-3.1,1-1,2.1,2.1,4.6-4.6,1,1-5.6,5.6Z"/>
      <g class="cls-8">
        <text class="cls-6" transform="translate(828.8 454.2)"><tspan x="0" y="0">IBM Cloud Logs</tspan></text>
      </g>
      <path class="cls-13" d="M523,169.5h194c4.1,0,7.5,3.4,7.5,7.5v29c0,4.1-3.4,7.5-7.5,7.5h-194c-4.1,0-7.5-3.4-7.5-7.5v-29c0-4.1,3.4-7.5,7.5-7.5Z"/>
      <g class="cls-16">
        <g class="cls-8">
          <text class="cls-10" transform="translate(531 187.5)"><tspan x="0" y="0">Target 1 destination: us-south </tspan></text>
          <text class="cls-10" transform="translate(531 203.5)"><tspan x="0" y="0">Location match: ca-tor</tspan></text>
        </g>
      </g>
      <path class="cls-4" d="M523,169.5h194c4.1,0,7.5,3.4,7.5,7.5v29c0,4.1-3.4,7.5-7.5,7.5h-194c-4.1,0-7.5-3.4-7.5-7.5v-29c0-4.1,3.4-7.5,7.5-7.5Z"/>
      <path class="cls-13" d="M523,388.5h194c4.1,0,7.5,3.4,7.5,7.5v29c0,4.1-3.4,7.5-7.5,7.5h-194c-4.1,0-7.5-3.4-7.5-7.5v-29c0-4.1,3.4-7.5,7.5-7.5Z"/>
      <g class="cls-17">
        <g class="cls-8">
          <text class="cls-10" transform="translate(531 406.5)"><tspan x="0" y="0">Target 2 destination: us-east </tspan></text>
          <text class="cls-10" transform="translate(531 422.5)"><tspan x="0" y="0">Location match: ca-tor</tspan></text>
        </g>
      </g>
      <path class="cls-4" d="M523,388.5h194c4.1,0,7.5,3.4,7.5,7.5v29c0,4.1-3.4,7.5-7.5,7.5h-194c-4.1,0-7.5-3.4-7.5-7.5v-29c0-4.1,3.4-7.5,7.5-7.5Z"/>
      <rect class="cls-7" x="100" y="279" width="72" height="92"/>
      <rect class="cls-20" x="112" y="279" width="48" height="48"/>
      <g class="cls-19">
        <g>
          <path class="cls-13" d="M141.4,301.5c-.6-1.2-1.6-2.1-2.8-2.7-1.2-.6-2.5-.7-3.8-.4-1.3.3-2.5,1-3.3,2-.9,1-1.4,2.2-1.5,3.6-1.1.1-2.1.6-2.8,1.5-.7.8-1.1,1.9-1,3s.5,2.1,1.3,2.8c.8.7,1.8,1.2,2.9,1.2h10c1.4,0,2.7-.5,3.7-1.4,1-.9,1.6-2.2,1.8-3.5.1-1.4-.3-2.7-1.1-3.8-.8-1.1-2-1.8-3.4-2.1ZM140.4,311.4h-10c-.8,0-1.6-.3-2.2-.9-.6-.6-1-1.3-1-2.2,0-.8.2-1.6.7-2.3.5-.6,1.3-1.1,2.1-1.2,0,.8.3,1.6.7,2.4,0,0,0,.1.1.1,0,0,.1,0,.2,0,0,0,.1,0,.2,0,0,0,.1,0,.2,0,0,0,.1,0,.1-.1,0,0,0-.1,0-.2,0,0,0-.1,0-.2,0,0,0-.1,0-.2-.6-1.2-.8-2.5-.4-3.8.3-1.3,1.2-2.4,2.3-3,1.1-.7,2.5-.9,3.7-.7,1.3.3,2.4,1,3.2,2.1-.7,0-1.5.2-2.2.5-.7.3-1.3.8-1.8,1.3,0,0,0,0,0,.2,0,0,0,.1,0,.2,0,0,0,.1,0,.2,0,0,0,.1.1.1,0,0,.1,0,.2,0,0,0,.1,0,.2,0,0,0,.1,0,.2,0,0,0,.1,0,.1-.1.5-.6,1.1-1,1.8-1.3.7-.3,1.5-.3,2.2-.2.7.1,1.5.4,2.1.9.6.5,1.1,1.1,1.4,1.7.3.7.4,1.4.4,2.2,0,.8-.3,1.5-.7,2.1-.4.6-1,1.2-1.6,1.5-.7.4-1.4.6-2.2.6Z"/>
          <path class="cls-13" d="M145.9,299.4c0,0,0-.1-.1-.1,0,0-.1,0-.2,0,0,0-.1,0-.2,0,0,0-.1,0-.2,0l-1.9,1.1c0,0-.1,0-.1.1,0,0,0,.1,0,.2,0,0,0,.1,0,.2,0,0,0,.1,0,.2,0,0,0,.1.1.1,0,0,.1,0,.2,0,0,0,.1,0,.2,0,0,0,.1,0,.2,0l1.9-1.1c.1,0,.2-.2.2-.3,0-.1,0-.3,0-.4Z"/>
          <path class="cls-13" d="M140.2,297.9c0,0,.1,0,.2,0s.1,0,.2,0c0,0,.1,0,.2,0,0,0,0,0,.1-.1l1.1-1.9c0-.1,0-.2,0-.4,0-.1-.1-.2-.2-.3-.1,0-.2,0-.4,0-.1,0-.2.1-.3.2l-1.1,1.9c0,.1,0,.2,0,.4,0,.1.1.2.2.3Z"/>
          <path class="cls-13" d="M136,296.8c.1,0,.2,0,.3-.1,0,0,.1-.2.1-.3v-2.2c0,0,0-.1,0-.2,0,0,0-.1-.1-.2,0,0,0,0-.2-.1,0,0-.1,0-.2,0s-.1,0-.2,0c0,0-.1,0-.2.1,0,0,0,0-.1.2,0,0,0,.1,0,.2v2.2c0,.1,0,.2.1.3,0,0,.2.1.3.1Z"/>
          <path class="cls-13" d="M131.2,297.7c0,.1.2.2.3.2.1,0,.2,0,.4,0,.1,0,.2-.2.2-.3,0-.1,0-.2,0-.4l-1.1-1.9c0,0,0-.1-.1-.1,0,0-.1,0-.2,0,0,0-.1,0-.2,0s-.1,0-.2,0c0,0-.1,0-.1.1,0,0,0,.1,0,.2,0,0,0,.1,0,.2,0,0,0,.1,0,.2l1.1,1.9Z"/>
          <path class="cls-13" d="M128.6,300.3l-1.9-1.1c0,0-.1,0-.2,0,0,0-.1,0-.2,0,0,0-.1,0-.2,0,0,0,0,0-.1.1,0,0,0,.1,0,.2,0,0,0,.1,0,.2,0,0,0,.1,0,.2,0,0,0,0,.1.1l1.9,1.1c0,0,.1,0,.2,0,0,0,.1,0,.2,0,0,0,.1,0,.2,0,0,0,0,0,.1-.1,0,0,0-.1,0-.2,0,0,0-.1,0-.2,0,0,0-.1,0-.2,0,0,0,0-.1-.1Z"/>
        </g>
      </g>
      <g class="cls-8">
        <text class="cls-6" transform="translate(101.5 349.2)"><tspan x="0" y="0">IBM Cloud </tspan></text>
        <text class="cls-5" transform="translate(111.5 367.2)"><tspan x="0" y="0">Service</tspan></text>
      </g>
    </g>
  </g>
</svg>