<svg width="1080" height="608" viewBox="0 0 1080 608" fill="none" xmlns="http://www.w3.org/2000/svg">
<rect width="1080" height="608" fill="#F4F4F4"/>
<rect x="65" y="214" width="254" height="176" fill="white"/>
<rect x="65" y="214" width="254" height="176" fill="#F4F4F4"/>
<g clip-path="url(#clip0_1393_6407)">
<text fill="black" xml:space="preserve" style="white-space: pre" font-family="IBM Plex Sans" font-size="14" font-weight="600" letter-spacing="0.16px"><tspan x="128" y="233.25">Source Region</tspan></text>
<text fill="black" xml:space="preserve" style="white-space: pre" font-family="IBM Plex Sans" font-size="14" letter-spacing="0.16px"><tspan x="128" y="251.25">(ca-tor)</tspan></text>
<rect width="48" height="48" transform="translate(64 213)" fill="#8D8D8D"/>
<rect width="20" height="20" transform="translate(78 227)" fill="white" fill-opacity="0.01" style="mix-blend-mode:multiply"/>
<path d="M88 238.25C87.3819 238.25 86.7778 238.067 86.2638 237.723C85.7499 237.38 85.3494 236.892 85.1129 236.321C84.8764 235.75 84.8145 235.122 84.9351 234.515C85.0556 233.909 85.3533 233.352 85.7903 232.915C86.2273 232.478 86.7842 232.181 87.3903 232.06C87.9965 231.939 88.6249 232.001 89.1959 232.238C89.7669 232.474 90.255 232.875 90.5983 233.389C90.9417 233.903 91.125 234.507 91.125 235.125C91.1241 235.954 90.7945 236.748 90.2087 237.334C89.6228 237.92 88.8285 238.249 88 238.25ZM88 233.25C87.6292 233.25 87.2667 233.36 86.9583 233.566C86.65 233.772 86.4096 234.065 86.2677 234.407C86.1258 234.75 86.0887 235.127 86.161 235.491C86.2334 235.855 86.412 236.189 86.6742 236.451C86.9364 236.713 87.2705 236.892 87.6342 236.964C87.9979 237.036 88.3749 236.999 88.7175 236.857C89.0601 236.715 89.353 236.475 89.559 236.167C89.765 235.858 89.875 235.496 89.875 235.125C89.8745 234.628 89.6767 234.151 89.3252 233.8C88.9737 233.448 88.4971 233.251 88 233.25Z" fill="white"/>
<path d="M88 245.75L82.7278 239.532C82.6979 239.496 82.5102 239.25 82.5102 239.25C81.6095 238.064 81.1229 236.614 81.125 235.125C81.125 233.302 81.8493 231.553 83.1386 230.264C84.428 228.974 86.1766 228.25 88 228.25C89.8234 228.25 91.5721 228.974 92.8614 230.264C94.1507 231.553 94.875 233.302 94.875 235.125C94.8772 236.614 94.391 238.062 93.4908 239.248L93.4898 239.25C93.4898 239.25 93.3023 239.496 93.2744 239.529L88 245.75ZM83.5078 238.497C83.5078 238.497 83.6537 238.689 83.6869 238.731L88 243.817L92.3188 238.724C92.3462 238.689 92.493 238.495 92.493 238.495C93.2288 237.526 93.6264 236.342 93.625 235.125C93.625 233.633 93.0324 232.202 91.9775 231.148C90.9226 230.093 89.4918 229.5 88 229.5C86.5082 229.5 85.0774 230.093 84.0225 231.148C82.9676 232.202 82.375 233.633 82.375 235.125C82.3736 236.343 82.7716 237.527 83.5078 238.497Z" fill="white"/>
</g>
<rect x="64.5" y="213.5" width="255" height="177" stroke="#8D8D8D"/>
<rect width="58" height="24" transform="translate(161 290)" fill="white" style="mix-blend-mode:multiply"/>
<path d="M161 302H211" stroke="black"/>
<path d="M211 298L219 302L211 306V298Z" fill="black"/>
<rect width="113" height="24" transform="translate(266 290)" fill="white" style="mix-blend-mode:multiply"/>
<path d="M266 302H371" stroke="black"/>
<path d="M371 298L379 302L371 306V298Z" fill="black"/>
<rect width="47" height="24" transform="translate(418 290)" fill="white" style="mix-blend-mode:multiply"/>
<path d="M418 302H465" stroke="black"/>
<rect width="104" height="92" transform="translate(351 278)" fill="white" style="mix-blend-mode:multiply"/>
<rect width="48" height="48" transform="translate(379 278)" fill="#24A148"/>
<rect width="20" height="20" transform="translate(393 292)" fill="white" fill-opacity="0.01" style="mix-blend-mode:multiply"/>
<path d="M407.119 304.131L409.356 306.375H405.219L402.488 302L405.219 297.625H409.356L407.119 299.869L408 300.75L411.75 297L408 293.25L407.119 294.131L409.356 296.375H405.219C405.007 296.376 404.8 296.43 404.615 296.533C404.43 296.635 404.275 296.783 404.163 296.963L401.75 300.819L399.338 296.963C399.225 296.783 399.07 296.635 398.885 296.533C398.7 296.43 398.493 296.376 398.281 296.375H394.25V297.625H398.281L401.012 302L398.281 306.375H394.25V307.625H398.281C398.493 307.624 398.7 307.57 398.885 307.467C399.07 307.365 399.225 307.217 399.338 307.037L401.75 303.181L404.163 307.037C404.275 307.217 404.43 307.365 404.615 307.467C404.8 307.57 405.007 307.624 405.219 307.625H409.356L407.119 309.869L408 310.75L411.75 307L408 303.25L407.119 304.131Z" fill="white"/>
<text fill="black" xml:space="preserve" style="white-space: pre" font-family="IBM Plex Sans" font-size="14" font-weight="600" letter-spacing="0.16px"><tspan x="350.997" y="348.25">Activity Tracker </tspan><tspan x="356.848" y="366.25">Event Routing</tspan></text>
<rect x="754" y="103" width="254" height="176" fill="white"/>
<rect x="754" y="103" width="254" height="176" fill="#FFF1F1"/>
<g clip-path="url(#clip1_1393_6407)">
<text fill="black" xml:space="preserve" style="white-space: pre" font-family="IBM Plex Sans" font-size="14" font-weight="600" letter-spacing="0.16px"><tspan x="817" y="122.25">Unavailable Region MZR</tspan></text>
<text fill="black" xml:space="preserve" style="white-space: pre" font-family="IBM Plex Sans" font-size="14" letter-spacing="0.16px"><tspan x="817" y="140.25">(us-south)</tspan></text>
<rect width="48" height="48" transform="translate(753 102)" fill="#FA4D56"/>
<rect width="20" height="20" transform="translate(767 116)" fill="white" fill-opacity="0.01" style="mix-blend-mode:multiply"/>
<path d="M777 127.25C776.382 127.25 775.778 127.067 775.264 126.723C774.75 126.38 774.349 125.892 774.113 125.321C773.876 124.75 773.814 124.122 773.935 123.515C774.056 122.909 774.353 122.352 774.79 121.915C775.227 121.478 775.784 121.181 776.39 121.06C776.997 120.939 777.625 121.001 778.196 121.238C778.767 121.474 779.255 121.875 779.598 122.389C779.942 122.903 780.125 123.507 780.125 124.125C780.124 124.954 779.795 125.748 779.209 126.334C778.623 126.92 777.829 127.249 777 127.25ZM777 122.25C776.629 122.25 776.267 122.36 775.958 122.566C775.65 122.772 775.41 123.065 775.268 123.407C775.126 123.75 775.089 124.127 775.161 124.491C775.233 124.855 775.412 125.189 775.674 125.451C775.936 125.713 776.27 125.892 776.634 125.964C776.998 126.036 777.375 125.999 777.718 125.857C778.06 125.715 778.353 125.475 778.559 125.167C778.765 124.858 778.875 124.496 778.875 124.125C778.874 123.628 778.677 123.151 778.325 122.8C777.974 122.448 777.497 122.251 777 122.25Z" fill="white"/>
<path d="M777 134.75L771.728 128.532C771.698 128.496 771.51 128.25 771.51 128.25C770.61 127.064 770.123 125.614 770.125 124.125C770.125 122.302 770.849 120.553 772.139 119.264C773.428 117.974 775.177 117.25 777 117.25C778.823 117.25 780.572 117.974 781.861 119.264C783.151 120.553 783.875 122.302 783.875 124.125C783.877 125.614 783.391 127.062 782.491 128.248L782.49 128.25C782.49 128.25 782.302 128.496 782.274 128.529L777 134.75ZM772.508 127.497C772.508 127.497 772.654 127.689 772.687 127.731L777 132.817L781.319 127.724C781.346 127.689 781.493 127.495 781.493 127.495C782.229 126.526 782.626 125.342 782.625 124.125C782.625 122.633 782.032 121.202 780.977 120.148C779.923 119.093 778.492 118.5 777 118.5C775.508 118.5 774.077 119.093 773.023 120.148C771.968 121.202 771.375 122.633 771.375 124.125C771.374 125.343 771.772 126.527 772.508 127.497Z" fill="white"/>
</g>
<rect x="753.5" y="102.5" width="255" height="177" stroke="#FA4D56"/>
<rect x="754" y="321" width="254" height="176" fill="white"/>
<rect x="754" y="321" width="254" height="176" fill="#F4F4F4"/>
<g clip-path="url(#clip2_1393_6407)">
<text fill="black" xml:space="preserve" style="white-space: pre" font-family="IBM Plex Sans" font-size="14" font-weight="600" letter-spacing="0.16px"><tspan x="817" y="340.25">Recovery Region MZR</tspan></text>
<text fill="black" xml:space="preserve" style="white-space: pre" font-family="IBM Plex Sans" font-size="14" letter-spacing="0.16px"><tspan x="817" y="358.25">(us-east)</tspan></text>
<rect width="48" height="48" transform="translate(753 320)" fill="#8D8D8D"/>
<rect width="20" height="20" transform="translate(767 334)" fill="white" fill-opacity="0.01" style="mix-blend-mode:multiply"/>
<path d="M777 345.25C776.382 345.25 775.778 345.067 775.264 344.723C774.75 344.38 774.349 343.892 774.113 343.321C773.876 342.75 773.814 342.122 773.935 341.515C774.056 340.909 774.353 340.352 774.79 339.915C775.227 339.478 775.784 339.181 776.39 339.06C776.997 338.939 777.625 339.001 778.196 339.238C778.767 339.474 779.255 339.875 779.598 340.389C779.942 340.903 780.125 341.507 780.125 342.125C780.124 342.954 779.795 343.748 779.209 344.334C778.623 344.92 777.829 345.249 777 345.25ZM777 340.25C776.629 340.25 776.267 340.36 775.958 340.566C775.65 340.772 775.41 341.065 775.268 341.407C775.126 341.75 775.089 342.127 775.161 342.491C775.233 342.855 775.412 343.189 775.674 343.451C775.936 343.713 776.27 343.892 776.634 343.964C776.998 344.036 777.375 343.999 777.718 343.857C778.06 343.715 778.353 343.475 778.559 343.167C778.765 342.858 778.875 342.496 778.875 342.125C778.874 341.628 778.677 341.151 778.325 340.8C777.974 340.448 777.497 340.251 777 340.25Z" fill="white"/>
<path d="M777 352.75L771.728 346.532C771.698 346.496 771.51 346.25 771.51 346.25C770.61 345.064 770.123 343.614 770.125 342.125C770.125 340.302 770.849 338.553 772.139 337.264C773.428 335.974 775.177 335.25 777 335.25C778.823 335.25 780.572 335.974 781.861 337.264C783.151 338.553 783.875 340.302 783.875 342.125C783.877 343.614 783.391 345.062 782.491 346.248L782.49 346.25C782.49 346.25 782.302 346.496 782.274 346.529L777 352.75ZM772.508 345.497C772.508 345.497 772.654 345.689 772.687 345.731L777 350.817L781.319 345.724C781.346 345.689 781.493 345.495 781.493 345.495C782.229 344.526 782.626 343.342 782.625 342.125C782.625 340.633 782.032 339.202 780.977 338.148C779.923 337.093 778.492 336.5 777 336.5C775.508 336.5 774.077 337.093 773.023 338.148C771.968 339.202 771.375 340.633 771.375 342.125C771.374 343.343 771.772 344.527 772.508 345.497Z" fill="white"/>
</g>
<rect x="753.5" y="320.5" width="255" height="177" stroke="#8D8D8D"/>
<rect width="59" height="16" transform="translate(481 302) rotate(90)" fill="white" style="mix-blend-mode:multiply"/>
<path d="M481 361L481 310C481 305.582 477.418 302 473 302L465 302" stroke="black"/>
<rect width="59" height="16" transform="translate(481 411) rotate(-90)" fill="white" style="mix-blend-mode:multiply"/>
<path d="M481 352L481 403C481 407.418 484.582 411 489 411L497 411" stroke="black"/>
<rect width="59" height="16" transform="matrix(-9.82049e-09 -1 -1 1.44802e-08 481 302)" fill="white" style="mix-blend-mode:multiply"/>
<path d="M481 243L481 294C481 298.418 477.418 302 473 302L465 302" stroke="black"/>
<rect width="59" height="16" transform="matrix(-1.19249e-08 1 1 7.26516e-09 481 190)" fill="white" style="mix-blend-mode:multiply"/>
<path d="M481 249L481 198C481 193.582 484.582 190 489 190L497 190" stroke="black"/>
<rect width="358" height="24" transform="translate(496 178)" fill="white" style="mix-blend-mode:multiply"/>
<path d="M496 190L846 190" stroke="black"/>
<path d="M846 186L854 190L846 194V186Z" fill="black"/>
<rect width="361" height="24" transform="translate(496 399)" fill="white" style="mix-blend-mode:multiply"/>
<path d="M496 411L849 411" stroke="black"/>
<path d="M849 407L857 411L849 415V407Z" fill="black"/>
<rect width="84" height="92" transform="translate(201 279)" fill="white" style="mix-blend-mode:multiply"/>
<rect width="48" height="48" transform="translate(219 279)" fill="#24A148"/>
<rect width="20" height="20" transform="translate(233 293)" fill="white" style="mix-blend-mode:multiply"/>
<path d="M250.5 296.75H239.25V298H250.5V296.75Z" fill="white"/>
<path d="M250.5 308H239.25V309.25H250.5V308Z" fill="white"/>
<path d="M250.5 302.375H239.25V303.625H250.5V302.375Z" fill="white"/>
<path d="M236.75 302.375H235.5V303.625H236.75V302.375Z" fill="white"/>
<path d="M236.75 296.75H235.5V298H236.75V296.75Z" fill="white"/>
<path d="M236.75 308H235.5V309.25H236.75V308Z" fill="white"/>
<text fill="black" xml:space="preserve" style="white-space: pre" font-family="IBM Plex Sans" font-size="14" font-weight="600" letter-spacing="0.16px"><tspan x="214.927" y="349.25">Auditing </tspan><tspan x="224.23" y="367.25">Event</tspan></text>
<rect width="184" height="92" transform="translate(789 165)" fill="white" style="mix-blend-mode:multiply"/>
<rect width="48" height="48" transform="translate(857 165)" fill="#24A148"/>
<rect width="20" height="20" transform="translate(871 179)" fill="white" style="mix-blend-mode:multiply"/>
<path d="M888.5 189V192.75H873.5V182.75H881V181.5H873.5C873.168 181.5 872.851 181.632 872.616 181.866C872.382 182.101 872.25 182.418 872.25 182.75V192.75C872.25 193.082 872.382 193.399 872.616 193.634C872.851 193.868 873.168 194 873.5 194H878.5V196.5H876V197.75H886V196.5H883.5V194H888.5C888.832 194 889.149 193.868 889.384 193.634C889.618 193.399 889.75 193.082 889.75 192.75V189H888.5ZM882.25 196.5H879.75V194H882.25V196.5Z" fill="white"/>
<path d="M884.125 188.375L881 185.275L881.994 184.294L884.125 186.406L888.756 181.812L889.75 182.8L884.125 188.375Z" fill="white"/>
<text fill="black" xml:space="preserve" style="white-space: pre" font-family="IBM Plex Sans" font-size="14" font-weight="600" letter-spacing="0.16px"><tspan x="792.847" y="235.25">IBM Cloud Activity Tracker</tspan></text>
<text fill="black" xml:space="preserve" style="white-space: pre" font-family="IBM Plex Sans" font-size="14" letter-spacing="0.16px"><tspan x="815.213" y="253.25">Hosted event search</tspan></text>
<rect width="184" height="92" transform="translate(789 384)" fill="white" style="mix-blend-mode:multiply"/>
<rect width="48" height="48" transform="translate(857 384)" fill="#24A148"/>
<rect width="20" height="20" transform="translate(871 398)" fill="white" style="mix-blend-mode:multiply"/>
<path d="M888.5 408V411.75H873.5V401.75H881V400.5H873.5C873.168 400.5 872.851 400.632 872.616 400.866C872.382 401.101 872.25 401.418 872.25 401.75V411.75C872.25 412.082 872.382 412.399 872.616 412.634C872.851 412.868 873.168 413 873.5 413H878.5V415.5H876V416.75H886V415.5H883.5V413H888.5C888.832 413 889.149 412.868 889.384 412.634C889.618 412.399 889.75 412.082 889.75 411.75V408H888.5ZM882.25 415.5H879.75V413H882.25V415.5Z" fill="white"/>
<path d="M884.125 407.375L881 404.275L881.994 403.294L884.125 405.406L888.756 400.812L889.75 401.8L884.125 407.375Z" fill="white"/>
<text fill="black" xml:space="preserve" style="white-space: pre" font-family="IBM Plex Sans" font-size="14" font-weight="600" letter-spacing="0.16px"><tspan x="792.847" y="454.25">IBM Cloud Activity Tracker</tspan></text>
<text fill="black" xml:space="preserve" style="white-space: pre" font-family="IBM Plex Sans" font-size="14" letter-spacing="0.16px"><tspan x="815.213" y="472.25">Hosted event search</tspan></text>
<path d="M523 169.5H717C721.142 169.5 724.5 172.858 724.5 177V206C724.5 210.142 721.142 213.5 717 213.5H523C518.858 213.5 515.5 210.142 515.5 206V177C515.5 172.858 518.858 169.5 523 169.5Z" fill="white"/>
<g clip-path="url(#clip3_1393_6407)">
<text fill="black" xml:space="preserve" style="white-space: pre" font-family="IBM Plex Sans" font-size="12" letter-spacing="0.32px"><tspan x="531" y="187.5">Target 1 destination: us-south&#10;</tspan><tspan x="531" y="203.5">Location match: ca-tor</tspan></text>
</g>
<path d="M523 169.5H717C721.142 169.5 724.5 172.858 724.5 177V206C724.5 210.142 721.142 213.5 717 213.5H523C518.858 213.5 515.5 210.142 515.5 206V177C515.5 172.858 518.858 169.5 523 169.5Z" stroke="black"/>
<path d="M523 388.5H717C721.142 388.5 724.5 391.858 724.5 396V425C724.5 429.142 721.142 432.5 717 432.5H523C518.858 432.5 515.5 429.142 515.5 425V396C515.5 391.858 518.858 388.5 523 388.5Z" fill="white"/>
<g clip-path="url(#clip4_1393_6407)">
<text fill="black" xml:space="preserve" style="white-space: pre" font-family="IBM Plex Sans" font-size="12" letter-spacing="0.32px"><tspan x="531" y="406.5">Target 2 destination: us-east&#10;</tspan><tspan x="531" y="422.5">Location match: ca-tor</tspan></text>
</g>
<path d="M523 388.5H717C721.142 388.5 724.5 391.858 724.5 396V425C724.5 429.142 721.142 432.5 717 432.5H523C518.858 432.5 515.5 429.142 515.5 425V396C515.5 391.858 518.858 388.5 523 388.5Z" stroke="black"/>
<rect width="72" height="92" transform="translate(100 279)" fill="white" style="mix-blend-mode:multiply"/>
<rect width="48" height="48" transform="translate(112 279)" fill="#8D8D8D"/>
<g clip-path="url(#clip5_1393_6407)">
<path d="M141.364 301.532C140.743 300.368 139.76 299.438 138.564 298.881C137.368 298.324 136.023 298.172 134.732 298.446C133.442 298.72 132.276 299.407 131.409 300.402C130.543 301.397 130.024 302.647 129.93 303.963C128.856 304.078 127.868 304.6 127.169 305.422C126.469 306.244 126.111 307.303 126.168 308.381C126.225 309.459 126.693 310.473 127.476 311.217C128.259 311.96 129.297 312.375 130.376 312.376H140.376C141.74 312.377 143.056 311.867 144.064 310.948C145.072 310.028 145.699 308.764 145.823 307.405C145.947 306.046 145.558 304.69 144.733 303.604C143.908 302.517 142.706 301.778 141.364 301.532ZM140.376 311.438H130.376C129.544 311.44 128.743 311.126 128.135 310.558C127.527 309.991 127.158 309.214 127.102 308.384C127.047 307.554 127.309 306.735 127.836 306.091C128.363 305.448 129.114 305.029 129.939 304.92C130.005 305.747 130.24 306.552 130.629 307.285C130.657 307.341 130.696 307.391 130.743 307.431C130.791 307.472 130.846 307.502 130.906 307.521C130.966 307.54 131.029 307.547 131.091 307.541C131.153 307.535 131.214 307.517 131.269 307.487C131.324 307.458 131.373 307.417 131.412 307.369C131.451 307.32 131.48 307.264 131.498 307.204C131.515 307.144 131.52 307.081 131.513 307.018C131.505 306.956 131.485 306.896 131.454 306.842C130.835 305.684 130.681 304.333 131.023 303.065C131.366 301.796 132.18 300.707 133.299 300.019C134.417 299.33 135.756 299.095 137.043 299.36C138.329 299.625 139.466 300.372 140.221 301.447C139.472 301.467 138.735 301.642 138.056 301.959C137.377 302.276 136.771 302.729 136.274 303.291C136.232 303.336 136.199 303.39 136.178 303.449C136.157 303.508 136.147 303.57 136.151 303.632C136.154 303.695 136.169 303.756 136.197 303.812C136.224 303.868 136.262 303.918 136.309 303.96C136.355 304.001 136.41 304.032 136.469 304.052C136.528 304.072 136.591 304.08 136.653 304.076C136.715 304.071 136.776 304.054 136.832 304.026C136.887 303.997 136.937 303.958 136.977 303.911C137.478 303.343 138.113 302.909 138.824 302.65C139.536 302.391 140.301 302.314 141.049 302.426C141.798 302.539 142.507 302.837 143.111 303.294C143.714 303.751 144.194 304.352 144.506 305.042C144.817 305.733 144.951 306.49 144.894 307.245C144.838 308 144.593 308.729 144.182 309.365C143.772 310.001 143.208 310.524 142.543 310.886C141.878 311.249 141.133 311.438 140.376 311.438Z" fill="white"/>
<path d="M145.937 299.41C145.906 299.356 145.865 299.309 145.815 299.271C145.766 299.233 145.71 299.205 145.649 299.189C145.589 299.173 145.526 299.169 145.465 299.177C145.403 299.185 145.343 299.206 145.29 299.237L143.402 300.327C143.347 300.357 143.298 300.398 143.258 300.447C143.219 300.497 143.19 300.554 143.173 300.615C143.156 300.675 143.151 300.739 143.159 300.802C143.167 300.864 143.187 300.925 143.219 300.98C143.25 301.034 143.293 301.082 143.343 301.12C143.393 301.159 143.451 301.186 143.512 301.202C143.573 301.218 143.637 301.221 143.699 301.212C143.762 301.202 143.822 301.181 143.876 301.148L145.763 300.058C145.872 299.995 145.952 299.892 145.984 299.77C146.017 299.649 146 299.519 145.937 299.41Z" fill="white"/>
<path d="M140.174 297.92C140.228 297.951 140.287 297.971 140.349 297.979C140.411 297.987 140.473 297.983 140.533 297.967C140.594 297.951 140.65 297.923 140.699 297.885C140.749 297.847 140.79 297.8 140.821 297.746L141.911 295.859C141.973 295.75 141.989 295.621 141.956 295.5C141.924 295.38 141.844 295.277 141.736 295.214C141.628 295.151 141.499 295.134 141.378 295.166C141.257 295.198 141.153 295.277 141.09 295.384L140 297.272C139.937 297.381 139.92 297.51 139.953 297.632C139.985 297.753 140.065 297.857 140.174 297.92Z" fill="white"/>
<path d="M136.001 296.802C136.127 296.802 136.247 296.752 136.336 296.663C136.425 296.574 136.475 296.453 136.475 296.327V294.148C136.476 294.085 136.464 294.023 136.441 293.965C136.417 293.906 136.382 293.853 136.338 293.809C136.294 293.764 136.242 293.729 136.184 293.705C136.126 293.68 136.064 293.668 136.001 293.668C135.938 293.668 135.876 293.68 135.818 293.705C135.76 293.729 135.708 293.764 135.664 293.809C135.62 293.853 135.585 293.906 135.561 293.965C135.538 294.023 135.526 294.085 135.527 294.148V296.327C135.527 296.453 135.577 296.574 135.666 296.663C135.755 296.752 135.875 296.802 136.001 296.802Z" fill="white"/>
<path d="M131.18 297.746C131.244 297.854 131.347 297.932 131.468 297.964C131.589 297.996 131.718 297.979 131.826 297.917C131.935 297.854 132.014 297.751 132.047 297.63C132.08 297.51 132.063 297.381 132.002 297.272L130.912 295.384C130.881 295.33 130.84 295.282 130.79 295.244C130.741 295.205 130.684 295.177 130.624 295.161C130.563 295.144 130.5 295.14 130.438 295.148C130.376 295.156 130.316 295.176 130.262 295.208C130.208 295.239 130.161 295.281 130.123 295.33C130.085 295.38 130.057 295.437 130.041 295.497C130.025 295.558 130.021 295.621 130.03 295.683C130.038 295.745 130.059 295.805 130.091 295.859L131.18 297.746Z" fill="white"/>
<path d="M128.6 300.327L126.712 299.237C126.658 299.205 126.599 299.184 126.537 299.176C126.475 299.167 126.412 299.171 126.351 299.187C126.291 299.203 126.234 299.231 126.184 299.269C126.135 299.307 126.093 299.354 126.062 299.408C126.03 299.463 126.01 299.522 126.002 299.585C125.994 299.647 125.998 299.71 126.015 299.77C126.031 299.83 126.059 299.887 126.098 299.936C126.136 299.986 126.184 300.027 126.238 300.058L128.126 301.148C128.18 301.18 128.24 301.2 128.301 301.209C128.363 301.217 128.427 301.213 128.487 301.198C128.548 301.182 128.604 301.154 128.654 301.116C128.704 301.078 128.745 301.03 128.777 300.976C128.808 300.922 128.828 300.862 128.836 300.8C128.844 300.738 128.84 300.675 128.824 300.615C128.807 300.554 128.779 300.498 128.741 300.448C128.702 300.399 128.654 300.357 128.6 300.327Z" fill="white"/>
</g>
<text fill="black" xml:space="preserve" style="white-space: pre" font-family="IBM Plex Sans" font-size="14" font-weight="600" letter-spacing="0.16px"><tspan x="101.504" y="349.25">IBM Cloud </tspan><tspan x="111.471" y="367.25">Service</tspan></text>
<defs>
<clipPath id="clip0_1393_6407">
<rect width="256" height="48" fill="white" transform="translate(64 213)"/>
</clipPath>
<clipPath id="clip1_1393_6407">
<rect width="256" height="48" fill="white" transform="translate(753 102)"/>
</clipPath>
<clipPath id="clip2_1393_6407">
<rect width="256" height="48" fill="white" transform="translate(753 320)"/>
</clipPath>
<clipPath id="clip3_1393_6407">
<rect width="210" height="44" fill="white" transform="translate(515 169)"/>
</clipPath>
<clipPath id="clip4_1393_6407">
<rect width="210" height="44" fill="white" transform="translate(515 388)"/>
</clipPath>
<clipPath id="clip5_1393_6407">
<rect width="20" height="20" fill="white" transform="translate(126 293)"/>
</clipPath>
</defs>
</svg>
