<svg width="1080" height="540" viewBox="0 0 1080 540" fill="none" xmlns="http://www.w3.org/2000/svg">
<rect width="1080" height="540" fill="#F4F4F4"/>
<rect x="248.5" y="106.5" width="479" height="327" fill="white"/>
<rect x="249" y="107" width="478" height="326" fill="white"/>
<g clip-path="url(#clip0_1280_5801)">
<text fill="black" xml:space="preserve" style="white-space: pre" font-family="IBM Plex Sans" font-size="14" font-weight="600" letter-spacing="0.16px"><tspan x="300" y="135.25">Madrid MZR</tspan></text>
<rect width="20" height="20" transform="translate(264 120)" fill="white" style="mix-blend-mode:multiply"/>
<path d="M274 131.25C273.382 131.25 272.778 131.067 272.264 130.723C271.75 130.38 271.349 129.892 271.113 129.321C270.876 128.75 270.814 128.122 270.935 127.515C271.056 126.909 271.353 126.352 271.79 125.915C272.227 125.478 272.784 125.181 273.39 125.06C273.997 124.939 274.625 125.001 275.196 125.238C275.767 125.474 276.255 125.875 276.598 126.389C276.942 126.903 277.125 127.507 277.125 128.125C277.124 128.954 276.795 129.748 276.209 130.334C275.623 130.92 274.829 131.249 274 131.25ZM274 126.25C273.629 126.25 273.267 126.36 272.958 126.566C272.65 126.772 272.41 127.065 272.268 127.407C272.126 127.75 272.089 128.127 272.161 128.491C272.233 128.855 272.412 129.189 272.674 129.451C272.936 129.713 273.27 129.892 273.634 129.964C273.998 130.036 274.375 129.999 274.718 129.857C275.06 129.715 275.353 129.475 275.559 129.167C275.765 128.858 275.875 128.496 275.875 128.125C275.874 127.628 275.677 127.151 275.325 126.8C274.974 126.448 274.497 126.251 274 126.25Z" fill="black"/>
<path d="M274 138.75L268.728 132.532C268.698 132.496 268.51 132.25 268.51 132.25C267.61 131.064 267.123 129.614 267.125 128.125C267.125 126.302 267.849 124.553 269.139 123.264C270.428 121.974 272.177 121.25 274 121.25C275.823 121.25 277.572 121.974 278.861 123.264C280.151 124.553 280.875 126.302 280.875 128.125C280.877 129.614 280.391 131.062 279.491 132.248L279.49 132.25C279.49 132.25 279.302 132.496 279.274 132.529L274 138.75ZM269.508 131.497C269.508 131.497 269.654 131.689 269.687 131.731L274 136.817L278.319 131.724C278.346 131.689 278.493 131.495 278.493 131.495C279.229 130.526 279.626 129.342 279.625 128.125C279.625 126.633 279.032 125.202 277.977 124.148C276.923 123.093 275.492 122.5 274 122.5C272.508 122.5 271.077 123.093 270.023 124.148C268.968 125.202 268.375 126.633 268.375 128.125C268.374 129.343 268.772 130.527 269.508 131.497Z" fill="black"/>
<line x1="250" y1="106" x2="250" y2="154" stroke="#8D8D8D" stroke-width="4"/>
</g>
<rect x="248.5" y="106.5" width="479" height="327" stroke="#8D8D8D"/>
<rect x="752.5" y="106.5" width="279" height="327" fill="white"/>
<rect x="753" y="107" width="278" height="326" fill="white"/>
<g clip-path="url(#clip1_1280_5801)">
<text fill="black" xml:space="preserve" style="white-space: pre" font-family="IBM Plex Sans" font-size="14" font-weight="600" letter-spacing="0.16px"><tspan x="804" y="135.25">Frankfurt MZR</tspan></text>
<rect width="20" height="20" transform="translate(768 120)" fill="white" style="mix-blend-mode:multiply"/>
<path d="M778 131.25C777.382 131.25 776.778 131.067 776.264 130.723C775.75 130.38 775.349 129.892 775.113 129.321C774.876 128.75 774.814 128.122 774.935 127.515C775.056 126.909 775.353 126.352 775.79 125.915C776.227 125.478 776.784 125.181 777.39 125.06C777.997 124.939 778.625 125.001 779.196 125.238C779.767 125.474 780.255 125.875 780.598 126.389C780.942 126.903 781.125 127.507 781.125 128.125C781.124 128.954 780.795 129.748 780.209 130.334C779.623 130.92 778.829 131.249 778 131.25ZM778 126.25C777.629 126.25 777.267 126.36 776.958 126.566C776.65 126.772 776.41 127.065 776.268 127.407C776.126 127.75 776.089 128.127 776.161 128.491C776.233 128.855 776.412 129.189 776.674 129.451C776.936 129.713 777.27 129.892 777.634 129.964C777.998 130.036 778.375 129.999 778.718 129.857C779.06 129.715 779.353 129.475 779.559 129.167C779.765 128.858 779.875 128.496 779.875 128.125C779.874 127.628 779.677 127.151 779.325 126.8C778.974 126.448 778.497 126.251 778 126.25Z" fill="black"/>
<path d="M778 138.75L772.728 132.532C772.698 132.496 772.51 132.25 772.51 132.25C771.61 131.064 771.123 129.614 771.125 128.125C771.125 126.302 771.849 124.553 773.139 123.264C774.428 121.974 776.177 121.25 778 121.25C779.823 121.25 781.572 121.974 782.861 123.264C784.151 124.553 784.875 126.302 784.875 128.125C784.877 129.614 784.391 131.062 783.491 132.248L783.49 132.25C783.49 132.25 783.302 132.496 783.274 132.529L778 138.75ZM773.508 131.497C773.508 131.497 773.654 131.689 773.687 131.731L778 136.817L782.319 131.724C782.346 131.689 782.493 131.495 782.493 131.495C783.229 130.526 783.626 129.342 783.625 128.125C783.625 126.633 783.032 125.202 781.977 124.148C780.923 123.093 779.492 122.5 778 122.5C776.508 122.5 775.077 123.093 774.023 124.148C772.968 125.202 772.375 126.633 772.375 128.125C772.374 129.343 772.772 130.527 773.508 131.497Z" fill="black"/>
<line x1="754" y1="106" x2="754" y2="154" stroke="#8D8D8D" stroke-width="4"/>
</g>
<rect x="752.5" y="106.5" width="279" height="327" stroke="#8D8D8D"/>
<rect width="48" height="74" transform="translate(48 162)" fill="white" style="mix-blend-mode:multiply"/>
<rect width="48" height="48" transform="translate(48 162)" fill="#8D8D8D"/>
<rect width="20" height="20" transform="translate(62 176)" fill="white" style="mix-blend-mode:multiply"/>
<path d="M72 178.5C72.6181 178.5 73.2223 178.683 73.7362 179.027C74.2501 179.37 74.6506 179.858 74.8871 180.429C75.1236 181 75.1855 181.628 75.065 182.235C74.9444 182.841 74.6467 183.398 74.2097 183.835C73.7727 184.272 73.2158 184.569 72.6097 184.69C72.0035 184.811 71.3751 184.749 70.8041 184.512C70.2331 184.276 69.745 183.875 69.4017 183.361C69.0583 182.847 68.875 182.243 68.875 181.625C68.875 180.796 69.2042 180.001 69.7903 179.415C70.3763 178.829 71.1712 178.5 72 178.5ZM72 177.25C71.1347 177.25 70.2888 177.507 69.5694 177.987C68.8499 178.468 68.2892 179.151 67.958 179.951C67.6269 180.75 67.5403 181.63 67.7091 182.479C67.8779 183.327 68.2946 184.107 68.9064 184.719C69.5183 185.33 70.2978 185.747 71.1465 185.916C71.9951 186.085 72.8748 185.998 73.6742 185.667C74.4737 185.336 75.1569 184.775 75.6377 184.056C76.1184 183.336 76.375 182.49 76.375 181.625C76.375 180.465 75.9141 179.352 75.0936 178.531C74.2731 177.711 73.1603 177.25 72 177.25Z" fill="white"/>
<path d="M78.25 194.75H77V191.625C77 191.215 76.9192 190.808 76.7621 190.429C76.6051 190.05 76.3749 189.705 76.0847 189.415C75.7945 189.125 75.45 188.895 75.0709 188.738C74.6917 188.581 74.2854 188.5 73.875 188.5H70.125C69.2962 188.5 68.5013 188.829 67.9153 189.415C67.3292 190.001 67 190.796 67 191.625V194.75H65.75V191.625C65.75 190.465 66.2109 189.352 67.0314 188.531C67.8519 187.711 68.9647 187.25 70.125 187.25H73.875C75.0353 187.25 76.1481 187.711 76.9686 188.531C77.7891 189.352 78.25 190.465 78.25 191.625V194.75Z" fill="white"/>
<text fill="black" xml:space="preserve" style="white-space: pre" font-family="IBM Plex Sans" font-size="14" font-weight="600" letter-spacing="0.16px"><tspan x="53.2093" y="232.25">Users</tspan></text>
<rect width="102" height="74" transform="translate(21 304)" fill="white" style="mix-blend-mode:multiply"/>
<rect width="48" height="48" transform="translate(48 304)" fill="#8D8D8D"/>
<rect width="20" height="20" transform="translate(62 318)" fill="white" style="mix-blend-mode:multiply"/>
<path d="M67 320.5V323H64.5V320.5H67ZM68.25 319.25H63.25V324.25H68.25V319.25ZM73.25 320.5V323H70.75V320.5H73.25ZM74.5 319.25H69.5V324.25H74.5V319.25ZM79.5 320.5V323H77V320.5H79.5ZM80.75 319.25H75.75V324.25H80.75V319.25ZM67 326.75V329.25H64.5V326.75H67ZM68.25 325.5H63.25V330.5H68.25V325.5ZM73.25 326.75V329.25H70.75V326.75H73.25ZM74.5 325.5H69.5V330.5H74.5V325.5ZM79.5 326.75V329.25H77V326.75H79.5ZM80.75 325.5H75.75V330.5H80.75V325.5ZM67 333V335.5H64.5V333H67ZM68.25 331.75H63.25V336.75H68.25V331.75ZM73.25 333V335.5H70.75V333H73.25ZM74.5 331.75H69.5V336.75H74.5V331.75ZM79.5 333V335.5H77V333H79.5ZM80.75 331.75H75.75V336.75H80.75V331.75Z" fill="white"/>
<text fill="black" xml:space="preserve" style="white-space: pre" font-family="IBM Plex Sans" font-size="14" font-weight="600" letter-spacing="0.16px"><tspan x="24.5987" y="374.25">App or service</tspan></text>
<rect width="72" height="92" transform="translate(325 234)" fill="white" style="mix-blend-mode:multiply"/>
<rect width="48" height="48" transform="translate(337 234)" fill="#8D8D8D"/>
<g clip-path="url(#clip2_1280_5801)">
<path d="M366.363 256.532C365.742 255.368 364.759 254.438 363.563 253.881C362.367 253.324 361.022 253.172 359.731 253.446C358.441 253.72 357.275 254.407 356.408 255.402C355.542 256.397 355.023 257.647 354.929 258.963C353.855 259.078 352.867 259.6 352.168 260.422C351.468 261.244 351.11 262.303 351.167 263.381C351.224 264.459 351.692 265.473 352.475 266.217C353.258 266.96 354.296 267.375 355.375 267.376H365.375C366.739 267.377 368.055 266.867 369.063 265.948C370.071 265.028 370.698 263.764 370.822 262.405C370.946 261.046 370.557 259.69 369.732 258.604C368.907 257.517 367.705 256.778 366.363 256.532ZM365.375 266.438H355.375C354.543 266.44 353.742 266.126 353.134 265.558C352.526 264.991 352.157 264.214 352.101 263.384C352.046 262.554 352.308 261.735 352.835 261.091C353.362 260.448 354.113 260.029 354.938 259.92C355.004 260.747 355.239 261.552 355.628 262.285C355.656 262.341 355.695 262.391 355.742 262.431C355.79 262.472 355.845 262.502 355.905 262.521C355.965 262.54 356.028 262.547 356.09 262.541C356.152 262.535 356.213 262.517 356.268 262.487C356.323 262.458 356.372 262.417 356.411 262.369C356.45 262.32 356.479 262.264 356.497 262.204C356.514 262.144 356.519 262.081 356.512 262.018C356.504 261.956 356.484 261.896 356.453 261.842C355.834 260.684 355.68 259.333 356.022 258.065C356.365 256.796 357.179 255.707 358.298 255.019C359.416 254.33 360.755 254.095 362.042 254.36C363.328 254.625 364.465 255.372 365.22 256.447C364.471 256.467 363.734 256.642 363.055 256.959C362.376 257.276 361.77 257.729 361.273 258.291C361.231 258.336 361.198 258.39 361.177 258.449C361.156 258.508 361.146 258.57 361.15 258.632C361.153 258.695 361.168 258.756 361.196 258.812C361.223 258.868 361.261 258.918 361.308 258.96C361.354 259.001 361.409 259.032 361.468 259.052C361.527 259.072 361.59 259.08 361.652 259.076C361.714 259.071 361.775 259.054 361.831 259.026C361.886 258.997 361.936 258.958 361.976 258.911C362.477 258.343 363.112 257.909 363.823 257.65C364.535 257.391 365.3 257.314 366.048 257.426C366.797 257.539 367.506 257.837 368.11 258.294C368.713 258.751 369.193 259.352 369.505 260.042C369.816 260.733 369.95 261.49 369.893 262.245C369.837 263 369.592 263.729 369.182 264.365C368.771 265.001 368.207 265.524 367.542 265.886C366.877 266.249 366.132 266.438 365.375 266.438Z" fill="white"/>
<path d="M370.936 254.41C370.905 254.356 370.864 254.309 370.814 254.271C370.765 254.233 370.709 254.205 370.648 254.189C370.588 254.173 370.526 254.169 370.464 254.177C370.402 254.185 370.342 254.206 370.289 254.237L368.401 255.327C368.346 255.357 368.297 255.398 368.258 255.447C368.218 255.497 368.189 255.554 368.172 255.615C368.155 255.675 368.15 255.739 368.158 255.802C368.166 255.864 368.186 255.925 368.218 255.98C368.249 256.034 368.292 256.082 368.342 256.12C368.392 256.159 368.45 256.186 368.511 256.202C368.572 256.218 368.636 256.221 368.698 256.212C368.761 256.202 368.821 256.181 368.875 256.148L370.762 255.058C370.871 254.995 370.951 254.892 370.983 254.77C371.016 254.649 370.999 254.519 370.936 254.41Z" fill="white"/>
<path d="M365.173 252.92C365.227 252.951 365.286 252.971 365.348 252.979C365.41 252.987 365.472 252.983 365.532 252.967C365.593 252.951 365.649 252.923 365.698 252.885C365.748 252.847 365.789 252.8 365.82 252.746L366.91 250.859C366.972 250.75 366.988 250.621 366.955 250.5C366.923 250.38 366.843 250.277 366.735 250.214C366.627 250.151 366.498 250.134 366.377 250.166C366.256 250.198 366.152 250.277 366.089 250.384L364.999 252.272C364.936 252.381 364.919 252.51 364.952 252.632C364.984 252.753 365.064 252.857 365.173 252.92Z" fill="white"/>
<path d="M361 251.802C361.126 251.802 361.246 251.752 361.335 251.663C361.424 251.574 361.474 251.453 361.474 251.327V249.148C361.475 249.085 361.463 249.023 361.44 248.965C361.416 248.906 361.381 248.853 361.337 248.809C361.293 248.764 361.241 248.729 361.183 248.705C361.125 248.68 361.063 248.668 361 248.668C360.937 248.668 360.875 248.68 360.817 248.705C360.759 248.729 360.707 248.764 360.663 248.809C360.619 248.853 360.584 248.906 360.56 248.965C360.537 249.023 360.525 249.085 360.526 249.148V251.327C360.526 251.453 360.576 251.574 360.665 251.663C360.754 251.752 360.874 251.802 361 251.802Z" fill="white"/>
<path d="M356.179 252.746C356.243 252.854 356.346 252.932 356.467 252.964C356.588 252.996 356.717 252.979 356.825 252.917C356.934 252.854 357.013 252.751 357.046 252.63C357.079 252.51 357.062 252.381 357.001 252.272L355.911 250.384C355.88 250.33 355.839 250.282 355.789 250.244C355.74 250.205 355.683 250.177 355.623 250.161C355.562 250.144 355.499 250.14 355.437 250.148C355.375 250.156 355.315 250.176 355.261 250.208C355.207 250.239 355.16 250.281 355.122 250.33C355.084 250.38 355.056 250.437 355.04 250.497C355.024 250.558 355.02 250.621 355.029 250.683C355.037 250.745 355.058 250.805 355.09 250.859L356.179 252.746Z" fill="white"/>
<path d="M353.599 255.327L351.711 254.237C351.658 254.205 351.598 254.184 351.536 254.176C351.474 254.167 351.411 254.171 351.35 254.187C351.29 254.203 351.233 254.231 351.183 254.269C351.134 254.307 351.092 254.354 351.061 254.408C351.029 254.463 351.009 254.522 351.001 254.585C350.993 254.647 350.997 254.71 351.014 254.77C351.03 254.83 351.058 254.887 351.097 254.936C351.135 254.986 351.183 255.027 351.237 255.058L353.125 256.148C353.179 256.18 353.239 256.2 353.301 256.209C353.363 256.217 353.426 256.213 353.486 256.198C353.547 256.182 353.603 256.154 353.653 256.116C353.703 256.078 353.744 256.03 353.776 255.976C353.807 255.922 353.827 255.862 353.835 255.8C353.843 255.738 353.839 255.675 353.823 255.615C353.806 255.554 353.778 255.498 353.74 255.448C353.701 255.399 353.653 255.357 353.599 255.327Z" fill="white"/>
</g>
<text fill="black" xml:space="preserve" style="white-space: pre" font-family="IBM Plex Sans" font-size="14" font-weight="600" letter-spacing="0.16px"><tspan x="326.504" y="304.25">IBM Cloud </tspan><tspan x="337.257" y="322.25">service</tspan></text>
<rect width="56" height="92" transform="translate(596 234)" fill="white" style="mix-blend-mode:multiply"/>
<rect width="48" height="48" transform="translate(600 234)" fill="#24A148"/>
<rect width="20" height="20" transform="translate(614 248)" fill="white" style="mix-blend-mode:multiply"/>
<path d="M631.5 251.75H620.25V253H631.5V251.75Z" fill="white"/>
<path d="M631.5 263H620.25V264.25H631.5V263Z" fill="white"/>
<path d="M631.5 257.375H620.25V258.625H631.5V257.375Z" fill="white"/>
<path d="M617.75 257.375H616.5V258.625H617.75V257.375Z" fill="white"/>
<path d="M617.75 251.75H616.5V253H617.75V251.75Z" fill="white"/>
<path d="M617.75 263H616.5V264.25H617.75V263Z" fill="white"/>
<text fill="black" xml:space="preserve" style="white-space: pre" font-family="IBM Plex Sans" font-size="14" font-weight="600" letter-spacing="0.16px"><tspan x="595.927" y="304.25">Auditing </tspan><tspan x="602.012" y="322.25">events</tspan></text>
<rect width="192" height="95" transform="translate(796 234)" fill="white" style="mix-blend-mode:multiply"/>
<rect width="48" height="48" transform="translate(868 234)" fill="#24A148"/>
<rect width="20" height="20" transform="translate(882 248)" fill="white" style="mix-blend-mode:multiply"/>
<path d="M896.119 260.131L898.356 262.375H894.219L891.488 258L894.219 253.625H898.356L896.119 255.869L897 256.75L900.75 253L897 249.25L896.119 250.131L898.356 252.375H894.219C894.007 252.376 893.8 252.43 893.615 252.533C893.43 252.635 893.275 252.783 893.163 252.963L890.75 256.819L888.338 252.963C888.225 252.783 888.07 252.635 887.885 252.533C887.7 252.43 887.493 252.376 887.281 252.375H883.25V253.625H887.281L890.012 258L887.281 262.375H883.25V263.625H887.281C887.493 263.624 887.7 263.57 887.885 263.467C888.07 263.365 888.225 263.217 888.338 263.037L890.75 259.181L893.163 263.037C893.275 263.217 893.43 263.365 893.615 263.467C893.8 263.57 894.007 263.624 894.219 263.625H898.356L896.119 265.869L897 266.75L900.75 263L897 259.25L896.119 260.131Z" fill="white"/>
<text fill="black" xml:space="preserve" style="white-space: pre" font-family="IBM Plex Sans" font-size="14" font-weight="600" letter-spacing="0.16px"><tspan x="803.767" y="304.25">IBM Cloud Activity Tracker </tspan><tspan x="845.848" y="322.25">Event Routing&#10;</tspan></text>
<rect width="137" height="8" transform="translate(200 254)" fill="white" style="mix-blend-mode:multiply"/>
<path d="M200 258H329" stroke="black"/>
<path d="M329 254L337 258L329 262V254Z" fill="black"/>
<rect width="215" height="8" transform="translate(385 254)" fill="white" style="mix-blend-mode:multiply"/>
<path d="M385 258H592" stroke="black"/>
<path d="M592 254L600 258L592 262V254Z" fill="black"/>
<rect width="220" height="8" transform="translate(648 254)" fill="white" style="mix-blend-mode:multiply"/>
<path d="M648 258H860" stroke="black"/>
<path d="M860 254L868 258L860 262V254Z" fill="black"/>
<rect width="104" height="68" transform="matrix(-1 0 0 1 200 186)" fill="white" style="mix-blend-mode:multiply"/>
<path d="M96 186H192C196.418 186 200 189.582 200 194V254" stroke="black"/>
<rect width="104" height="76" transform="matrix(-1 0 0 -1 200 330)" fill="white" style="mix-blend-mode:multiply"/>
<path d="M96 330H192C196.418 330 200 326.418 200 322V254" stroke="black"/>
<rect x="115.5" y="178.5" width="65" height="15" rx="7.5" fill="white"/>
<text fill="black" xml:space="preserve" style="white-space: pre" font-family="IBM Plex Sans" font-size="12" letter-spacing="0.32px"><tspan x="123" y="189.5">API calls</tspan></text>
<rect x="115.5" y="178.5" width="65" height="15" rx="7.5" stroke="black"/>
<rect x="115.5" y="320.5" width="65" height="15" rx="7.5" fill="white"/>
<text fill="black" xml:space="preserve" style="white-space: pre" font-family="IBM Plex Sans" font-size="12" letter-spacing="0.32px"><tspan x="123" y="331.5">API calls</tspan></text>
<rect x="115.5" y="320.5" width="65" height="15" rx="7.5" stroke="black"/>
<defs>
<clipPath id="clip0_1280_5801">
<rect width="480" height="48" fill="white" transform="translate(248 106)"/>
</clipPath>
<clipPath id="clip1_1280_5801">
<rect width="280" height="48" fill="white" transform="translate(752 106)"/>
</clipPath>
<clipPath id="clip2_1280_5801">
<rect width="20" height="20" fill="white" transform="translate(351 248)"/>
</clipPath>
</defs>
</svg>
