<svg width="1080" height="540" viewBox="0 0 1080 540" fill="none" xmlns="http://www.w3.org/2000/svg">
<rect width="1080" height="540" fill="#F4F4F4"/>
<rect width="1080" height="540" fill="#F4F4F4"/>
<rect x="48.5" y="146.5" width="983" height="247" fill="white"/>
<g clip-path="url(#clip0_1111_49806)">
<text fill="black" xml:space="preserve" style="white-space: pre" font-family="IBM Plex Sans" font-size="14" font-weight="600" letter-spacing="0.16px"><tspan x="100" y="175.25">IBM Cloud</tspan></text>
<g clip-path="url(#clip1_1111_49806)">
<rect width="20" height="20" transform="translate(64 160)" fill="white" style="mix-blend-mode:multiply"/>
<path d="M79.3627 168.532C78.7416 167.368 77.7588 166.438 76.5627 165.881C75.3666 165.324 74.0219 165.172 72.7314 165.446C71.4409 165.72 70.2746 166.407 69.4083 167.402C68.542 168.397 68.0227 169.647 67.9286 170.963C66.8555 171.078 65.8673 171.6 65.1676 172.422C64.4679 173.244 64.1097 174.303 64.1669 175.381C64.2241 176.459 64.6922 177.473 65.4749 178.217C66.2577 178.96 67.2955 179.375 68.3749 179.376H78.3749C79.7394 179.377 81.055 178.867 82.063 177.948C83.0709 177.028 83.6985 175.764 83.8223 174.405C83.9461 173.046 83.5572 171.69 82.732 170.604C81.9068 169.517 80.705 168.778 79.3627 168.532ZM78.3749 178.438H68.3749C67.5434 178.44 66.7423 178.126 66.1343 177.558C65.5263 176.991 65.157 176.214 65.1014 175.384C65.0458 174.554 65.308 173.735 65.8348 173.091C66.3616 172.448 67.1135 172.029 67.9378 171.92C68.0039 172.747 68.2387 173.552 68.6276 174.285C68.6557 174.341 68.6948 174.391 68.7425 174.431C68.7901 174.472 68.8454 174.502 68.9051 174.521C68.9648 174.54 69.0276 174.547 69.0899 174.541C69.1522 174.535 69.2127 174.517 69.2678 174.487C69.323 174.458 69.3716 174.417 69.4109 174.369C69.4502 174.32 69.4794 174.264 69.4967 174.204C69.514 174.144 69.519 174.081 69.5116 174.018C69.5042 173.956 69.4844 173.896 69.4534 173.842C68.8338 172.684 68.6797 171.333 69.0224 170.065C69.3651 168.796 70.1789 167.707 71.2975 167.019C72.4162 166.33 73.7555 166.095 75.0419 166.36C76.3284 166.625 77.4651 167.372 78.2199 168.447C77.4708 168.467 76.734 168.642 76.055 168.959C75.3761 169.276 74.7696 169.729 74.273 170.291C74.2307 170.336 74.198 170.39 74.1769 170.449C74.1557 170.508 74.1464 170.57 74.1496 170.632C74.1529 170.695 74.1685 170.756 74.1956 170.812C74.2228 170.868 74.2608 170.918 74.3076 170.96C74.3544 171.001 74.409 171.032 74.4681 171.052C74.5273 171.072 74.5898 171.08 74.652 171.076C74.7143 171.071 74.775 171.054 74.8306 171.026C74.8862 170.997 74.9356 170.958 74.9758 170.911C75.4766 170.343 76.1117 169.909 76.8231 169.65C77.5346 169.391 78.2996 169.314 79.0484 169.426C79.7972 169.539 80.5059 169.837 81.1096 170.294C81.7133 170.751 82.1929 171.352 82.5046 172.042C82.8162 172.733 82.9499 173.49 82.8934 174.245C82.837 175 82.5922 175.729 82.1815 176.365C81.7708 177.001 81.2072 177.524 80.5422 177.886C79.8772 178.249 79.1321 178.438 78.3749 178.438Z" fill="black"/>
<path d="M83.9363 166.41C83.9052 166.356 83.8638 166.309 83.8144 166.271C83.765 166.233 83.7086 166.205 83.6484 166.189C83.5883 166.173 83.5255 166.169 83.4638 166.177C83.402 166.185 83.3425 166.206 83.2886 166.237L81.4011 167.327C81.3457 167.357 81.2968 167.398 81.2575 167.447C81.2182 167.497 81.1891 167.554 81.1721 167.615C81.155 167.675 81.1503 167.739 81.1582 167.802C81.166 167.864 81.1863 167.925 81.2179 167.98C81.2495 168.034 81.2917 168.082 81.342 168.12C81.3923 168.159 81.4498 168.186 81.511 168.202C81.5722 168.218 81.6359 168.221 81.6984 168.212C81.7609 168.202 81.8209 168.181 81.8749 168.148L83.7624 167.058C83.8713 166.995 83.9509 166.892 83.9835 166.77C84.0161 166.649 83.9992 166.519 83.9363 166.41Z" fill="black"/>
<path d="M78.1726 164.92C78.2266 164.951 78.2861 164.971 78.3478 164.979C78.4096 164.987 78.4723 164.983 78.5325 164.967C78.5926 164.951 78.649 164.923 78.6984 164.885C78.7478 164.847 78.7893 164.8 78.8204 164.746L79.9103 162.859C79.972 162.75 79.9883 162.621 79.9554 162.5C79.9226 162.38 79.8434 162.277 79.735 162.214C79.6266 162.151 79.4979 162.134 79.3769 162.166C79.2559 162.198 79.1524 162.277 79.089 162.384L77.9991 164.272C77.9363 164.381 77.9192 164.51 77.9518 164.632C77.9843 164.753 78.0638 164.857 78.1726 164.92Z" fill="black"/>
<path d="M73.9999 163.802C74.1257 163.802 74.2463 163.752 74.3352 163.663C74.4241 163.574 74.4741 163.453 74.4741 163.327V161.148C74.4749 161.085 74.4631 161.023 74.4396 160.965C74.4161 160.906 74.3813 160.853 74.3372 160.809C74.2931 160.764 74.2406 160.729 74.1827 160.705C74.1248 160.68 74.0627 160.668 73.9999 160.668C73.9372 160.668 73.8751 160.68 73.8172 160.705C73.7593 160.729 73.7068 160.764 73.6627 160.809C73.6186 160.853 73.5837 160.906 73.5602 160.965C73.5367 161.023 73.525 161.085 73.5257 161.148V163.327C73.5257 163.453 73.5757 163.574 73.6646 163.663C73.7535 163.752 73.8741 163.802 73.9999 163.802Z" fill="black"/>
<path d="M69.1795 164.746C69.2429 164.854 69.3463 164.932 69.4673 164.964C69.5883 164.996 69.7171 164.979 69.8254 164.917C69.9338 164.854 70.0131 164.751 70.0459 164.63C70.0787 164.51 70.0625 164.381 70.0007 164.272L68.9108 162.384C68.88 162.33 68.8386 162.282 68.7892 162.244C68.7397 162.205 68.6832 162.177 68.6228 162.161C68.5625 162.144 68.4994 162.14 68.4374 162.148C68.3753 162.156 68.3155 162.176 68.2613 162.208C68.2071 162.239 68.1597 162.281 68.1217 162.33C68.0837 162.38 68.0559 162.437 68.0399 162.497C68.024 162.558 68.0201 162.621 68.0287 162.683C68.0372 162.745 68.0579 162.805 68.0896 162.859L69.1795 164.746Z" fill="black"/>
<path d="M66.599 167.327L64.7115 166.237C64.6575 166.205 64.5978 166.184 64.5358 166.176C64.4738 166.167 64.4108 166.171 64.3503 166.187C64.2898 166.203 64.233 166.231 64.1833 166.269C64.1336 166.307 64.0919 166.354 64.0606 166.408C64.0293 166.463 64.0091 166.522 64.001 166.585C63.993 166.647 63.9973 166.71 64.0137 166.77C64.0301 166.83 64.0583 166.887 64.0967 166.936C64.135 166.986 64.1828 167.027 64.2372 167.058L66.1249 168.148C66.1788 168.18 66.2385 168.2 66.3005 168.209C66.3625 168.217 66.4256 168.213 66.4861 168.198C66.5466 168.182 66.6033 168.154 66.653 168.116C66.7027 168.078 66.7444 168.03 66.7757 167.976C66.807 167.922 66.8273 167.862 66.8353 167.8C66.8434 167.738 66.8391 167.675 66.8227 167.615C66.8063 167.554 66.7781 167.498 66.7397 167.448C66.7013 167.399 66.6534 167.357 66.599 167.327Z" fill="black"/>
</g>
<line x1="50" y1="146" x2="50" y2="194" stroke="#8D8D8D" stroke-width="4"/>
</g>
<rect x="48.5" y="146.5" width="983" height="247" stroke="#8D8D8D"/>
<rect x="397" y="211" width="286" height="166" fill="white"/>
<rect x="397" y="211" width="286" height="166" fill="#EDF5FF"/>
<g clip-path="url(#clip2_1111_49806)">
<text fill="black" xml:space="preserve" style="white-space: pre" font-family="IBM Plex Sans" font-size="14" font-weight="600" letter-spacing="0.16px"><tspan x="460" y="230.25">IBM Cloud Object Storage&#10;</tspan></text>
<text fill="black" xml:space="preserve" style="white-space: pre" font-family="IBM Plex Sans" font-size="14" letter-spacing="0.16px"><tspan x="460" y="248.25">Instance</tspan></text>
<rect width="48" height="48" transform="translate(396 210)" fill="#0F62FE"/>
<rect width="20" height="20" transform="translate(410 224)" fill="white" style="mix-blend-mode:multiply"/>
<path d="M427.5 236.5H426.25V237.75H427.5V241.5H412.5V237.75H418.75V236.5H412.5C412.169 236.5 411.851 236.632 411.617 236.867C411.382 237.101 411.25 237.419 411.25 237.75V241.5C411.25 241.831 411.382 242.149 411.617 242.383C411.851 242.618 412.169 242.75 412.5 242.75H427.5C427.831 242.75 428.149 242.618 428.383 242.383C428.618 242.149 428.75 241.831 428.75 241.5V237.75C428.75 237.419 428.618 237.101 428.383 236.867C428.149 236.632 427.831 236.5 427.5 236.5Z" fill="white"/>
<path d="M414.375 240.25C414.72 240.25 415 239.97 415 239.625C415 239.28 414.72 239 414.375 239C414.03 239 413.75 239.28 413.75 239.625C413.75 239.97 414.03 240.25 414.375 240.25Z" fill="white"/>
<path d="M428.75 229H423.75V232.75H420V237.75H425V234H428.75V229ZM423.75 236.5H421.25V234H423.75V236.5ZM427.5 232.75H425V230.25H427.5V232.75Z" fill="white"/>
<path d="M421.25 230.25H416.25V225.25H421.25V230.25ZM417.5 229H420V226.5H417.5V229Z" fill="white"/>
</g>
<rect x="396.5" y="210.5" width="287" height="167" stroke="#0F62FE"/>
<rect width="48" height="92" transform="translate(516 270)" fill="white" style="mix-blend-mode:multiply"/>
<rect width="48" height="48" transform="translate(516 270)" fill="#0F62FE"/>
<rect width="20" height="20" transform="translate(530 284)" fill="white" style="mix-blend-mode:multiply"/>
<path d="M547.5 287.75H539.375V289H547.5V287.75Z" fill="white"/>
<path d="M547.5 299H539.375V300.25H547.5V299Z" fill="white"/>
<path d="M540.625 293.375H532.5V294.625H540.625V293.375Z" fill="white"/>
<path d="M534.375 290.875C533.881 290.875 533.397 290.728 532.986 290.454C532.575 290.179 532.255 289.789 532.065 289.332C531.876 288.875 531.827 288.372 531.923 287.887C532.02 287.402 532.258 286.957 532.607 286.607C532.957 286.258 533.402 286.02 533.887 285.923C534.372 285.827 534.875 285.876 535.332 286.065C535.789 286.255 536.179 286.575 536.454 286.986C536.728 287.397 536.875 287.881 536.875 288.375C536.875 289.038 536.612 289.674 536.143 290.143C535.674 290.612 535.038 290.875 534.375 290.875ZM534.375 287.125C534.128 287.125 533.886 287.198 533.681 287.336C533.475 287.473 533.315 287.668 533.22 287.897C533.126 288.125 533.101 288.376 533.149 288.619C533.197 288.861 533.316 289.084 533.491 289.259C533.666 289.434 533.889 289.553 534.131 289.601C534.374 289.649 534.625 289.624 534.853 289.53C535.082 289.435 535.277 289.275 535.414 289.069C535.552 288.864 535.625 288.622 535.625 288.375C535.625 288.043 535.493 287.726 535.259 287.491C535.024 287.257 534.707 287.125 534.375 287.125Z" fill="white"/>
<path d="M534.375 302.125C533.881 302.125 533.397 301.978 532.986 301.704C532.575 301.429 532.255 301.039 532.065 300.582C531.876 300.125 531.827 299.622 531.923 299.137C532.02 298.652 532.258 298.207 532.607 297.857C532.957 297.508 533.402 297.27 533.887 297.173C534.372 297.077 534.875 297.126 535.332 297.315C535.789 297.505 536.179 297.825 536.454 298.236C536.728 298.647 536.875 299.131 536.875 299.625C536.875 300.288 536.612 300.924 536.143 301.393C535.674 301.862 535.038 302.125 534.375 302.125ZM534.375 298.375C534.128 298.375 533.886 298.448 533.681 298.586C533.475 298.723 533.315 298.918 533.22 299.147C533.126 299.375 533.101 299.626 533.149 299.869C533.197 300.111 533.316 300.334 533.491 300.509C533.666 300.684 533.889 300.803 534.131 300.851C534.374 300.899 534.625 300.874 534.853 300.78C535.082 300.685 535.277 300.525 535.414 300.319C535.552 300.114 535.625 299.872 535.625 299.625C535.625 299.293 535.493 298.976 535.259 298.741C535.024 298.507 534.707 298.375 534.375 298.375Z" fill="white"/>
<path d="M545.625 296.5C545.131 296.5 544.647 296.353 544.236 296.079C543.825 295.804 543.505 295.414 543.315 294.957C543.126 294.5 543.077 293.997 543.173 293.512C543.27 293.027 543.508 292.582 543.857 292.232C544.207 291.883 544.652 291.645 545.137 291.548C545.622 291.452 546.125 291.501 546.582 291.69C547.039 291.88 547.429 292.2 547.704 292.611C547.978 293.022 548.125 293.506 548.125 294C548.125 294.663 547.862 295.299 547.393 295.768C546.924 296.237 546.288 296.5 545.625 296.5ZM545.625 292.75C545.378 292.75 545.136 292.823 544.931 292.961C544.725 293.098 544.565 293.293 544.47 293.522C544.376 293.75 544.351 294.001 544.399 294.244C544.447 294.486 544.566 294.709 544.741 294.884C544.916 295.059 545.139 295.178 545.381 295.226C545.624 295.274 545.875 295.249 546.103 295.155C546.332 295.06 546.527 294.9 546.664 294.694C546.802 294.489 546.875 294.247 546.875 294C546.875 293.668 546.743 293.351 546.509 293.116C546.274 292.882 545.957 292.75 545.625 292.75Z" fill="white"/>
<text fill="black" xml:space="preserve" style="white-space: pre" font-family="IBM Plex Sans" font-size="14" font-weight="600" letter-spacing="0.16px"><tspan x="516.973" y="340.25">Bucket</tspan></text>
<text fill="black" xml:space="preserve" style="white-space: pre" font-family="IBM Plex Sans" font-size="14" letter-spacing="0.16px"><tspan x="517.645" y="358.25">json.gz</tspan></text>
<rect width="192" height="92" transform="translate(824 270)" fill="white" style="mix-blend-mode:multiply"/>
<rect width="48" height="48" transform="translate(896 270)" fill="#0F62FE"/>
<rect width="20" height="20" transform="translate(910 284)" fill="white" style="mix-blend-mode:multiply"/>
<path d="M925 297.125V289.625H923.75V298.375H928.75V297.125H925Z" fill="white"/>
<path d="M921.25 289.625H918.75C918.418 289.625 918.101 289.757 917.866 289.991C917.632 290.226 917.5 290.543 917.5 290.875V297.125C917.5 297.457 917.632 297.774 917.866 298.009C918.101 298.243 918.418 298.375 918.75 298.375H919.375V299.625C919.375 299.957 919.507 300.274 919.741 300.509C919.976 300.743 920.293 300.875 920.625 300.875H921.875V299.625H920.625V298.375H921.25C921.582 298.375 921.899 298.243 922.134 298.009C922.368 297.774 922.5 297.457 922.5 297.125V290.875C922.5 290.543 922.368 290.226 922.134 289.991C921.899 289.757 921.582 289.625 921.25 289.625ZM918.75 297.125V290.875H921.25V297.125H918.75Z" fill="white"/>
<path d="M915 298.375H911.25V297.125H915V294.625H912.5C912.168 294.625 911.851 294.493 911.616 294.259C911.382 294.024 911.25 293.707 911.25 293.375V290.875C911.25 290.543 911.382 290.226 911.616 289.991C911.851 289.757 912.168 289.625 912.5 289.625H916.25V290.875H912.5V293.375H915C915.332 293.375 915.649 293.507 915.884 293.741C916.118 293.976 916.25 294.293 916.25 294.625V297.125C916.25 297.457 916.118 297.774 915.884 298.009C915.649 298.243 915.332 298.375 915 298.375Z" fill="white"/>
<text fill="black" xml:space="preserve" style="white-space: pre" font-family="IBM Plex Sans" font-size="14" font-weight="600" letter-spacing="0.16px"><tspan x="843.998" y="340.25">IBM Cloud Data Engine</tspan></text>
<text fill="black" xml:space="preserve" style="white-space: pre" font-family="IBM Plex Sans" font-size="14" letter-spacing="0.16px"><tspan x="891.802" y="358.25">Instance</tspan></text>
<rect width="332" height="12" transform="translate(184 288)" fill="white" style="mix-blend-mode:multiply"/>
<path d="M184 294H508" stroke="black"/>
<path d="M508 290L516 294L508 298L508 290Z" fill="black"/>
<rect width="332" height="12" transform="translate(564 288)" fill="white" style="mix-blend-mode:multiply"/>
<path d="M572 290L564 294L572 298L572 290Z" fill="black"/>
<path d="M572 294H896" stroke="black"/>
<rect x="238.5" y="286.5" width="103" height="15" rx="7.5" fill="white"/>
<text fill="black" xml:space="preserve" style="white-space: pre" font-family="IBM Plex Sans" font-size="12" letter-spacing="0.32px"><tspan x="246" y="297.5">Auditing events</tspan></text>
<rect x="238.5" y="286.5" width="103" height="15" rx="7.5" stroke="black"/>
<rect x="765.5" y="286.5" width="49" height="15" rx="7.5" fill="white"/>
<text fill="black" xml:space="preserve" style="white-space: pre" font-family="IBM Plex Sans" font-size="12" letter-spacing="0.32px"><tspan x="773" y="297.5">Query</tspan></text>
<rect x="765.5" y="286.5" width="49" height="15" rx="7.5" stroke="black"/>
<rect width="192" height="95" transform="translate(64 267)" fill="white" style="mix-blend-mode:multiply"/>
<rect width="48" height="48" transform="translate(136 267)" fill="#24A148"/>
<rect width="20" height="20" transform="translate(150 281)" fill="white" style="mix-blend-mode:multiply"/>
<path d="M164.119 293.131L166.356 295.375H162.219L159.488 291L162.219 286.625H166.356L164.119 288.869L165 289.75L168.75 286L165 282.25L164.119 283.131L166.356 285.375H162.219C162.007 285.376 161.8 285.43 161.615 285.533C161.43 285.635 161.275 285.783 161.163 285.963L158.75 289.819L156.338 285.963C156.225 285.783 156.07 285.635 155.885 285.533C155.7 285.43 155.493 285.376 155.281 285.375H151.25V286.625H155.281L158.012 291L155.281 295.375H151.25V296.625H155.281C155.493 296.624 155.7 296.57 155.885 296.467C156.07 296.365 156.225 296.217 156.338 296.037L158.75 292.181L161.163 296.037C161.275 296.217 161.43 296.365 161.615 296.467C161.8 296.57 162.007 296.624 162.219 296.625H166.356L164.119 298.869L165 299.75L168.75 296L165 292.25L164.119 293.131Z" fill="white"/>
<text fill="black" xml:space="preserve" style="white-space: pre" font-family="IBM Plex Sans" font-size="14" font-weight="600" letter-spacing="0.16px"><tspan x="71.7667" y="337.25">IBM Cloud Activity Tracker </tspan><tspan x="113.848" y="355.25">Event Routing&#10;</tspan></text>
<defs>
<clipPath id="clip0_1111_49806">
<rect width="984" height="48" fill="white" transform="translate(48 146)"/>
</clipPath>
<clipPath id="clip1_1111_49806">
<rect width="20" height="20" fill="white" transform="translate(64 160)"/>
</clipPath>
<clipPath id="clip2_1111_49806">
<rect width="288" height="48" fill="white" transform="translate(396 210)"/>
</clipPath>
</defs>
</svg>
