<?xml version="1.0" encoding="utf-8"?><svg xmlns="http://www.w3.org/2000/svg" width="320" height="200" viewBox="0 0 403 258.74"><defs><style>.cls-1{fill:#f4f4f4;}.cls-2{fill:#5a6872;fill-rule:evenodd;}.cls-3{font-size:18px;font-family:IBMPlexSans-Bold, IBM Plex Sans;font-weight:700;}.cls-4{letter-spacing:0em;}.cls-5{letter-spacing:0em;}.cls-6{letter-spacing:-0.01em;}.cls-7{letter-spacing:0em;}.cls-8{letter-spacing:0.01em;}.cls-9{font-family:IBMPlexSans, IBM Plex Sans;font-weight:400;}.cls-10{letter-spacing:0.01em;}</style></defs><g id="Layer_1" data-name="Layer 1"><rect class="cls-1" width="403" height="251"/><g id="checkmark-icon"><polygon id="Path" class="cls-2" points="66.18 32 72.05 38.76 47.34 67.25 33 50.72 38.87 43.96 47.34 53.73 66.18 32"/></g><text class="cls-3" transform="translate(42.81 108.09)"><tspan class="cls-4">S</tspan><tspan class="cls-5" x="11.14" y="0">t</tspan><tspan x="17.96" y="0">ep 3. C</tspan><tspan class="cls-4" x="75.62" y="0">r</tspan><tspan x="82.8" y="0">e</tspan><tspan class="cls-6" x="92.92" y="0">a</tspan><tspan class="cls-7" x="103.05" y="0">t</tspan><tspan x="109.87" y="0">e a se</tspan><tspan class="cls-8" x="157.91" y="0">r</tspan><tspan x="165.31" y="0">vi</tspan><tspan class="cls-4" x="180.14" y="0">c</tspan><tspan x="189.36" y="0">e ID</tspan><tspan class="cls-9"><tspan x="0" y="43.2">C</tspan><tspan class="cls-4" x="11.18" y="43.2">r</tspan><tspan x="17.69" y="43.2">ea</tspan><tspan class="cls-5" x="37.19" y="43.2">t</tspan><tspan x="43.43" y="43.2">e a se</tspan><tspan class="cls-10" x="90.07" y="43.2">r</tspan><tspan x="96.86" y="43.2">vi</tspan><tspan class="cls-6" x="110.21" y="43.2">c</tspan><tspan x="119.16" y="43.2">e ID</tspan></tspan></text></g></svg>