<?xml version="1.0" encoding="utf-8"?><svg id="Layer_1" data-name="Layer 1" xmlns="http://www.w3.org/2000/svg" width="320" height="200" viewBox="0 0 403 258.74"><defs><style>.cls-1{fill:#f4f4f4;}.cls-2{fill:#5a6872;fill-rule:evenodd;}.cls-3{font-size:18px;font-family:IBMPlexSans-Bold, IBM Plex Sans;font-weight:700;}.cls-4{letter-spacing:-0.01em;}.cls-5{letter-spacing:0em;}.cls-6{letter-spacing:-0.01em;}.cls-7{letter-spacing:-0.01em;}.cls-8{letter-spacing:-0.01em;}.cls-9{letter-spacing:0em;}.cls-10{letter-spacing:-0.01em;}.cls-11{letter-spacing:-0.01em;}.cls-12{font-family:IBMPlexSans, IBM Plex Sans;font-weight:400;}.cls-13{letter-spacing:-0.05em;}.cls-14{letter-spacing:-0.01em;}.cls-15{letter-spacing:-0.01em;}.cls-16{letter-spacing:0em;}.cls-17{letter-spacing:-0.01em;}</style></defs><rect class="cls-1" width="403" height="251"/><g id="checkmark-icon"><polygon id="Path" class="cls-2" points="66.18 32 72.05 38.76 47.34 67.25 33 50.72 38.87 43.96 47.34 53.73 66.18 32"/></g><text class="cls-3" transform="translate(42.81 108.09)"><tspan class="cls-4">P</tspan><tspan class="cls-5" x="11.63" y="0">r</tspan><tspan x="18.81" y="0">e</tspan><tspan class="cls-5" x="28.93" y="0">r</tspan><tspan x="36.11" y="0">eq 2. Check </tspan><tspan class="cls-6" x="138.54" y="0">y</tspan><tspan x="148.01" y="0">ou h</tspan><tspan class="cls-4" x="183.87" y="0">a</tspan><tspan class="cls-7" x="193.93" y="0">v</tspan><tspan x="203.47" y="0">e a</tspan><tspan class="cls-5" x="228.08" y="0">cc</tspan><tspan x="246.51" y="0">e</tspan><tspan class="cls-8" x="256.62" y="0">s</tspan><tspan x="265.57" y="0">s </tspan><tspan class="cls-9" x="278.89" y="0">t</tspan><tspan x="285.71" y="0">o </tspan><tspan x="0" y="21.6">pri</tspan><tspan class="cls-10" x="23.36" y="21.6">v</tspan><tspan class="cls-11" x="32.89" y="21.6">a</tspan><tspan class="cls-9" x="43.02" y="21.6">t</tspan><tspan x="49.84" y="21.6">e endpoints</tspan><tspan class="cls-12"><tspan class="cls-13" x="0" y="64.8">Y</tspan><tspan x="9.77" y="64.8">ou mu</tspan><tspan class="cls-14" x="60.26" y="64.8">s</tspan><tspan x="68.9" y="64.8">t h</tspan><tspan class="cls-6" x="89.69" y="64.8">av</tspan><tspan x="107.87" y="64.8">e a</tspan><tspan class="cls-11" x="131.62" y="64.8">cc</tspan><tspan x="149.51" y="64.8">e</tspan><tspan class="cls-15" x="159.39" y="64.8">s</tspan><tspan x="168.05" y="64.8">s </tspan><tspan class="cls-16" x="181.06" y="64.8">t</tspan><tspan x="187.31" y="64.8">o the pri</tspan><tspan class="cls-17" x="253.85" y="64.8">v</tspan><tspan x="262.55" y="64.8">a</tspan><tspan class="cls-9" x="272.16" y="64.8">t</tspan><tspan x="278.4" y="64.8">e </tspan><tspan x="0" y="86.4">endpoint</tspan><tspan class="cls-5" x="72.11" y="86.4">s</tspan><tspan x="80.78" y="86.4">.</tspan></tspan></text></svg>