<?xml version="1.0" encoding="utf-8"?><svg xmlns="http://www.w3.org/2000/svg" width="320" height="200" viewBox="0 0 403 258.74"><defs><style>.cls-1{fill:#f4f4f4;}.cls-2{fill:#5a6872;fill-rule:evenodd;}.cls-3{font-size:18px;font-family:IBMPlexSans-Bold, IBM Plex Sans;font-weight:700;}.cls-4{letter-spacing:-0.01em;}.cls-5{letter-spacing:0em;}.cls-6{letter-spacing:-0.01em;}.cls-7{font-family:IBMPlexSans, IBM Plex Sans;font-weight:400;}.cls-8{letter-spacing:-0.05em;}.cls-9{letter-spacing:-0.01em;}.cls-10{letter-spacing:-0.01em;}.cls-11{letter-spacing:0em;}.cls-12{letter-spacing:0em;}.cls-13{letter-spacing:0em;}.cls-14{letter-spacing:0em;}.cls-15{letter-spacing:-0.01em;}.cls-16{letter-spacing:0.02em;}.cls-17{letter-spacing:0.02em;}</style></defs><g id="Layer_1" data-name="Layer 1"><rect class="cls-1" width="403" height="251"/><g id="checkmark-icon"><polygon id="Path" class="cls-2" points="66.18 32 72.05 38.76 47.34 67.25 33 50.72 38.87 43.96 47.34 53.73 66.18 32"/></g><text class="cls-3" transform="translate(42.81 108.09)"><tspan class="cls-4">P</tspan><tspan class="cls-5" x="11.63" y="0">r</tspan><tspan x="18.81" y="0">e</tspan><tspan class="cls-5" x="28.93" y="0">r</tspan><tspan x="36.11" y="0">eq 1. Check </tspan><tspan class="cls-6" x="138.54" y="0">y</tspan><tspan x="148.01" y="0">our a</tspan><tspan class="cls-5" x="190.65" y="0">cc</tspan><tspan x="209.09" y="0">ount is VRF </tspan><tspan x="0" y="21.6">enabled</tspan><tspan class="cls-7"><tspan class="cls-8" x="0" y="64.8">Y</tspan><tspan x="9.77" y="64.8">our a</tspan><tspan class="cls-9" x="50.54" y="64.8">cc</tspan><tspan x="68.44" y="64.8">ount mu</tspan><tspan class="cls-10" x="135.47" y="64.8">s</tspan><tspan class="cls-11" x="144.11" y="64.8">t be vi</tspan><tspan class="cls-12" x="192.6" y="64.8">r</tspan><tspan x="199.27" y="64.8">tual </tspan><tspan class="cls-5" x="234.57" y="64.8">r</tspan><tspan x="241.09" y="64.8">outing </tspan><tspan x="0" y="86.4">and </tspan><tspan class="cls-13" x="34.52" y="86.4">f</tspan><tspan x="40.28" y="86.4">o</tspan><tspan class="cls-14" x="50.36" y="86.4">r</tspan><tspan class="cls-15" x="57.06" y="86.4">w</tspan><tspan x="70.72" y="86.4">a</tspan><tspan class="cls-9" x="80.33" y="86.4">r</tspan><tspan x="86.83" y="86.4">ding </tspan><tspan class="cls-16" x="125.75" y="86.4">(</tspan><tspan x="132.14" y="86.4">VR</tspan><tspan class="cls-17" x="154.62" y="86.4">F</tspan><tspan x="164.95" y="86.4">) enabled.</tspan></tspan></text></g></svg>