<?xml version="1.0" encoding="utf-8"?><svg xmlns="http://www.w3.org/2000/svg" width="320" height="200" viewBox="0 0 463.81 257.57"><defs><style>.cls-1{fill:#f4f4f4;}.cls-2{fill:#5a6872;fill-rule:evenodd;}.cls-3{font-size:18px;font-family:IBMPlexSans-Bold, IBM Plex Sans;font-weight:700;}.cls-4{letter-spacing:0em;}.cls-5{letter-spacing:-0.01em;}.cls-6{letter-spacing:0em;}.cls-7{letter-spacing:0em;}.cls-8{letter-spacing:-0.05em;}.cls-9{letter-spacing:-0.01em;}.cls-10{letter-spacing:-0.03em;}.cls-11{letter-spacing:-0.01em;}.cls-12{letter-spacing:-0.01em;}.cls-13{letter-spacing:-0.01em;}.cls-14{letter-spacing:0em;}.cls-15{letter-spacing:0em;}.cls-16{letter-spacing:-0.01em;}.cls-17{letter-spacing:0em;}.cls-18{letter-spacing:0em;}.cls-19{font-family:IBMPlexSans, IBM Plex Sans;font-weight:400;}.cls-20{letter-spacing:-0.02em;}</style></defs><g id="Layer_1" data-name="Layer 1"><rect class="cls-1" width="403" height="251"/><g id="checkmark-icon"><polygon id="Path" class="cls-2" points="66.18 32 72.05 38.76 47.34 67.25 33 50.72 38.87 43.96 47.34 53.73 66.18 32"/></g><text x="0.52" y="1"/><text class="cls-3" transform="translate(42.68 106.92)">Ge<tspan class="cls-4" x="23.06" y="0">t</tspan><tspan x="29.86" y="0">ting </tspan><tspan class="cls-5" x="66.82" y="0">s</tspan><tspan x="75.74" y="0">ta</tspan><tspan class="cls-6" x="92.88" y="0">r</tspan><tspan class="cls-7" x="100.22" y="0">t</tspan><tspan x="107.04" y="0">ed with IBM Cloud </tspan><tspan x="0" y="21.6">Activity </tspan><tspan class="cls-8" x="69.26" y="21.6">T</tspan><tspan class="cls-9" x="78.97" y="21.6">r</tspan><tspan x="85.99" y="21.6">ac</tspan><tspan class="cls-10" x="105.53" y="21.6">k</tspan><tspan x="115.43" y="21.6">er ho</tspan><tspan class="cls-11" x="157.95" y="21.6">s</tspan><tspan class="cls-7" x="166.88" y="21.6">t</tspan><tspan x="173.7" y="21.6">ed </tspan><tspan class="cls-12" x="199.01" y="21.6">e</tspan><tspan class="cls-13" x="208.94" y="21.6">v</tspan><tspan class="cls-14" x="218.48" y="21.6">ent sea</tspan><tspan class="cls-15" x="279.9" y="21.6">r</tspan><tspan x="287.08" y="21.6">ch </tspan><tspan class="cls-16" x="0" y="43.2">o</tspan><tspan class="cls-17" x="10.04" y="43.2">f</tspan><tspan class="cls-18" x="16.61" y="43.2">f</tspan><tspan x="23.04" y="43.2">erings</tspan><tspan class="cls-19"><tspan class="cls-12" x="0" y="86.4">L</tspan><tspan x="8.84" y="86.4">earn h</tspan><tspan class="cls-4" x="59.63" y="86.4">o</tspan><tspan x="69.62" y="86.4">w </tspan><tspan class="cls-7" x="87.7" y="86.4">t</tspan><tspan x="93.94" y="86.4">o use IBM Cloud Activity </tspan><tspan class="cls-8" x="0" y="108">T</tspan><tspan class="cls-18" x="9.49" y="108">r</tspan><tspan x="16.02" y="108">ac</tspan><tspan class="cls-20" x="34.69" y="108">k</tspan><tspan x="43.87" y="108">er </tspan><tspan class="cls-18" x="64.6" y="108">t</tspan><tspan x="70.85" y="108">o moni</tspan><tspan class="cls-7" x="125.69" y="108">t</tspan><tspan x="131.94" y="108">or the activity in </tspan><tspan class="cls-4" x="264.9" y="108">y</tspan><tspan x="273.8" y="108">our </tspan><tspan x="0" y="129.6">IBM Cloud a</tspan><tspan class="cls-16" x="98.49" y="129.6">cc</tspan><tspan x="116.39" y="129.6">ount.</tspan></tspan></text></g></svg>