<?xml version="1.0" encoding="utf-8"?><svg xmlns="http://www.w3.org/2000/svg" width="320" height="200" viewBox="0 0 403 251"><defs><style>.cls-1{fill:#f4f4f4;}.cls-2{fill:#5a6872;fill-rule:evenodd;}</style></defs><g id="Layer_1" data-name="Layer 1"><rect class="cls-1" width="403" height="251"/><g id="checkmark-icon"><polygon id="Path" class="cls-2" points="66.18 32 72.05 38.76 47.34 67.25 33 50.72 38.87 43.96 47.34 53.73 66.18 32"/></g><path d="M47.26,82.3a6.12,6.12,0,0,1-4.77-2l1.8-1.82a4.08,4.08,0,0,0,3.15,1.42,2.26,2.26,0,0,0,1.5-.41,1.35,1.35,0,0,0,.48-1.09,1.31,1.31,0,0,0-.28-.86A1.88,1.88,0,0,0,48,77l-1.25-.16a4.79,4.79,0,0,1-2.92-1.21,3.5,3.5,0,0,1-.93-2.54,3.59,3.59,0,0,1,.33-1.55,3.39,3.39,0,0,1,.92-1.21,4.17,4.17,0,0,1,1.48-.78,6.38,6.38,0,0,1,2-.28,6.45,6.45,0,0,1,2.5.45,5.08,5.08,0,0,1,1.85,1.31l-1.81,1.84A3.78,3.78,0,0,0,49,72.07a3.52,3.52,0,0,0-1.61-.33,2.31,2.31,0,0,0-1.37.32,1,1,0,0,0-.45.89,1.12,1.12,0,0,0,.35.92,2.37,2.37,0,0,0,1.14.41l1.24.2a5.35,5.35,0,0,1,2.88,1.2,3.32,3.32,0,0,1,.94,2.53,4.27,4.27,0,0,1-.32,1.66,3.59,3.59,0,0,1-1,1.3,4.38,4.38,0,0,1-1.54.84A7,7,0,0,1,47.26,82.3Z" transform="translate(1 26)"/><path d="M57.51,82.09a2.85,2.85,0,0,1-2.1-.71,2.76,2.76,0,0,1-.71-2V74.71H53.37V72.64H54a.89.89,0,0,0,.74-.26,1.26,1.26,0,0,0,.2-.75V70.08h2.39v2.56h1.87v2.07H57.36V80h1.73v2.07Z" transform="translate(1 26)"/><path d="M65,82.3A4.92,4.92,0,0,1,63,82a3.91,3.91,0,0,1-1.43-1,4.1,4.1,0,0,1-.88-1.56,6.54,6.54,0,0,1-.3-2.05,6.7,6.7,0,0,1,.29-2,4.22,4.22,0,0,1,.86-1.56,3.82,3.82,0,0,1,1.39-1,4.86,4.86,0,0,1,1.89-.35,4.59,4.59,0,0,1,2,.4,3.72,3.72,0,0,1,1.37,1.06A4.29,4.29,0,0,1,69,75.42a6.83,6.83,0,0,1,.24,1.82V78H63.18v.14a1.84,1.84,0,0,0,2.08,2,2.45,2.45,0,0,0,1.35-.33,5.28,5.28,0,0,0,1-.8l1.33,1.66a4.17,4.17,0,0,1-1.65,1.16A6.22,6.22,0,0,1,65,82.3Zm-.06-7.92a1.57,1.57,0,0,0-1.26.53,2.09,2.09,0,0,0-.46,1.42v.14h3.31v-.16a2.32,2.32,0,0,0-.39-1.4A1.4,1.4,0,0,0,64.9,74.38Z" transform="translate(1 26)"/><path d="M71.13,72.64H73.8v1.58h.09a2.22,2.22,0,0,1,.9-1.3,2.81,2.81,0,0,1,1.63-.5,3.15,3.15,0,0,1,2.72,1.26,6.19,6.19,0,0,1,.92,3.67A6.22,6.22,0,0,1,79.14,81a3.13,3.13,0,0,1-2.72,1.27,2.84,2.84,0,0,1-.88-.13,2.94,2.94,0,0,1-.75-.38,2.49,2.49,0,0,1-.9-1.29H73.8v5.19H71.13Zm4.41,7.5a1.6,1.6,0,0,0,1.25-.53,2,2,0,0,0,.5-1.43V76.54a2,2,0,0,0-.5-1.43,1.64,1.64,0,0,0-1.25-.53,2,2,0,0,0-1.25.37,1.19,1.19,0,0,0-.49,1v2.79a1.18,1.18,0,0,0,.49,1A2,2,0,0,0,75.54,80.14Z" transform="translate(1 26)"/><path d="M95,82.09H86.11V79.62L90,76.31c.35-.3.64-.57.88-.82a5,5,0,0,0,.58-.72,2.88,2.88,0,0,0,.33-.69,2.94,2.94,0,0,0,.1-.74v-.25a1.28,1.28,0,0,0-.15-.63,1.36,1.36,0,0,0-.37-.45,1.71,1.71,0,0,0-.54-.27,2,2,0,0,0-.6-.09,1.87,1.87,0,0,0-.78.14,2.11,2.11,0,0,0-.58.39,2.28,2.28,0,0,0-.4.56,3,3,0,0,0-.25.67l-2.36-.9a5.35,5.35,0,0,1,.59-1.23,4.21,4.21,0,0,1,.95-1,4.34,4.34,0,0,1,1.34-.69,5.54,5.54,0,0,1,1.74-.25,5.35,5.35,0,0,1,1.82.28,4,4,0,0,1,1.34.8,3.23,3.23,0,0,1,.84,1.19,4,4,0,0,1,.29,1.51,3.85,3.85,0,0,1-.27,1.47,4.93,4.93,0,0,1-.73,1.25,8,8,0,0,1-1.07,1.11c-.41.35-.84.7-1.28,1.06l-2.34,1.84H95Z" transform="translate(1 26)"/><path d="M98.67,82.28a1.6,1.6,0,0,1-1.2-.4,1.48,1.48,0,0,1-.38-1v-.36a1.45,1.45,0,0,1,.38-1,2,2,0,0,1,2.4,0,1.42,1.42,0,0,1,.39,1v.36a1.44,1.44,0,0,1-.39,1A1.6,1.6,0,0,1,98.67,82.28Z" transform="translate(1 26)"/><path d="M112.17,82.3a6.2,6.2,0,0,1-2.3-.4,4.48,4.48,0,0,1-1.75-1.21,5.44,5.44,0,0,1-1.11-2,8.71,8.71,0,0,1-.4-2.8,9,9,0,0,1,.4-2.81A5.86,5.86,0,0,1,108.12,71a4.62,4.62,0,0,1,1.75-1.27,5.82,5.82,0,0,1,2.3-.43,5.26,5.26,0,0,1,2.88.71,4.88,4.88,0,0,1,1.82,2.24l-2.36,1.22a2.86,2.86,0,0,0-.78-1.27,2.29,2.29,0,0,0-1.56-.47,2.51,2.51,0,0,0-1.93.78,3.2,3.2,0,0,0-.73,2.28v2a3.2,3.2,0,0,0,.73,2.28,2.51,2.51,0,0,0,1.93.78,2.28,2.28,0,0,0,1.61-.55,3.16,3.16,0,0,0,.89-1.32l2.24,1.3a5.6,5.6,0,0,1-1.85,2.22A5,5,0,0,1,112.17,82.3Z" transform="translate(1 26)"/><path d="M118.67,68.77h2.66v5.47h.11a2.93,2.93,0,0,1,.88-1.28,2.62,2.62,0,0,1,1.75-.54,2.59,2.59,0,0,1,2.2,1,4.45,4.45,0,0,1,.75,2.77v5.93h-2.66V76.38a2.57,2.57,0,0,0-.29-1.36,1.14,1.14,0,0,0-1-.44,2.72,2.72,0,0,0-.63.08,1.85,1.85,0,0,0-.55.26,1.33,1.33,0,0,0-.38.44,1.23,1.23,0,0,0-.15.61v6.12h-2.66Z" transform="translate(1 26)"/><path d="M133.34,82.3a4.92,4.92,0,0,1-1.93-.35A3.91,3.91,0,0,1,130,81a4.1,4.1,0,0,1-.88-1.56,6.54,6.54,0,0,1-.3-2.05,6.7,6.7,0,0,1,.29-2,4.22,4.22,0,0,1,.86-1.56,3.82,3.82,0,0,1,1.39-1,4.86,4.86,0,0,1,1.89-.35,4.59,4.59,0,0,1,2,.4,3.72,3.72,0,0,1,1.37,1.06,4.29,4.29,0,0,1,.77,1.54,6.83,6.83,0,0,1,.24,1.82V78h-6.06v.14a2.09,2.09,0,0,0,.5,1.47,2.06,2.06,0,0,0,1.59.55,2.5,2.5,0,0,0,1.35-.33,5.57,5.57,0,0,0,1-.8l1.33,1.66a4.17,4.17,0,0,1-1.65,1.16A6.22,6.22,0,0,1,133.34,82.3Zm-.05-7.92a1.59,1.59,0,0,0-1.27.53,2.09,2.09,0,0,0-.46,1.42v.14h3.31v-.16a2.32,2.32,0,0,0-.39-1.4A1.38,1.38,0,0,0,133.29,74.38Z" transform="translate(1 26)"/><path d="M143.33,82.3a4.69,4.69,0,0,1-1.89-.35,3.76,3.76,0,0,1-1.39-1,4.17,4.17,0,0,1-.84-1.56,7.36,7.36,0,0,1,0-4.09,4.33,4.33,0,0,1,.84-1.56,3.76,3.76,0,0,1,1.39-1,4.86,4.86,0,0,1,1.89-.34,4.21,4.21,0,0,1,2.4.65,3.58,3.58,0,0,1,1.38,1.82l-2.16.93a1.85,1.85,0,0,0-.52-.92,1.54,1.54,0,0,0-1.1-.37,1.43,1.43,0,0,0-1.22.53,2.2,2.2,0,0,0-.42,1.42v1.76a2.25,2.25,0,0,0,.42,1.43,1.45,1.45,0,0,0,1.22.53,1.5,1.5,0,0,0,1.18-.43,2.69,2.69,0,0,0,.58-1l2.07.9a3.7,3.7,0,0,1-1.45,2A4.29,4.29,0,0,1,143.33,82.3Z" transform="translate(1 26)"/><path d="M148.82,68.77h2.66v7.86h.11l1.17-1.74,1.89-2.25h2.95l-3.15,3.61L158,82.09H154.8l-2.13-4-1.19,1.33v2.67h-2.66Z" transform="translate(1 26)"/><path d="M169.23,72.64h2.49l-3.64,10.9a3.24,3.24,0,0,1-1,1.62,2.94,2.94,0,0,1-1.88.53h-1.65V83.62h1.78l.32-1.05-3.31-9.93H165l1.38,4.41.69,2.73h.1l.71-2.73Z" transform="translate(1 26)"/><path d="M176.76,82.3a4.8,4.8,0,0,1-1.87-.34,3.72,3.72,0,0,1-1.38-1,4.52,4.52,0,0,1-.88-1.57,7.15,7.15,0,0,1,0-4.1,4.56,4.56,0,0,1,.88-1.56,3.82,3.82,0,0,1,1.38-1,5.29,5.29,0,0,1,3.73,0,3.82,3.82,0,0,1,1.38,1,4.56,4.56,0,0,1,.88,1.56,7.15,7.15,0,0,1,0,4.1A4.52,4.52,0,0,1,180,81a3.72,3.72,0,0,1-1.38,1A4.78,4.78,0,0,1,176.76,82.3Zm0-2.1a1.57,1.57,0,0,0,1.22-.49,2,2,0,0,0,.43-1.39V76.4A2,2,0,0,0,178,75a1.8,1.8,0,0,0-2.45,0,2,2,0,0,0-.43,1.39v1.92a2,2,0,0,0,.43,1.39A1.58,1.58,0,0,0,176.76,80.2Z" transform="translate(1 26)"/><path d="M188.65,80.5h-.09a3.12,3.12,0,0,1-.33.69,2.37,2.37,0,0,1-.53.57,2.55,2.55,0,0,1-.77.4,3.42,3.42,0,0,1-1,.14,2.63,2.63,0,0,1-2.21-1,4.4,4.4,0,0,1-.75-2.76V72.64h2.67v5.7a2.36,2.36,0,0,0,.31,1.33,1.13,1.13,0,0,0,1,.47,2.15,2.15,0,0,0,.61-.09,1.59,1.59,0,0,0,.54-.26,1.18,1.18,0,0,0,.52-1V72.64h2.67v9.45h-2.67Z" transform="translate(1 26)"/><path d="M193.8,82.09V72.64h2.66v2h.1a2.67,2.67,0,0,1,.25-.77,2.51,2.51,0,0,1,.47-.65,2.07,2.07,0,0,1,.72-.46,2.4,2.4,0,0,1,1-.17h.47v2.48h-.67a3.73,3.73,0,0,0-1.74.31,1.16,1.16,0,0,0-.57,1.13v5.53Z" transform="translate(1 26)"/><path d="M205,82.09V79.91h1.62V71.7H205V69.52h6V71.7h-1.63v8.21H211v2.18Z" transform="translate(1 26)"/><path d="M221,82.09l-.9-3h-4.19l-.9,3h-2.78l4.14-12.57h3.39l4.08,12.57ZM218,72h-.09l-1.39,4.77h2.88Z" transform="translate(1 26)"/><path d="M235,73.84h-.06L234,75.68l-2.44,4.44-2.4-4.42-1-2h-.06v8.37h-2.57V69.52h2.9l3.08,5.89h0l3-5.89h2.92V82.09H235Z" transform="translate(1 26)"/><path d="M251.4,82.09a1.69,1.69,0,0,1-1.2-.45,2.11,2.11,0,0,1-.6-1.21h-.11a2.19,2.19,0,0,1-1,1.4,3.35,3.35,0,0,1-1.82.47,3,3,0,0,1-2.18-.75,2.7,2.7,0,0,1-.75-2,2.48,2.48,0,0,1,1.09-2.22,5.29,5.29,0,0,1,3-.73h1.49V76a1.58,1.58,0,0,0-.36-1.09,1.55,1.55,0,0,0-1.21-.4,2.11,2.11,0,0,0-1.26.34,3.31,3.31,0,0,0-.77.77l-1.58-1.41a4,4,0,0,1,1.45-1.33,4.91,4.91,0,0,1,2.36-.48,4.49,4.49,0,0,1,3,.88,3.26,3.26,0,0,1,1,2.58V80h.88v2.07Zm-3.69-1.64a2.17,2.17,0,0,0,1.14-.29,1,1,0,0,0,.48-.93v-1.1H248c-1,0-1.57.35-1.57,1.05v.27a.91.91,0,0,0,.32.76A1.53,1.53,0,0,0,247.71,80.45Z" transform="translate(1 26)"/><path d="M258.47,82.3a4.75,4.75,0,0,1-1.89-.35,3.64,3.64,0,0,1-1.38-1,4.19,4.19,0,0,1-.85-1.56,7.61,7.61,0,0,1,0-4.09,4.35,4.35,0,0,1,.85-1.56,3.64,3.64,0,0,1,1.38-1,4.93,4.93,0,0,1,1.89-.34,4.25,4.25,0,0,1,2.41.65,3.51,3.51,0,0,1,1.37,1.82l-2.16.93a1.77,1.77,0,0,0-.52-.92,1.53,1.53,0,0,0-1.1-.37,1.44,1.44,0,0,0-1.22.53,2.2,2.2,0,0,0-.41,1.42v1.76a2.25,2.25,0,0,0,.41,1.43,1.46,1.46,0,0,0,1.22.53,1.48,1.48,0,0,0,1.18-.43,2.71,2.71,0,0,0,.59-1l2.07.9a3.75,3.75,0,0,1-1.45,2A4.32,4.32,0,0,1,258.47,82.3Z" transform="translate(1 26)"/><path d="M267.69,82.3A4.69,4.69,0,0,1,265.8,82a3.64,3.64,0,0,1-1.38-1,4.05,4.05,0,0,1-.85-1.56,7.36,7.36,0,0,1,0-4.09,4.2,4.2,0,0,1,.85-1.56,3.64,3.64,0,0,1,1.38-1,4.86,4.86,0,0,1,1.89-.34,4.21,4.21,0,0,1,2.4.65,3.53,3.53,0,0,1,1.38,1.82l-2.16.93a1.85,1.85,0,0,0-.52-.92,1.54,1.54,0,0,0-1.1-.37,1.43,1.43,0,0,0-1.22.53,2.2,2.2,0,0,0-.42,1.42v1.76a2.25,2.25,0,0,0,.42,1.43,1.45,1.45,0,0,0,1.22.53,1.5,1.5,0,0,0,1.18-.43,2.85,2.85,0,0,0,.59-1l2.06.9a3.73,3.73,0,0,1-1.44,2A4.34,4.34,0,0,1,267.69,82.3Z" transform="translate(1 26)"/><path d="M276.92,82.3a4.78,4.78,0,0,1-1.86-.34,3.72,3.72,0,0,1-1.38-1,4.52,4.52,0,0,1-.88-1.57,7.15,7.15,0,0,1,0-4.1,4.56,4.56,0,0,1,.88-1.56,3.82,3.82,0,0,1,1.38-1,5.29,5.29,0,0,1,3.73,0,3.82,3.82,0,0,1,1.38,1,4.56,4.56,0,0,1,.88,1.56,7.15,7.15,0,0,1,0,4.1,4.52,4.52,0,0,1-.88,1.57,3.72,3.72,0,0,1-1.38,1A4.8,4.8,0,0,1,276.92,82.3Zm0-2.1a1.58,1.58,0,0,0,1.23-.49,2,2,0,0,0,.43-1.39V76.4a2,2,0,0,0-.43-1.39,1.8,1.8,0,0,0-2.45,0,2,2,0,0,0-.43,1.39v1.92a2,2,0,0,0,.43,1.39A1.57,1.57,0,0,0,276.92,80.2Z" transform="translate(1 26)"/><path d="M288.82,80.5h-.09a3.12,3.12,0,0,1-.33.69,2.59,2.59,0,0,1-.53.57,2.55,2.55,0,0,1-.77.4,3.42,3.42,0,0,1-1,.14,2.64,2.64,0,0,1-2.21-1,4.4,4.4,0,0,1-.75-2.76V72.64h2.67v5.7a2.45,2.45,0,0,0,.3,1.33,1.16,1.16,0,0,0,1,.47,2.15,2.15,0,0,0,.61-.09,1.69,1.69,0,0,0,.54-.26,1.18,1.18,0,0,0,.52-1V72.64h2.67v9.45h-2.67Z" transform="translate(1 26)"/><path d="M294,82.09V72.64h2.66v1.6h.11a2.93,2.93,0,0,1,.88-1.28,3,3,0,0,1,4,.43,4.52,4.52,0,0,1,.74,2.77v5.93h-2.66V76.38a2.57,2.57,0,0,0-.29-1.36,1.14,1.14,0,0,0-1-.44,2.72,2.72,0,0,0-.63.08,1.69,1.69,0,0,0-.54.26,1.26,1.26,0,0,0-.39.44,1.23,1.23,0,0,0-.15.61v6.12Z" transform="translate(1 26)"/><path d="M308,82.09a2.88,2.88,0,0,1-2.1-.71,2.76,2.76,0,0,1-.71-2V74.71h-1.33V72.64h.67a.87.87,0,0,0,.73-.26,1.19,1.19,0,0,0,.2-.75V70.08h2.4v2.56h1.87v2.07h-1.87V80h1.72v2.07Z" transform="translate(1 26)"/><path d="M46.26,103.9a4.93,4.93,0,0,1-4-1.69l1.56-1.58a4.22,4.22,0,0,0,1.12.88,3,3,0,0,0,1.39.32,1.83,1.83,0,0,0,1.09-.24.78.78,0,0,0,.31-.66c0-.44-.32-.71-1-.79l-1-.13c-2.12-.26-3.19-1.23-3.19-2.91a2.86,2.86,0,0,1,.27-1.25,2.79,2.79,0,0,1,.73-1,3.55,3.55,0,0,1,1.15-.63A4.87,4.87,0,0,1,46.26,94a7.23,7.23,0,0,1,1.3.1,4.62,4.62,0,0,1,1,.29,3.64,3.64,0,0,1,.81.47,8,8,0,0,1,.73.62l-1.53,1.56a3.6,3.6,0,0,0-1-.71,2.8,2.8,0,0,0-1.16-.26,1.59,1.59,0,0,0-1,.22.68.68,0,0,0-.29.57.8.8,0,0,0,.21.59,1.41,1.41,0,0,0,.78.29l1.06.15c2.08.27,3.12,1.22,3.12,2.84A2.78,2.78,0,0,1,50,102a2.92,2.92,0,0,1-.82,1,4.07,4.07,0,0,1-1.28.66A5.74,5.74,0,0,1,46.26,103.9Z" transform="translate(1 26)"/><path d="M56.07,103.9a4.89,4.89,0,0,1-1.93-.35,3.91,3.91,0,0,1-1.43-1,4,4,0,0,1-.88-1.56,6.54,6.54,0,0,1-.3-2,6.7,6.7,0,0,1,.29-2,4.2,4.2,0,0,1,.85-1.56,3.94,3.94,0,0,1,1.4-1A4.86,4.86,0,0,1,56,94a4.52,4.52,0,0,1,2,.4,3.64,3.64,0,0,1,1.37,1.06A4.31,4.31,0,0,1,60.11,97a6.83,6.83,0,0,1,.24,1.82v.8H54.28v.14a2.05,2.05,0,0,0,.51,1.47,2,2,0,0,0,1.58.55,2.5,2.5,0,0,0,1.35-.33,5.22,5.22,0,0,0,1-.8L60,102.33a4.17,4.17,0,0,1-1.65,1.16A6.22,6.22,0,0,1,56.07,103.9ZM56,96a1.61,1.61,0,0,0-1.27.53,2.14,2.14,0,0,0-.46,1.42v.14H57.6v-.16a2.32,2.32,0,0,0-.39-1.4A1.4,1.4,0,0,0,56,96Z" transform="translate(1 26)"/><path d="M65.55,103.69a2.88,2.88,0,0,1-2.1-.71,2.76,2.76,0,0,1-.71-2V96.31H61.41V94.24h.67a.91.91,0,0,0,.74-.26,1.26,1.26,0,0,0,.19-.75V91.68h2.4v2.56h1.87v2.07H65.41v5.31h1.73v2.07Z" transform="translate(1 26)"/><path d="M72.36,103.69a2.85,2.85,0,0,1-2.1-.71,2.72,2.72,0,0,1-.71-2V96.31H68.22V94.24h.66a.89.89,0,0,0,.74-.26,1.26,1.26,0,0,0,.2-.75V91.68h2.39v2.56h1.87v2.07H72.21v5.31h1.73v2.07Z" transform="translate(1 26)"/><path d="M77.27,93.23a1.61,1.61,0,0,1-1.18-.37,1.27,1.27,0,0,1-.37-1v-.39a1.27,1.27,0,0,1,.37-1,2.07,2.07,0,0,1,2.36,0,1.31,1.31,0,0,1,.37,1v.39a1.31,1.31,0,0,1-.37,1A1.61,1.61,0,0,1,77.27,93.23Zm-1.33,1H78.6v9.45H75.94Z" transform="translate(1 26)"/><path d="M81.09,103.69V94.24h2.66v1.6h.11a2.93,2.93,0,0,1,.88-1.28,3,3,0,0,1,4,.43,4.45,4.45,0,0,1,.75,2.77v5.93H86.77V98a2.58,2.58,0,0,0-.28-1.36,1.16,1.16,0,0,0-1-.44,2.59,2.59,0,0,0-.63.08,1.74,1.74,0,0,0-.55.26,1.49,1.49,0,0,0-.39.44,1.34,1.34,0,0,0-.14.61v6.12Z" transform="translate(1 26)"/><path d="M100.56,104.37a3.25,3.25,0,0,1-.26,1.33,2.34,2.34,0,0,1-.85,1,4.53,4.53,0,0,1-1.58.62,12.6,12.6,0,0,1-2.42.2,12.24,12.24,0,0,1-2.08-.15,5.08,5.08,0,0,1-1.39-.43,1.94,1.94,0,0,1-.77-.69,1.78,1.78,0,0,1-.24-.92,1.63,1.63,0,0,1,.47-1.25,2.19,2.19,0,0,1,1.29-.55v-.2a1.57,1.57,0,0,1-1-.59,1.72,1.72,0,0,1-.35-1.07,1.29,1.29,0,0,1,.16-.66,1.65,1.65,0,0,1,.39-.48,2,2,0,0,1,.57-.34,5.38,5.38,0,0,1,.65-.2V99.9a2.72,2.72,0,0,1-1.28-1.09,3,3,0,0,1-.41-1.61,2.94,2.94,0,0,1,1-2.31A4.58,4.58,0,0,1,95.49,94a6.24,6.24,0,0,1,1.6.18v-.36a1.4,1.4,0,0,1,.37-1.09,1.5,1.5,0,0,1,1.05-.33H100v2H97.92v.11a2.61,2.61,0,0,1,1.22,1.09,3.2,3.2,0,0,1,.4,1.61,2.86,2.86,0,0,1-1,2.27,4.62,4.62,0,0,1-3.05.86,6.73,6.73,0,0,1-1.68-.2.86.86,0,0,0-.41.76.61.61,0,0,0,.26.53,1.55,1.55,0,0,0,.87.19h2.74a3.64,3.64,0,0,1,2.51.72A2.62,2.62,0,0,1,100.56,104.37Zm-2.5.36a.71.71,0,0,0-.32-.63,2.23,2.23,0,0,0-1.14-.22H93.36a1.06,1.06,0,0,0-.26.41,1.41,1.41,0,0,0-.08.44.82.82,0,0,0,.45.77,3.5,3.5,0,0,0,1.53.24h1.08a3.5,3.5,0,0,0,1.53-.24A.82.82,0,0,0,98.06,104.73Zm-2.57-6.16a1.76,1.76,0,0,0,1.17-.33,1.18,1.18,0,0,0,.39-.95v-.22a1.17,1.17,0,0,0-.39-.95,2.2,2.2,0,0,0-2.35,0,1.17,1.17,0,0,0-.39.95v.22a1.18,1.18,0,0,0,.39.95A1.77,1.77,0,0,0,95.49,98.57Z" transform="translate(1 26)"/><path d="M105,103.9a4.92,4.92,0,0,1-4-1.69l1.56-1.58a4.22,4.22,0,0,0,1.12.88,3,3,0,0,0,1.38.32,1.84,1.84,0,0,0,1.1-.24.78.78,0,0,0,.31-.66c0-.44-.32-.71-1-.79l-1-.13q-3.19-.39-3.19-2.91a3,3,0,0,1,.26-1.25,2.82,2.82,0,0,1,.74-1,3.45,3.45,0,0,1,1.15-.63A4.8,4.8,0,0,1,105,94a7.27,7.27,0,0,1,1.31.1,4.62,4.62,0,0,1,1,.29,3.64,3.64,0,0,1,.81.47c.24.18.48.39.73.62l-1.53,1.56a3.6,3.6,0,0,0-1-.71,2.83,2.83,0,0,0-1.16-.26,1.59,1.59,0,0,0-1,.22.65.65,0,0,0-.29.57.84.84,0,0,0,.2.59,1.45,1.45,0,0,0,.79.29l1.06.15c2.08.27,3.11,1.22,3.11,2.84a2.77,2.77,0,0,1-.28,1.26,3,3,0,0,1-.82,1,4.07,4.07,0,0,1-1.28.66A5.76,5.76,0,0,1,105,103.9Z" transform="translate(1 26)"/><path d="M47.91,147.1a4.52,4.52,0,0,1-3.72-1.63,7.39,7.39,0,0,1-1.34-4.79,7.72,7.72,0,0,1,1.34-4.87,4.43,4.43,0,0,1,3.72-1.7,4.38,4.38,0,0,1,4.32,2.73l-1.22.74A3.51,3.51,0,0,0,49.86,136a3.16,3.16,0,0,0-2-.58,3.25,3.25,0,0,0-1.45.31,3,3,0,0,0-1.08.87,4,4,0,0,0-.67,1.36,6,6,0,0,0-.24,1.76v1.88a4.7,4.7,0,0,0,.9,3,3.11,3.11,0,0,0,2.54,1.1,3.24,3.24,0,0,0,2-.62,3.6,3.6,0,0,0,1.19-1.65l1.2.76a4.78,4.78,0,0,1-1.71,2.09A4.71,4.71,0,0,1,47.91,147.1Z" transform="translate(1 26)"/><path d="M54.52,133.57H56v5.52H56a3.07,3.07,0,0,1,1-1.24,2.73,2.73,0,0,1,1.67-.47,2.88,2.88,0,0,1,2.27.93,3.77,3.77,0,0,1,.84,2.62v6H60.33v-5.72c0-1.67-.7-2.51-2.1-2.51a3.34,3.34,0,0,0-.84.11,2.53,2.53,0,0,0-.73.32,1.54,1.54,0,0,0-.7,1.34v6.46H54.52Z" transform="translate(1 26)"/><path d="M68.23,147.1a4.08,4.08,0,0,1-1.71-.34,3.65,3.65,0,0,1-1.32-1,4.55,4.55,0,0,1-.85-1.53,7,7,0,0,1,0-4,4.33,4.33,0,0,1,.85-1.54,3.68,3.68,0,0,1,1.32-1,4.24,4.24,0,0,1,1.71-.34,4.06,4.06,0,0,1,1.68.34,3.68,3.68,0,0,1,1.26.95,4.19,4.19,0,0,1,.8,1.42,5.82,5.82,0,0,1,.28,1.81v.68H65.57V143a3.07,3.07,0,0,0,.19,1.1,2.37,2.37,0,0,0,.54.89,2.42,2.42,0,0,0,.86.6,3,3,0,0,0,1.16.22,2.8,2.8,0,0,0,1.54-.42,2.71,2.71,0,0,0,1-1.19l1,.75a3.54,3.54,0,0,1-1.41,1.54A4.15,4.15,0,0,1,68.23,147.1Zm0-8.51a2.92,2.92,0,0,0-1.08.2,2.46,2.46,0,0,0-.83.59,2.57,2.57,0,0,0-.55.88,3.1,3.1,0,0,0-.2,1.12v.12H70.7v-.19a2.8,2.8,0,0,0-.68-2A2.31,2.31,0,0,0,68.23,138.59Z" transform="translate(1 26)"/><path d="M78.08,147.1a4.27,4.27,0,0,1-1.75-.34,3.58,3.58,0,0,1-1.3-1,4.15,4.15,0,0,1-.81-1.53,7.39,7.39,0,0,1,0-4A4.15,4.15,0,0,1,75,138.7a3.61,3.61,0,0,1,1.3-1,4.44,4.44,0,0,1,1.75-.34,3.67,3.67,0,0,1,2.22.61,3.58,3.58,0,0,1,1.25,1.57l-1.2.61a2.19,2.19,0,0,0-.83-1.11,2.42,2.42,0,0,0-1.44-.4,2.81,2.81,0,0,0-1.13.21,2.19,2.19,0,0,0-.81.57,2.41,2.41,0,0,0-.49.89,3.61,3.61,0,0,0-.16,1.12V143a3,3,0,0,0,.65,2,2.41,2.41,0,0,0,1.94.79,2.62,2.62,0,0,0,2.52-1.62l1,.7a3.68,3.68,0,0,1-1.34,1.6A4,4,0,0,1,78.08,147.1Z" transform="translate(1 26)"/><path d="M83.68,133.57h1.44V142h.07l1.42-1.59,2.63-2.82H91l-3.44,3.67,3.78,5.62H89.58l-3.08-4.74-1.38,1.43v3.31H83.68Z" transform="translate(1 26)"/><path d="M99.46,146.89a1.45,1.45,0,0,1-1.14-.43,1.54,1.54,0,0,1-.39-1.1v-6.48H96.4V137.6h.87a.84.84,0,0,0,.64-.19,1,1,0,0,0,.17-.66V135h1.29v2.58h2v1.28h-2v6.73h1.89v1.28Z" transform="translate(1 26)"/><path d="M103.73,133.57h1.44v5.52h.07a3.07,3.07,0,0,1,1-1.24,2.73,2.73,0,0,1,1.67-.47,2.92,2.92,0,0,1,2.28.93,3.81,3.81,0,0,1,.83,2.62v6h-1.44v-5.72c0-1.67-.7-2.51-2.1-2.51a3.34,3.34,0,0,0-.84.11,2.53,2.53,0,0,0-.73.32,1.67,1.67,0,0,0-.51.55,1.57,1.57,0,0,0-.19.79v6.46h-1.44Z" transform="translate(1 26)"/><path d="M117.44,147.1a4.11,4.11,0,0,1-1.71-.34,3.74,3.74,0,0,1-1.32-1,4.53,4.53,0,0,1-.84-1.53,6.82,6.82,0,0,1,0-4,4.31,4.31,0,0,1,.84-1.54,3.76,3.76,0,0,1,1.32-1,4.28,4.28,0,0,1,1.71-.34,4.06,4.06,0,0,1,1.68.34,3.68,3.68,0,0,1,1.26.95,4.19,4.19,0,0,1,.8,1.42,5.54,5.54,0,0,1,.28,1.81v.68h-6.68V143a3.07,3.07,0,0,0,.19,1.1,2.65,2.65,0,0,0,.54.89,2.42,2.42,0,0,0,.86.6,3.07,3.07,0,0,0,1.16.22,2.77,2.77,0,0,0,1.54-.42,2.71,2.71,0,0,0,1-1.19l1,.75a3.54,3.54,0,0,1-1.41,1.54A4.15,4.15,0,0,1,117.44,147.1Zm0-8.51a2.92,2.92,0,0,0-1.08.2,2.46,2.46,0,0,0-.83.59,2.57,2.57,0,0,0-.55.88,3.1,3.1,0,0,0-.2,1.12v.12h5.13v-.19a2.84,2.84,0,0,0-.67-2A2.33,2.33,0,0,0,117.44,138.59Z" transform="translate(1 26)"/><path d="M134.83,146.89a1.44,1.44,0,0,1-1.16-.43,2.19,2.19,0,0,1-.44-1.08h-.09a2.39,2.39,0,0,1-1,1.29,3.1,3.1,0,0,1-1.67.43,3.28,3.28,0,0,1-2.3-.75,2.7,2.7,0,0,1-.82-2.06,2.35,2.35,0,0,1,1-2,5.09,5.09,0,0,1,3-.7h1.84v-.92a2,2,0,0,0-.54-1.51,2.3,2.3,0,0,0-1.66-.53,2.51,2.51,0,0,0-1.41.38,3,3,0,0,0-.94,1l-.87-.81a3.37,3.37,0,0,1,1.21-1.29,4.48,4.48,0,0,1,4.71.3,2.89,2.89,0,0,1,.94,2.3v5.1h1.06v1.28Zm-4.14-1a3.44,3.44,0,0,0,1-.13,2.33,2.33,0,0,0,.78-.36,1.71,1.71,0,0,0,.5-.54,1.26,1.26,0,0,0,.18-.66v-1.53h-1.91a3.49,3.49,0,0,0-1.81.36,1.16,1.16,0,0,0-.56,1v.38a1.26,1.26,0,0,0,.49,1.06A2.18,2.18,0,0,0,130.69,145.88Z" transform="translate(1 26)"/><path d="M141.15,147.1a4.27,4.27,0,0,1-1.75-.34,3.58,3.58,0,0,1-1.3-1,4.46,4.46,0,0,1-.81-1.53,7.39,7.39,0,0,1,0-4,4.46,4.46,0,0,1,.81-1.53,3.61,3.61,0,0,1,1.3-1,4.44,4.44,0,0,1,1.75-.34,3.65,3.65,0,0,1,2.22.61,3.58,3.58,0,0,1,1.25,1.57l-1.2.61a2.19,2.19,0,0,0-.83-1.11,2.42,2.42,0,0,0-1.44-.4,2.81,2.81,0,0,0-1.13.21,2.19,2.19,0,0,0-.81.57,2.41,2.41,0,0,0-.49.89,3.61,3.61,0,0,0-.16,1.12V143a3,3,0,0,0,.66,2,2.37,2.37,0,0,0,1.93.79,2.62,2.62,0,0,0,2.52-1.62l1,.7a3.68,3.68,0,0,1-1.34,1.6A4,4,0,0,1,141.15,147.1Z" transform="translate(1 26)"/><path d="M150.1,147.1a4.27,4.27,0,0,1-1.75-.34,3.5,3.5,0,0,1-1.3-1,4.15,4.15,0,0,1-.81-1.53,7.39,7.39,0,0,1,0-4,4.15,4.15,0,0,1,.81-1.53,3.52,3.52,0,0,1,1.3-1,4.44,4.44,0,0,1,1.75-.34,3.48,3.48,0,0,1,3.47,2.18l-1.21.61a2.12,2.12,0,0,0-.82-1.11,2.47,2.47,0,0,0-1.44-.4,2.86,2.86,0,0,0-1.14.21,2.18,2.18,0,0,0-1.29,1.46,3.6,3.6,0,0,0-.17,1.12V143a3,3,0,0,0,.66,2,2.4,2.4,0,0,0,1.94.79,2.62,2.62,0,0,0,2.52-1.62l1,.7a3.74,3.74,0,0,1-1.34,1.6A4,4,0,0,1,150.1,147.1Z" transform="translate(1 26)"/><path d="M159.1,147.1a4.11,4.11,0,0,1-1.71-.34,3.69,3.69,0,0,1-1.33-1,4.73,4.73,0,0,1-.85-1.53,6.61,6.61,0,0,1,0-4,4.48,4.48,0,0,1,.85-1.54,3.71,3.71,0,0,1,1.33-1,4.45,4.45,0,0,1,3.41,0,3.76,3.76,0,0,1,1.32,1,4.34,4.34,0,0,1,.86,1.54,6.61,6.61,0,0,1,0,4,4.57,4.57,0,0,1-.86,1.53,3.74,3.74,0,0,1-1.32,1A4.1,4.1,0,0,1,159.1,147.1Zm0-1.27a2.6,2.6,0,0,0,1.9-.73,2.9,2.9,0,0,0,.74-2.19v-1.33a2.91,2.91,0,0,0-.74-2.2,2.88,2.88,0,0,0-3.81,0,3,3,0,0,0-.74,2.2v1.33a2.94,2.94,0,0,0,.74,2.19A2.63,2.63,0,0,0,159.1,145.83Z" transform="translate(1 26)"/><path d="M171.39,145.39h-.07a4.82,4.82,0,0,1-.35.63,2.33,2.33,0,0,1-1.25.94,3.12,3.12,0,0,1-1,.14,3,3,0,0,1-2.29-.92,3.78,3.78,0,0,1-.84-2.62v-6H167v5.72c0,1.67.7,2.51,2.12,2.51a3.34,3.34,0,0,0,.84-.11,2.37,2.37,0,0,0,.72-.33,1.57,1.57,0,0,0,.69-1.35V137.6h1.44v9.29h-1.44Z" transform="translate(1 26)"/><path d="M175.89,146.89V137.6h1.44v1.49h.07a3,3,0,0,1,1-1.24,2.68,2.68,0,0,1,1.66-.47,2.92,2.92,0,0,1,2.28.93,3.76,3.76,0,0,1,.83,2.62v6H181.7v-5.72c0-1.67-.7-2.51-2.1-2.51a3.34,3.34,0,0,0-.84.11,2.53,2.53,0,0,0-.73.32,1.78,1.78,0,0,0-.51.55,1.57,1.57,0,0,0-.19.79v6.46Z" transform="translate(1 26)"/><path d="M188.17,146.89a1.46,1.46,0,0,1-1.15-.43,1.54,1.54,0,0,1-.38-1.1v-6.48h-1.53V137.6H186a.84.84,0,0,0,.64-.19,1,1,0,0,0,.17-.66V135h1.3v2.58h2v1.28h-2v6.73H190v1.28Z" transform="translate(1 26)"/><path d="M196.23,146.89v-1.26H198v-10h-1.76v-1.26h5v1.26h-1.76v10h1.76v1.26Z" transform="translate(1 26)"/><path d="M211.89,146.89l-1.26-3.71h-5.08l-1.26,3.71h-1.53l4.4-12.57h1.92l4.39,12.57Zm-3.76-11.16H208l-2.13,6.12h4.34Z" transform="translate(1 26)"/><path d="M225.35,136.3h-.09l-1.06,2.11-3,5.47-3-5.47-1.06-2.11H217v10.59h-1.48V134.32h2l3.6,6.77h.09l3.62-6.77h1.94v12.57h-1.48Z" transform="translate(1 26)"/><path d="M237.07,147.1a4.35,4.35,0,0,1-2.17-.49,5,5,0,0,1-1.5-1.32l1-.83a4.2,4.2,0,0,0,1.2,1,3.12,3.12,0,0,0,1.55.37,2.25,2.25,0,0,0,1.43-.4,1.44,1.44,0,0,0,.16-2,2.06,2.06,0,0,0-1.27-.53l-.73-.11a5.77,5.77,0,0,1-1.19-.28,3.18,3.18,0,0,1-1-.5,2.13,2.13,0,0,1-.63-.79,2.53,2.53,0,0,1-.22-1.11,2.65,2.65,0,0,1,.25-1.2,2.4,2.4,0,0,1,.69-.85,3.18,3.18,0,0,1,1.06-.52,4.94,4.94,0,0,1,1.31-.17,4,4,0,0,1,1.9.4,4.14,4.14,0,0,1,1.34,1.1l-1,.86a2.92,2.92,0,0,0-.9-.78,2.87,2.87,0,0,0-1.5-.35,2.12,2.12,0,0,0-1.36.38,1.33,1.33,0,0,0-.46,1.06,1.13,1.13,0,0,0,.46,1,3.61,3.61,0,0,0,1.33.45l.72.1a3.85,3.85,0,0,1,2.19.9,2.34,2.34,0,0,1,.65,1.72,2.65,2.65,0,0,1-.92,2.12A3.81,3.81,0,0,1,237.07,147.1Z" transform="translate(1 26)"/><path d="M246.54,147.1a4.13,4.13,0,0,1-1.72-.34,3.62,3.62,0,0,1-1.31-1,4.55,4.55,0,0,1-.85-1.53,6.82,6.82,0,0,1,0-4,4.33,4.33,0,0,1,.85-1.54,3.64,3.64,0,0,1,1.31-1,4.29,4.29,0,0,1,1.72-.34,4,4,0,0,1,1.67.34,3.59,3.59,0,0,1,1.26.95,4,4,0,0,1,.8,1.42,5.54,5.54,0,0,1,.28,1.81v.68h-6.67V143a3.3,3.3,0,0,0,.18,1.1,2.65,2.65,0,0,0,.54.89,2.55,2.55,0,0,0,.87.6,3,3,0,0,0,1.16.22,2.8,2.8,0,0,0,1.54-.42,2.71,2.71,0,0,0,1-1.19l1,.75a3.58,3.58,0,0,1-1.4,1.54A4.17,4.17,0,0,1,246.54,147.1Zm0-8.51a2.85,2.85,0,0,0-1.08.2,2.61,2.61,0,0,0-.84.59,2.92,2.92,0,0,0-.55.88,3.1,3.1,0,0,0-.19,1.12v.12H249v-.19a2.85,2.85,0,0,0-.68-2A2.32,2.32,0,0,0,246.54,138.59Z" transform="translate(1 26)"/><path d="M255,146.89a1.45,1.45,0,0,1-1.14-.43,1.54,1.54,0,0,1-.39-1.1v-6.48h-1.53V137.6h.87a.8.8,0,0,0,.63-.19,1,1,0,0,0,.18-.66V135h1.29v2.58h2v1.28h-2v6.73h1.89v1.28Z" transform="translate(1 26)"/><path d="M261.14,146.89a1.42,1.42,0,0,1-1.14-.43,1.54,1.54,0,0,1-.39-1.1v-6.48h-1.53V137.6h.86a.83.83,0,0,0,.64-.19,1,1,0,0,0,.17-.66V135h1.3v2.58h2v1.28h-2v6.73h1.89v1.28Z" transform="translate(1 26)"/><path d="M266.12,135.42a.87.87,0,0,1-.67-.22.84.84,0,0,1-.21-.59v-.23a.84.84,0,0,1,.21-.59.87.87,0,0,1,.67-.22.88.88,0,0,1,.68.22.84.84,0,0,1,.21.59v.23a.84.84,0,0,1-.21.59A.88.88,0,0,1,266.12,135.42Zm-.72,2.18h1.44v9.29H265.4Z" transform="translate(1 26)"/><path d="M269.9,146.89V137.6h1.44v1.49h.08a2.91,2.91,0,0,1,1-1.24,2.7,2.7,0,0,1,1.66-.47,2.92,2.92,0,0,1,2.28.93,3.77,3.77,0,0,1,.84,2.62v6h-1.44v-5.72c0-1.67-.7-2.51-2.11-2.51a3.2,3.2,0,0,0-.83.11,2.31,2.31,0,0,0-.73.32,1.7,1.7,0,0,0-.52.55,1.68,1.68,0,0,0-.19.79v6.46Z" transform="translate(1 26)"/><path d="M288,147.92a2.28,2.28,0,0,1-1.13,2.11,6.68,6.68,0,0,1-3.37.67,6.24,6.24,0,0,1-3.13-.59,1.88,1.88,0,0,1-1-1.69,1.64,1.64,0,0,1,.4-1.18,2.29,2.29,0,0,1,1.08-.62v-.2a1.33,1.33,0,0,1-.83-1.29,1.29,1.29,0,0,1,.45-1.06,2.87,2.87,0,0,1,1.15-.55v-.07a3.11,3.11,0,0,1-1.29-1.14,3.49,3.49,0,0,1-.2-3,2.84,2.84,0,0,1,.71-1,3,3,0,0,1,1.1-.66,4,4,0,0,1,1.43-.24,4.1,4.1,0,0,1,1.76.36v-.16a1.59,1.59,0,0,1,.25-.9,1,1,0,0,1,.83-.36h1.39v1.28h-1.77v.59a3.09,3.09,0,0,1,.79,1,3.35,3.35,0,0,1,.28,1.37,3.32,3.32,0,0,1-.26,1.3,2.89,2.89,0,0,1-.71,1,3.09,3.09,0,0,1-1.1.65,4.18,4.18,0,0,1-1.44.24,4.58,4.58,0,0,1-.9-.09,2.85,2.85,0,0,0-.85.37.76.76,0,0,0-.38.67.55.55,0,0,0,.4.56,2.91,2.91,0,0,0,1,.14h2a3.85,3.85,0,0,1,2.51.66A2.21,2.21,0,0,1,288,147.92Zm-1.35.1a1.06,1.06,0,0,0-.43-.89,2.51,2.51,0,0,0-1.5-.33h-3.09a1.31,1.31,0,0,0-.87,1.26,1.41,1.41,0,0,0,.46,1,2.26,2.26,0,0,0,1.56.43h1.33a3.73,3.73,0,0,0,1.87-.38A1.21,1.21,0,0,0,286.61,148Zm-3.22-5.36a2.19,2.19,0,0,0,1.45-.45,1.65,1.65,0,0,0,.54-1.36v-.51a1.65,1.65,0,0,0-.54-1.36,2.63,2.63,0,0,0-2.91,0,1.65,1.65,0,0,0-.54,1.36v.51a1.65,1.65,0,0,0,.54,1.36A2.2,2.2,0,0,0,283.39,142.66Z" transform="translate(1 26)"/><path d="M292.42,147.1a4.35,4.35,0,0,1-2.17-.49,5,5,0,0,1-1.5-1.32l1-.83a4.2,4.2,0,0,0,1.2,1,3.12,3.12,0,0,0,1.55.37,2.25,2.25,0,0,0,1.43-.4,1.44,1.44,0,0,0,.16-2,2.06,2.06,0,0,0-1.27-.53l-.73-.11a5.77,5.77,0,0,1-1.19-.28,3.18,3.18,0,0,1-.95-.5,2.13,2.13,0,0,1-.63-.79,2.53,2.53,0,0,1-.22-1.11,2.65,2.65,0,0,1,.25-1.2,2.4,2.4,0,0,1,.69-.85,3.18,3.18,0,0,1,1.06-.52,4.94,4.94,0,0,1,1.31-.17,4,4,0,0,1,1.9.4,4.24,4.24,0,0,1,1.34,1.1l-.95.86a2.92,2.92,0,0,0-.9-.78,2.87,2.87,0,0,0-1.5-.35A2.12,2.12,0,0,0,291,139a1.33,1.33,0,0,0-.46,1.06,1.13,1.13,0,0,0,.46,1,3.61,3.61,0,0,0,1.33.45l.72.1a3.85,3.85,0,0,1,2.19.9,2.34,2.34,0,0,1,.65,1.72,2.65,2.65,0,0,1-.92,2.12A3.81,3.81,0,0,1,292.42,147.1Z" transform="translate(1 26)"/></g></svg>