<?xml version="1.0" encoding="utf-8"?><svg xmlns="http://www.w3.org/2000/svg" width="320" height="200" viewBox="0 0 403 251"><defs><style>.cls-1{fill:#f4f4f4;}.cls-2{fill:none;}</style></defs><g id="Layer_1" data-name="Layer 1"><rect class="cls-1" width="403" height="251"/><path d="M47.26,82.3a6.12,6.12,0,0,1-4.77-2l1.8-1.82a4.08,4.08,0,0,0,3.15,1.42,2.26,2.26,0,0,0,1.5-.41,1.35,1.35,0,0,0,.48-1.09,1.31,1.31,0,0,0-.28-.86A1.88,1.88,0,0,0,48,77l-1.25-.16a4.79,4.79,0,0,1-2.92-1.21,3.5,3.5,0,0,1-.93-2.54,3.59,3.59,0,0,1,.33-1.55,3.39,3.39,0,0,1,.92-1.21,4.17,4.17,0,0,1,1.48-.78,6.38,6.38,0,0,1,2-.28,6.45,6.45,0,0,1,2.5.45,5.08,5.08,0,0,1,1.85,1.31l-1.81,1.84A3.78,3.78,0,0,0,49,72.07a3.52,3.52,0,0,0-1.61-.33,2.31,2.31,0,0,0-1.37.32,1,1,0,0,0-.45.89,1.12,1.12,0,0,0,.35.92,2.37,2.37,0,0,0,1.14.41l1.24.2a5.35,5.35,0,0,1,2.88,1.2,3.32,3.32,0,0,1,.94,2.53,4.27,4.27,0,0,1-.32,1.66,3.59,3.59,0,0,1-1,1.3,4.38,4.38,0,0,1-1.54.84A7,7,0,0,1,47.26,82.3Z" transform="translate(1 26)"/><path d="M57.51,82.09a2.85,2.85,0,0,1-2.1-.71,2.76,2.76,0,0,1-.71-2V74.71H53.37V72.64H54a.89.89,0,0,0,.74-.26,1.26,1.26,0,0,0,.2-.75V70.08h2.39v2.56h1.87v2.07H57.36V80h1.73v2.07Z" transform="translate(1 26)"/><path d="M65,82.3A4.92,4.92,0,0,1,63,82a3.91,3.91,0,0,1-1.43-1,4.1,4.1,0,0,1-.88-1.56,6.54,6.54,0,0,1-.3-2.05,6.7,6.7,0,0,1,.29-2,4.22,4.22,0,0,1,.86-1.56,3.82,3.82,0,0,1,1.39-1,4.86,4.86,0,0,1,1.89-.35,4.59,4.59,0,0,1,2,.4,3.72,3.72,0,0,1,1.37,1.06A4.29,4.29,0,0,1,69,75.42a6.83,6.83,0,0,1,.24,1.82V78H63.18v.14a1.84,1.84,0,0,0,2.08,2,2.45,2.45,0,0,0,1.35-.33,5.28,5.28,0,0,0,1-.8l1.33,1.66a4.17,4.17,0,0,1-1.65,1.16A6.22,6.22,0,0,1,65,82.3Zm-.06-7.92a1.57,1.57,0,0,0-1.26.53,2.09,2.09,0,0,0-.46,1.42v.14h3.31v-.16a2.32,2.32,0,0,0-.39-1.4A1.4,1.4,0,0,0,64.9,74.38Z" transform="translate(1 26)"/><path d="M71.13,72.64H73.8v1.58h.09a2.22,2.22,0,0,1,.9-1.3,2.81,2.81,0,0,1,1.63-.5,3.15,3.15,0,0,1,2.72,1.26,6.19,6.19,0,0,1,.92,3.67A6.22,6.22,0,0,1,79.14,81a3.13,3.13,0,0,1-2.72,1.27,2.84,2.84,0,0,1-.88-.13,2.94,2.94,0,0,1-.75-.38,2.49,2.49,0,0,1-.9-1.29H73.8v5.19H71.13Zm4.41,7.5a1.6,1.6,0,0,0,1.25-.53,2,2,0,0,0,.5-1.43V76.54a2,2,0,0,0-.5-1.43,1.64,1.64,0,0,0-1.25-.53,2,2,0,0,0-1.25.37,1.19,1.19,0,0,0-.49,1v2.79a1.18,1.18,0,0,0,.49,1A2,2,0,0,0,75.54,80.14Z" transform="translate(1 26)"/><path d="M86.77,82.09V79.91h3.39V71.48H90l-2.56,3.35-1.73-1.35,3-4h4.14V79.91h2.66v2.18Z" transform="translate(1 26)"/><path d="M98.67,82.28a1.6,1.6,0,0,1-1.2-.4,1.48,1.48,0,0,1-.38-1v-.36a1.45,1.45,0,0,1,.38-1,2,2,0,0,1,2.4,0,1.42,1.42,0,0,1,.39,1v.36a1.44,1.44,0,0,1-.39,1A1.6,1.6,0,0,1,98.67,82.28Z" transform="translate(1 26)"/><path d="M112.17,82.3a6.2,6.2,0,0,1-2.3-.4,4.48,4.48,0,0,1-1.75-1.21,5.44,5.44,0,0,1-1.11-2,8.71,8.71,0,0,1-.4-2.8,9,9,0,0,1,.4-2.81A5.86,5.86,0,0,1,108.12,71a4.62,4.62,0,0,1,1.75-1.27,5.82,5.82,0,0,1,2.3-.43,5.26,5.26,0,0,1,2.88.71,4.88,4.88,0,0,1,1.82,2.24l-2.36,1.22a2.86,2.86,0,0,0-.78-1.27,2.29,2.29,0,0,0-1.56-.47,2.51,2.51,0,0,0-1.93.78,3.2,3.2,0,0,0-.73,2.28v2a3.2,3.2,0,0,0,.73,2.28,2.51,2.51,0,0,0,1.93.78,2.28,2.28,0,0,0,1.61-.55,3.16,3.16,0,0,0,.89-1.32l2.24,1.3a5.6,5.6,0,0,1-1.85,2.22A5,5,0,0,1,112.17,82.3Z" transform="translate(1 26)"/><path d="M118.67,68.77h2.66v5.47h.11a2.93,2.93,0,0,1,.88-1.28,2.62,2.62,0,0,1,1.75-.54,2.59,2.59,0,0,1,2.2,1,4.45,4.45,0,0,1,.75,2.77v5.93h-2.66V76.38a2.57,2.57,0,0,0-.29-1.36,1.14,1.14,0,0,0-1-.44,2.72,2.72,0,0,0-.63.08,1.85,1.85,0,0,0-.55.26,1.33,1.33,0,0,0-.38.44,1.23,1.23,0,0,0-.15.61v6.12h-2.66Z" transform="translate(1 26)"/><path d="M133.34,82.3a4.92,4.92,0,0,1-1.93-.35A3.91,3.91,0,0,1,130,81a4.1,4.1,0,0,1-.88-1.56,6.54,6.54,0,0,1-.3-2.05,6.7,6.7,0,0,1,.29-2,4.22,4.22,0,0,1,.86-1.56,3.82,3.82,0,0,1,1.39-1,4.86,4.86,0,0,1,1.89-.35,4.59,4.59,0,0,1,2,.4,3.72,3.72,0,0,1,1.37,1.06,4.29,4.29,0,0,1,.77,1.54,6.83,6.83,0,0,1,.24,1.82V78h-6.06v.14a2.09,2.09,0,0,0,.5,1.47,2.06,2.06,0,0,0,1.59.55,2.5,2.5,0,0,0,1.35-.33,5.57,5.57,0,0,0,1-.8l1.33,1.66a4.17,4.17,0,0,1-1.65,1.16A6.22,6.22,0,0,1,133.34,82.3Zm-.05-7.92a1.59,1.59,0,0,0-1.27.53,2.09,2.09,0,0,0-.46,1.42v.14h3.31v-.16a2.32,2.32,0,0,0-.39-1.4A1.38,1.38,0,0,0,133.29,74.38Z" transform="translate(1 26)"/><path d="M143.33,82.3a4.69,4.69,0,0,1-1.89-.35,3.76,3.76,0,0,1-1.39-1,4.17,4.17,0,0,1-.84-1.56,7.36,7.36,0,0,1,0-4.09,4.33,4.33,0,0,1,.84-1.56,3.76,3.76,0,0,1,1.39-1,4.86,4.86,0,0,1,1.89-.34,4.21,4.21,0,0,1,2.4.65,3.58,3.58,0,0,1,1.38,1.82l-2.16.93a1.85,1.85,0,0,0-.52-.92,1.54,1.54,0,0,0-1.1-.37,1.43,1.43,0,0,0-1.22.53,2.2,2.2,0,0,0-.42,1.42v1.76a2.25,2.25,0,0,0,.42,1.43,1.45,1.45,0,0,0,1.22.53,1.5,1.5,0,0,0,1.18-.43,2.69,2.69,0,0,0,.58-1l2.07.9a3.7,3.7,0,0,1-1.45,2A4.29,4.29,0,0,1,143.33,82.3Z" transform="translate(1 26)"/><path d="M148.82,68.77h2.66v7.86h.11l1.17-1.74,1.89-2.25h2.95l-3.15,3.61L158,82.09H154.8l-2.13-4-1.19,1.33v2.67h-2.66Z" transform="translate(1 26)"/><path d="M169.23,72.64h2.49l-3.64,10.9a3.24,3.24,0,0,1-1,1.62,2.94,2.94,0,0,1-1.88.53h-1.65V83.62h1.78l.32-1.05-3.31-9.93H165l1.38,4.41.69,2.73h.1l.71-2.73Z" transform="translate(1 26)"/><path d="M176.76,82.3a4.8,4.8,0,0,1-1.87-.34,3.72,3.72,0,0,1-1.38-1,4.52,4.52,0,0,1-.88-1.57,7.15,7.15,0,0,1,0-4.1,4.56,4.56,0,0,1,.88-1.56,3.82,3.82,0,0,1,1.38-1,5.29,5.29,0,0,1,3.73,0,3.82,3.82,0,0,1,1.38,1,4.56,4.56,0,0,1,.88,1.56,7.15,7.15,0,0,1,0,4.1A4.52,4.52,0,0,1,180,81a3.72,3.72,0,0,1-1.38,1A4.78,4.78,0,0,1,176.76,82.3Zm0-2.1a1.57,1.57,0,0,0,1.22-.49,2,2,0,0,0,.43-1.39V76.4A2,2,0,0,0,178,75a1.8,1.8,0,0,0-2.45,0,2,2,0,0,0-.43,1.39v1.92a2,2,0,0,0,.43,1.39A1.58,1.58,0,0,0,176.76,80.2Z" transform="translate(1 26)"/><path d="M188.65,80.5h-.09a3.12,3.12,0,0,1-.33.69,2.37,2.37,0,0,1-.53.57,2.55,2.55,0,0,1-.77.4,3.42,3.42,0,0,1-1,.14,2.63,2.63,0,0,1-2.21-1,4.4,4.4,0,0,1-.75-2.76V72.64h2.67v5.7a2.36,2.36,0,0,0,.31,1.33,1.13,1.13,0,0,0,1,.47,2.15,2.15,0,0,0,.61-.09,1.59,1.59,0,0,0,.54-.26,1.18,1.18,0,0,0,.52-1V72.64h2.67v9.45h-2.67Z" transform="translate(1 26)"/><path d="M193.8,82.09V72.64h2.66v2h.1a2.67,2.67,0,0,1,.25-.77,2.51,2.51,0,0,1,.47-.65,2.07,2.07,0,0,1,.72-.46,2.4,2.4,0,0,1,1-.17h.47v2.48h-.67a3.73,3.73,0,0,0-1.74.31,1.16,1.16,0,0,0-.57,1.13v5.53Z" transform="translate(1 26)"/><path d="M209.53,82.3a6.12,6.12,0,0,1-4.77-2l1.8-1.82a4.07,4.07,0,0,0,3.15,1.42,2.28,2.28,0,0,0,1.5-.41,1.35,1.35,0,0,0,.48-1.09,1.31,1.31,0,0,0-.28-.86,1.88,1.88,0,0,0-1.17-.47L209,76.88a4.79,4.79,0,0,1-2.92-1.21,3.5,3.5,0,0,1-.93-2.54,3.74,3.74,0,0,1,.32-1.55,3.54,3.54,0,0,1,.93-1.21,4.17,4.17,0,0,1,1.48-.78,6.38,6.38,0,0,1,2-.28,6.48,6.48,0,0,1,2.5.45,5.08,5.08,0,0,1,1.85,1.31l-1.81,1.84a3.92,3.92,0,0,0-1.09-.84,3.52,3.52,0,0,0-1.61-.33,2.31,2.31,0,0,0-1.37.32,1,1,0,0,0-.45.89,1.09,1.09,0,0,0,.35.92,2.37,2.37,0,0,0,1.14.41l1.24.2a5.35,5.35,0,0,1,2.88,1.2,3.32,3.32,0,0,1,.94,2.53,4.27,4.27,0,0,1-.32,1.66,3.71,3.71,0,0,1-1,1.3,4.38,4.38,0,0,1-1.54.84A7,7,0,0,1,209.53,82.3Z" transform="translate(1 26)"/><path d="M220.49,82.3a4.84,4.84,0,0,1-1.92-.35,3.83,3.83,0,0,1-1.43-1,4,4,0,0,1-.88-1.56,6.54,6.54,0,0,1-.3-2.05,6.4,6.4,0,0,1,.29-2,4.2,4.2,0,0,1,.85-1.56,3.85,3.85,0,0,1,1.4-1,4.86,4.86,0,0,1,1.89-.35,4.52,4.52,0,0,1,2,.4,3.64,3.64,0,0,1,1.37,1.06,4.31,4.31,0,0,1,.78,1.54,6.83,6.83,0,0,1,.24,1.82V78h-6.07v.14a2.05,2.05,0,0,0,.51,1.47,2,2,0,0,0,1.58.55,2.5,2.5,0,0,0,1.35-.33,5.22,5.22,0,0,0,1-.8l1.33,1.66a4.14,4.14,0,0,1-1.64,1.16A6.23,6.23,0,0,1,220.49,82.3Zm-.05-7.92a1.61,1.61,0,0,0-1.27.53,2.14,2.14,0,0,0-.46,1.42v.14H222v-.16a2.32,2.32,0,0,0-.38-1.4A1.4,1.4,0,0,0,220.44,74.38Z" transform="translate(1 26)"/><path d="M230.48,82.3a4.75,4.75,0,0,1-1.89-.35,3.64,3.64,0,0,1-1.38-1,4.19,4.19,0,0,1-.85-1.56,7.61,7.61,0,0,1,0-4.09,4.35,4.35,0,0,1,.85-1.56,3.64,3.64,0,0,1,1.38-1,4.93,4.93,0,0,1,1.89-.34,4.25,4.25,0,0,1,2.41.65,3.51,3.51,0,0,1,1.37,1.82l-2.16.93a1.77,1.77,0,0,0-.52-.92,1.53,1.53,0,0,0-1.1-.37,1.44,1.44,0,0,0-1.22.53,2.2,2.2,0,0,0-.41,1.42v1.76a2.25,2.25,0,0,0,.41,1.43,1.46,1.46,0,0,0,1.22.53,1.48,1.48,0,0,0,1.18-.43,2.71,2.71,0,0,0,.59-1l2.07.9a3.75,3.75,0,0,1-1.45,2A4.32,4.32,0,0,1,230.48,82.3Z" transform="translate(1 26)"/><path d="M241.55,80.5h-.09a3.12,3.12,0,0,1-.33.69,2.37,2.37,0,0,1-.53.57,2.55,2.55,0,0,1-.77.4,3.42,3.42,0,0,1-1,.14,2.64,2.64,0,0,1-2.21-1,4.47,4.47,0,0,1-.74-2.76V72.64h2.66v5.7a2.36,2.36,0,0,0,.31,1.33,1.13,1.13,0,0,0,1,.47,2.15,2.15,0,0,0,.61-.09,1.51,1.51,0,0,0,.54-.26,1.28,1.28,0,0,0,.38-.42,1.16,1.16,0,0,0,.14-.6V72.64h2.67v9.45h-2.67Z" transform="translate(1 26)"/><path d="M246.7,82.09V72.64h2.67v2h.09a2.67,2.67,0,0,1,.25-.77,2.51,2.51,0,0,1,.47-.65,2.07,2.07,0,0,1,.72-.46,2.4,2.4,0,0,1,1-.17h.47v2.48h-.67a3.73,3.73,0,0,0-1.74.31,1.16,1.16,0,0,0-.56,1.13v5.53Z" transform="translate(1 26)"/><path d="M255.31,71.63a1.59,1.59,0,0,1-1.18-.37,1.27,1.27,0,0,1-.37-1v-.39a1.27,1.27,0,0,1,.37-1,1.63,1.63,0,0,1,1.18-.37,1.61,1.61,0,0,1,1.17.37,1.27,1.27,0,0,1,.37,1v.39a1.27,1.27,0,0,1-.37,1A1.56,1.56,0,0,1,255.31,71.63Zm-1.34,1h2.67v9.45H254Z" transform="translate(1 26)"/><path d="M262.43,82.09a2.84,2.84,0,0,1-2.09-.71,2.72,2.72,0,0,1-.72-2V74.71h-1.33V72.64H259a.91.91,0,0,0,.74-.26,1.26,1.26,0,0,0,.19-.75V70.08h2.4v2.56h1.87v2.07h-1.87V80H264v2.07Z" transform="translate(1 26)"/><path d="M271.79,72.64h2.49l-3.64,10.9a3.24,3.24,0,0,1-1,1.62,2.92,2.92,0,0,1-1.88.53h-1.65V83.62h1.78l.32-1.05-3.31-9.93h2.65l1.38,4.41.69,2.73h.1l.71-2.73Z" transform="translate(1 26)"/><path d="M286.86,82.09a1.69,1.69,0,0,1-1.2-.45,2.05,2.05,0,0,1-.6-1.21H285a2.19,2.19,0,0,1-.95,1.4,3.37,3.37,0,0,1-1.82.47,3,3,0,0,1-2.18-.75,2.7,2.7,0,0,1-.75-2,2.49,2.49,0,0,1,1.08-2.22,5.33,5.33,0,0,1,3-.73h1.5V76a1.58,1.58,0,0,0-.36-1.09,1.55,1.55,0,0,0-1.21-.4,2.07,2.07,0,0,0-1.26.34,3.31,3.31,0,0,0-.77.77l-1.59-1.41a4.19,4.19,0,0,1,1.45-1.33,5,5,0,0,1,2.37-.48,4.46,4.46,0,0,1,3,.88,3.23,3.23,0,0,1,1,2.58V80h.88v2.07Zm-3.69-1.64a2.19,2.19,0,0,0,1.14-.29,1,1,0,0,0,.48-.93v-1.1h-1.3q-1.56,0-1.56,1.05v.27a.91.91,0,0,0,.32.76A1.53,1.53,0,0,0,283.17,80.45Z" transform="translate(1 26)"/><path d="M290.12,82.09V72.64h2.66v1.6h.11a2.93,2.93,0,0,1,.88-1.28,3,3,0,0,1,4,.43,4.45,4.45,0,0,1,.75,2.77v5.93H295.8V76.38a2.58,2.58,0,0,0-.28-1.36,1.15,1.15,0,0,0-1-.44,2.65,2.65,0,0,0-.63.08,1.74,1.74,0,0,0-.55.26,1.49,1.49,0,0,0-.39.44,1.34,1.34,0,0,0-.14.61v6.12Z" transform="translate(1 26)"/><path d="M306.64,80.5h-.09a2.44,2.44,0,0,1-.34.71,2.42,2.42,0,0,1-.57.58,2.65,2.65,0,0,1-.75.38,2.93,2.93,0,0,1-.88.13A3.14,3.14,0,0,1,301.29,81a6.23,6.23,0,0,1-.91-3.68,6.19,6.19,0,0,1,.91-3.67A3.16,3.16,0,0,1,304,72.42a2.78,2.78,0,0,1,1.63.5,2.19,2.19,0,0,1,.91,1.3h.09V68.77h2.66V82.09h-2.66Zm-1.75-.36a2,2,0,0,0,1.26-.37,1.18,1.18,0,0,0,.49-1V76a1.19,1.19,0,0,0-.49-1,2,2,0,0,0-1.26-.37,1.65,1.65,0,0,0-1.25.53,2,2,0,0,0-.49,1.43v1.64a2,2,0,0,0,.49,1.43A1.62,1.62,0,0,0,304.89,80.14Z" transform="translate(1 26)"/><path d="M48.27,103.9a6.2,6.2,0,0,1-2.3-.4,4.48,4.48,0,0,1-1.75-1.21,5.44,5.44,0,0,1-1.11-2,8.71,8.71,0,0,1-.4-2.8,9,9,0,0,1,.4-2.81,5.86,5.86,0,0,1,1.11-2.07A4.62,4.62,0,0,1,46,91.34a5.82,5.82,0,0,1,2.3-.43,5.26,5.26,0,0,1,2.88.71A4.88,4.88,0,0,1,53,93.86l-2.36,1.22a2.86,2.86,0,0,0-.78-1.27,2.29,2.29,0,0,0-1.56-.47,2.51,2.51,0,0,0-1.93.78,3.2,3.2,0,0,0-.73,2.28v2a3.2,3.2,0,0,0,.73,2.28,2.51,2.51,0,0,0,1.93.78,2.28,2.28,0,0,0,1.61-.55,3.16,3.16,0,0,0,.89-1.32L53,100.9a5.6,5.6,0,0,1-1.85,2.22A5,5,0,0,1,48.27,103.9Z" transform="translate(1 26)"/><path d="M58.6,103.9a4.78,4.78,0,0,1-1.86-.34,3.76,3.76,0,0,1-1.39-1,4.67,4.67,0,0,1-.87-1.57,7.15,7.15,0,0,1,0-4.1,4.71,4.71,0,0,1,.87-1.56,3.85,3.85,0,0,1,1.39-1,5.29,5.29,0,0,1,3.73,0,3.9,3.9,0,0,1,1.38,1,4.56,4.56,0,0,1,.88,1.56,7.15,7.15,0,0,1,0,4.1,4.52,4.52,0,0,1-.88,1.57,3.81,3.81,0,0,1-1.38,1A4.8,4.8,0,0,1,58.6,103.9Zm0-2.1a1.58,1.58,0,0,0,1.23-.49,2,2,0,0,0,.43-1.39V98a2,2,0,0,0-.43-1.39,1.8,1.8,0,0,0-2.45,0A2,2,0,0,0,57,98v1.92a2,2,0,0,0,.43,1.39A1.57,1.57,0,0,0,58.6,101.8Z" transform="translate(1 26)"/><path d="M64.92,103.69V94.24h2.67v1.6h.1a2.91,2.91,0,0,1,.87-1.29A2.48,2.48,0,0,1,70.23,94a2.76,2.76,0,0,1,1.66.49,2.73,2.73,0,0,1,1,1.42h.05a2.56,2.56,0,0,1,.39-.75,2.62,2.62,0,0,1,.64-.6,3.64,3.64,0,0,1,.84-.41,3.33,3.33,0,0,1,1-.15,2.47,2.47,0,0,1,2.1,1,4.59,4.59,0,0,1,.73,2.77v5.93H76V98q0-1.8-1.29-1.8a1.8,1.8,0,0,0-1.08.34,1.19,1.19,0,0,0-.49,1v6.12H70.45V98c0-1.2-.43-1.8-1.3-1.8a2.24,2.24,0,0,0-.57.08,1.59,1.59,0,0,0-.5.26,1.39,1.39,0,0,0-.36.44,1.33,1.33,0,0,0-.13.61v6.12Z" transform="translate(1 26)"/><path d="M81,94.24h2.67v1.58h.09a2.19,2.19,0,0,1,.91-1.3,2.76,2.76,0,0,1,1.63-.5A3.13,3.13,0,0,1,89,95.28a7.8,7.8,0,0,1,0,7.35,3.11,3.11,0,0,1-2.71,1.27,2.86,2.86,0,0,1-.89-.13,2.73,2.73,0,0,1-.74-.38,2.25,2.25,0,0,1-.57-.58,2.21,2.21,0,0,1-.34-.71h-.09v5.19H81Zm4.41,7.5a1.6,1.6,0,0,0,1.25-.53,2,2,0,0,0,.5-1.43V98.14a2,2,0,0,0-.5-1.43,1.64,1.64,0,0,0-1.25-.53,2,2,0,0,0-1.25.37,1.19,1.19,0,0,0-.49,1v2.79a1.18,1.18,0,0,0,.49,1A2,2,0,0,0,85.42,101.74Z" transform="translate(1 26)"/><path d="M94.6,103.69a2.32,2.32,0,0,1-2.64-2.6V90.37h2.66v11.25h1.19v2.07Z" transform="translate(1 26)"/><path d="M98.74,93.23a1.61,1.61,0,0,1-1.18-.37,1.31,1.31,0,0,1-.36-1v-.39a1.31,1.31,0,0,1,.36-1,1.65,1.65,0,0,1,1.18-.37,1.63,1.63,0,0,1,1.18.37,1.27,1.27,0,0,1,.37,1v.39a1.27,1.27,0,0,1-.37,1A1.59,1.59,0,0,1,98.74,93.23Zm-1.33,1h2.67v9.45H97.41Z" transform="translate(1 26)"/><path d="M109.54,103.69a1.65,1.65,0,0,1-1.19-.45,2.12,2.12,0,0,1-.61-1.21h-.1a2.24,2.24,0,0,1-1,1.4,3.35,3.35,0,0,1-1.82.47,3,3,0,0,1-2.17-.75,2.67,2.67,0,0,1-.76-2A2.48,2.48,0,0,1,103,98.94a5.29,5.29,0,0,1,3-.73h1.49v-.59a1.58,1.58,0,0,0-.36-1.09,1.54,1.54,0,0,0-1.2-.4,2.07,2.07,0,0,0-1.26.34,3.36,3.36,0,0,0-.78.77l-1.58-1.41a4.1,4.1,0,0,1,1.45-1.33,4.93,4.93,0,0,1,2.37-.48,4.46,4.46,0,0,1,3,.88,3.26,3.26,0,0,1,1,2.58v4.14H111v2.07Zm-3.69-1.64a2.21,2.21,0,0,0,1.15-.29,1,1,0,0,0,.47-.93v-1.1h-1.29c-1.05,0-1.57.35-1.57,1v.27a.88.88,0,0,0,.33.76A1.49,1.49,0,0,0,105.85,102.05Z" transform="translate(1 26)"/><path d="M112.8,103.69V94.24h2.66v1.6h.11a2.87,2.87,0,0,1,.89-1.28A2.59,2.59,0,0,1,118.2,94a2.62,2.62,0,0,1,2.21,1,4.52,4.52,0,0,1,.74,2.77v5.93h-2.66V98a2.57,2.57,0,0,0-.29-1.36,1.13,1.13,0,0,0-1-.44,2.74,2.74,0,0,0-.64.08,1.69,1.69,0,0,0-.54.26,1.36,1.36,0,0,0-.39.44,1.23,1.23,0,0,0-.15.61v6.12Z" transform="translate(1 26)"/><path d="M127.35,103.9a4.69,4.69,0,0,1-1.89-.35,3.6,3.6,0,0,1-1.39-1,4.33,4.33,0,0,1-.85-1.56,7.61,7.61,0,0,1,0-4.09,4.51,4.51,0,0,1,.85-1.56,3.6,3.6,0,0,1,1.39-1,4.86,4.86,0,0,1,1.89-.34,4.21,4.21,0,0,1,2.4.65,3.51,3.51,0,0,1,1.37,1.82l-2.15.93a1.86,1.86,0,0,0-.53-.92,1.52,1.52,0,0,0-1.09-.37,1.46,1.46,0,0,0-1.23.53,2.2,2.2,0,0,0-.41,1.42v1.76a2.25,2.25,0,0,0,.41,1.43,1.75,1.75,0,0,0,2.4.1,2.71,2.71,0,0,0,.59-1l2.07.9a3.75,3.75,0,0,1-1.45,2A4.31,4.31,0,0,1,127.35,103.9Z" transform="translate(1 26)"/><path d="M136.69,103.9a4.92,4.92,0,0,1-1.93-.35,3.91,3.91,0,0,1-1.43-1,4.1,4.1,0,0,1-.88-1.56,6.54,6.54,0,0,1-.3-2,6.7,6.7,0,0,1,.29-2,4.35,4.35,0,0,1,.85-1.56,3.94,3.94,0,0,1,1.4-1,4.86,4.86,0,0,1,1.89-.35,4.59,4.59,0,0,1,2,.4A3.68,3.68,0,0,1,140,95.48a4.15,4.15,0,0,1,.78,1.54,6.83,6.83,0,0,1,.24,1.82v.8h-6.06v.14a1.84,1.84,0,0,0,2.08,2,2.45,2.45,0,0,0,1.35-.33,5.28,5.28,0,0,0,1-.8l1.33,1.66a4.17,4.17,0,0,1-1.65,1.16A6.22,6.22,0,0,1,136.69,103.9ZM136.63,96a1.61,1.61,0,0,0-1.27.53,2.14,2.14,0,0,0-.45,1.42v.14h3.31v-.16a2.32,2.32,0,0,0-.39-1.4A1.4,1.4,0,0,0,136.63,96Z" transform="translate(1 26)"/><path d="M152.33,103.9a6.2,6.2,0,0,1-2.3-.4,4.48,4.48,0,0,1-1.75-1.21,5.61,5.61,0,0,1-1.12-2,9,9,0,0,1-.39-2.8,9.31,9.31,0,0,1,.39-2.81,6,6,0,0,1,1.12-2.07A4.62,4.62,0,0,1,150,91.34a5.82,5.82,0,0,1,2.3-.43,5.3,5.3,0,0,1,2.88.71A4.88,4.88,0,0,1,157,93.86l-2.36,1.22a2.86,2.86,0,0,0-.78-1.27,2.33,2.33,0,0,0-1.56-.47,2.53,2.53,0,0,0-1.94.78,3.25,3.25,0,0,0-.72,2.28v2a3.25,3.25,0,0,0,.72,2.28,2.53,2.53,0,0,0,1.94.78,2.28,2.28,0,0,0,1.61-.55,3.25,3.25,0,0,0,.89-1.32l2.23,1.3a5.5,5.5,0,0,1-1.84,2.22A5,5,0,0,1,152.33,103.9Z" transform="translate(1 26)"/><path d="M162.77,103.9a4.92,4.92,0,0,1-1.93-.35,3.91,3.91,0,0,1-1.43-1,4.1,4.1,0,0,1-.88-1.56,6.54,6.54,0,0,1-.3-2,6.7,6.7,0,0,1,.29-2,4.22,4.22,0,0,1,.86-1.56,3.82,3.82,0,0,1,1.39-1,4.86,4.86,0,0,1,1.89-.35,4.59,4.59,0,0,1,2,.4A3.72,3.72,0,0,1,166,95.48a4.29,4.29,0,0,1,.77,1.54,6.83,6.83,0,0,1,.24,1.82v.8H161v.14a1.84,1.84,0,0,0,2.09,2,2.44,2.44,0,0,0,1.34-.33,5.28,5.28,0,0,0,1-.8l1.33,1.66a4.17,4.17,0,0,1-1.65,1.16A6.22,6.22,0,0,1,162.77,103.9ZM162.71,96a1.57,1.57,0,0,0-1.26.53,2.09,2.09,0,0,0-.46,1.42v.14h3.31v-.16a2.32,2.32,0,0,0-.39-1.4A1.4,1.4,0,0,0,162.71,96Z" transform="translate(1 26)"/><path d="M168.94,103.69V94.24h2.67v1.6h.1a3,3,0,0,1,.89-1.28,2.59,2.59,0,0,1,1.74-.54,2.62,2.62,0,0,1,2.21,1,4.46,4.46,0,0,1,.74,2.77v5.93h-2.66V98a2.57,2.57,0,0,0-.29-1.36,1.13,1.13,0,0,0-1-.44,2.59,2.59,0,0,0-.63.08,1.64,1.64,0,0,0-.55.26,1.49,1.49,0,0,0-.39.44,1.22,1.22,0,0,0-.14.61v6.12Z" transform="translate(1 26)"/><path d="M183,103.69a2.84,2.84,0,0,1-2.09-.71,2.72,2.72,0,0,1-.72-2V96.31h-1.33V94.24h.67a.91.91,0,0,0,.74-.26,1.26,1.26,0,0,0,.19-.75V91.68h2.4v2.56h1.87v2.07h-1.87v5.31h1.73v2.07Z" transform="translate(1 26)"/><path d="M190.44,103.9a4.85,4.85,0,0,1-1.93-.35,3.83,3.83,0,0,1-1.43-1,4,4,0,0,1-.88-1.56,6.54,6.54,0,0,1-.3-2,6.7,6.7,0,0,1,.29-2,4.2,4.2,0,0,1,.85-1.56,3.85,3.85,0,0,1,1.4-1,4.86,4.86,0,0,1,1.89-.35,4.52,4.52,0,0,1,2,.4,3.64,3.64,0,0,1,1.37,1.06,4.31,4.31,0,0,1,.78,1.54,6.83,6.83,0,0,1,.24,1.82v.8h-6.07v.14a2.05,2.05,0,0,0,.51,1.47,2,2,0,0,0,1.58.55,2.5,2.5,0,0,0,1.35-.33,5.22,5.22,0,0,0,1-.8l1.34,1.66a4.25,4.25,0,0,1-1.65,1.16A6.22,6.22,0,0,1,190.44,103.9ZM190.38,96a1.61,1.61,0,0,0-1.27.53,2.14,2.14,0,0,0-.46,1.42v.14H192v-.16a2.32,2.32,0,0,0-.38-1.4A1.4,1.4,0,0,0,190.38,96Z" transform="translate(1 26)"/><path d="M196.61,103.69V94.24h2.66v2.05h.09a3,3,0,0,1,.25-.77,2.33,2.33,0,0,1,.48-.65,2.12,2.12,0,0,1,.71-.46,2.45,2.45,0,0,1,1-.17h.46v2.48h-.66a3.73,3.73,0,0,0-1.74.31,1.16,1.16,0,0,0-.57,1.13v5.53Z" transform="translate(1 26)"/><path d="M208.13,103.69V94.24h2.66v2.05h.09a3,3,0,0,1,.25-.77,2.33,2.33,0,0,1,.48-.65,2.12,2.12,0,0,1,.71-.46,2.44,2.44,0,0,1,1-.17h.47v2.48h-.66a3.73,3.73,0,0,0-1.74.31,1.16,1.16,0,0,0-.57,1.13v5.53Z" transform="translate(1 26)"/><path d="M221,102.1h-.09a4.37,4.37,0,0,1-.33.69,2.59,2.59,0,0,1-.53.57,2.67,2.67,0,0,1-.77.4,3.44,3.44,0,0,1-1,.14,2.62,2.62,0,0,1-2.2-1,4.4,4.4,0,0,1-.75-2.76V94.24H218v5.7a2.45,2.45,0,0,0,.3,1.33,1.13,1.13,0,0,0,1.05.47,2.2,2.2,0,0,0,.61-.09,1.69,1.69,0,0,0,.54-.26,1.25,1.25,0,0,0,.37-.42,1.16,1.16,0,0,0,.15-.6V94.24h2.66v9.45H221Z" transform="translate(1 26)"/><path d="M228.77,103.69a2.32,2.32,0,0,1-2.64-2.6V90.37h2.66v11.25H230v2.07Z" transform="translate(1 26)"/><path d="M235.52,103.9a4.84,4.84,0,0,1-1.92-.35,3.83,3.83,0,0,1-1.43-1,4.12,4.12,0,0,1-.89-1.56,6.86,6.86,0,0,1-.29-2,6.71,6.71,0,0,1,.28-2,4.37,4.37,0,0,1,.86-1.56,3.9,3.9,0,0,1,1.39-1,5,5,0,0,1,1.9-.35,4.58,4.58,0,0,1,2,.4,3.64,3.64,0,0,1,1.37,1.06,4.29,4.29,0,0,1,.77,1.54,6.45,6.45,0,0,1,.25,1.82v.8h-6.07v.14a2.05,2.05,0,0,0,.51,1.47,2,2,0,0,0,1.58.55,2.5,2.5,0,0,0,1.35-.33,5.22,5.22,0,0,0,1-.8l1.33,1.66a4.21,4.21,0,0,1-1.64,1.16A6.23,6.23,0,0,1,235.52,103.9ZM235.47,96a1.61,1.61,0,0,0-1.27.53,2.09,2.09,0,0,0-.46,1.42v.14h3.31v-.16a2.39,2.39,0,0,0-.38-1.4A1.4,1.4,0,0,0,235.47,96Z" transform="translate(1 26)"/><path d="M244.9,103.9a5,5,0,0,1-4-1.69l1.57-1.58a4.22,4.22,0,0,0,1.12.88,2.93,2.93,0,0,0,1.38.32,1.86,1.86,0,0,0,1.1-.24.81.81,0,0,0,.31-.66c0-.44-.32-.71-1-.79l-1-.13q-3.19-.39-3.19-2.91a3,3,0,0,1,.26-1.25,2.7,2.7,0,0,1,.74-1,3.45,3.45,0,0,1,1.15-.63A4.8,4.8,0,0,1,244.9,94a7.35,7.35,0,0,1,1.31.1,4.53,4.53,0,0,1,1,.29,3.24,3.24,0,0,1,.81.47,6.86,6.86,0,0,1,.73.62l-1.53,1.56a3.7,3.7,0,0,0-1-.71,2.84,2.84,0,0,0-1.17-.26,1.61,1.61,0,0,0-1,.22.67.67,0,0,0-.28.57.8.8,0,0,0,.2.59,1.45,1.45,0,0,0,.79.29l1.06.15c2.07.27,3.11,1.22,3.11,2.84a2.83,2.83,0,0,1-1.11,2.26,4,4,0,0,1-1.27.66A5.81,5.81,0,0,1,244.9,103.9Z" transform="translate(1 26)"/><path d="M47.91,147.1a4.52,4.52,0,0,1-3.72-1.63,7.39,7.39,0,0,1-1.34-4.79,7.72,7.72,0,0,1,1.34-4.87,4.43,4.43,0,0,1,3.72-1.7,4.38,4.38,0,0,1,4.32,2.73l-1.22.74A3.51,3.51,0,0,0,49.86,136a3.16,3.16,0,0,0-2-.58,3.25,3.25,0,0,0-1.45.31,3,3,0,0,0-1.08.87,4,4,0,0,0-.67,1.36,6,6,0,0,0-.24,1.76v1.88a4.7,4.7,0,0,0,.9,3,3.11,3.11,0,0,0,2.54,1.1,3.24,3.24,0,0,0,2-.62,3.6,3.6,0,0,0,1.19-1.65l1.2.76a4.78,4.78,0,0,1-1.71,2.09A4.71,4.71,0,0,1,47.91,147.1Z" transform="translate(1 26)"/><path d="M54.52,133.57H56v5.52H56a3.07,3.07,0,0,1,1-1.24,2.73,2.73,0,0,1,1.67-.47,2.88,2.88,0,0,1,2.27.93,3.77,3.77,0,0,1,.84,2.62v6H60.33v-5.72c0-1.67-.7-2.51-2.1-2.51a3.34,3.34,0,0,0-.84.11,2.53,2.53,0,0,0-.73.32,1.54,1.54,0,0,0-.7,1.34v6.46H54.52Z" transform="translate(1 26)"/><path d="M68.23,147.1a4.08,4.08,0,0,1-1.71-.34,3.65,3.65,0,0,1-1.32-1,4.55,4.55,0,0,1-.85-1.53,7,7,0,0,1,0-4,4.33,4.33,0,0,1,.85-1.54,3.68,3.68,0,0,1,1.32-1,4.24,4.24,0,0,1,1.71-.34,4.06,4.06,0,0,1,1.68.34,3.68,3.68,0,0,1,1.26.95,4.19,4.19,0,0,1,.8,1.42,5.82,5.82,0,0,1,.28,1.81v.68H65.57V143a3.07,3.07,0,0,0,.19,1.1,2.37,2.37,0,0,0,.54.89,2.42,2.42,0,0,0,.86.6,3,3,0,0,0,1.16.22,2.8,2.8,0,0,0,1.54-.42,2.71,2.71,0,0,0,1-1.19l1,.75a3.54,3.54,0,0,1-1.41,1.54A4.15,4.15,0,0,1,68.23,147.1Zm0-8.51a2.92,2.92,0,0,0-1.08.2,2.46,2.46,0,0,0-.83.59,2.57,2.57,0,0,0-.55.88,3.1,3.1,0,0,0-.2,1.12v.12H70.7v-.19a2.8,2.8,0,0,0-.68-2A2.31,2.31,0,0,0,68.23,138.59Z" transform="translate(1 26)"/><path d="M78.08,147.1a4.27,4.27,0,0,1-1.75-.34,3.58,3.58,0,0,1-1.3-1,4.15,4.15,0,0,1-.81-1.53,7.39,7.39,0,0,1,0-4A4.15,4.15,0,0,1,75,138.7a3.61,3.61,0,0,1,1.3-1,4.44,4.44,0,0,1,1.75-.34,3.67,3.67,0,0,1,2.22.61,3.58,3.58,0,0,1,1.25,1.57l-1.2.61a2.19,2.19,0,0,0-.83-1.11,2.42,2.42,0,0,0-1.44-.4,2.81,2.81,0,0,0-1.13.21,2.19,2.19,0,0,0-.81.57,2.41,2.41,0,0,0-.49.89,3.61,3.61,0,0,0-.16,1.12V143a3,3,0,0,0,.65,2,2.41,2.41,0,0,0,1.94.79,2.62,2.62,0,0,0,2.52-1.62l1,.7a3.68,3.68,0,0,1-1.34,1.6A4,4,0,0,1,78.08,147.1Z" transform="translate(1 26)"/><path d="M83.68,133.57h1.44V142h.07l1.42-1.59,2.63-2.82H91l-3.44,3.67,3.78,5.62H89.58l-3.08-4.74-1.38,1.43v3.31H83.68Z" transform="translate(1 26)"/><path d="M97.92,138.88H96.4V137.6h1.52v-1.87a2.33,2.33,0,0,1,.5-1.57,1.89,1.89,0,0,1,1.53-.59h1.4v1.27h-2v2.76h2v1.28h-2v8H97.92Z" transform="translate(1 26)"/><path d="M106.68,147.1a4.18,4.18,0,0,1-1.71-.34,3.65,3.65,0,0,1-1.32-1,4.75,4.75,0,0,1-.86-1.53,6.82,6.82,0,0,1,0-4,4.5,4.5,0,0,1,.86-1.54,3.68,3.68,0,0,1,1.32-1,4.35,4.35,0,0,1,1.71-.34,4.23,4.23,0,0,1,1.7.34,3.89,3.89,0,0,1,1.33,1,4.34,4.34,0,0,1,.86,1.54,6.61,6.61,0,0,1,0,4,4.57,4.57,0,0,1-.86,1.53,3.87,3.87,0,0,1-1.33,1A4.07,4.07,0,0,1,106.68,147.1Zm0-1.27a2.63,2.63,0,0,0,1.91-.73,2.94,2.94,0,0,0,.74-2.19v-1.33a3,3,0,0,0-.74-2.2,2.89,2.89,0,0,0-3.82,0,3,3,0,0,0-.73,2.2v1.33a2.94,2.94,0,0,0,.73,2.19A2.64,2.64,0,0,0,106.68,145.83Z" transform="translate(1 26)"/><path d="M113.25,146.89V137.6h1.44v1.71h.09a2.88,2.88,0,0,1,.9-1.19,2.75,2.75,0,0,1,1.78-.52H118V139h-.84a3.3,3.3,0,0,0-1.83.44,1.29,1.29,0,0,0-.66,1.11v6.3Z" transform="translate(1 26)"/><path d="M130.86,146.89a1.47,1.47,0,0,1-1.17-.43,2.19,2.19,0,0,1-.44-1.08h-.09a2.42,2.42,0,0,1-1,1.29,3.13,3.13,0,0,1-1.68.43,3.26,3.26,0,0,1-2.29-.75,2.66,2.66,0,0,1-.82-2.06,2.34,2.34,0,0,1,1-2,5.11,5.11,0,0,1,3-.7h1.83v-.92a2,2,0,0,0-.54-1.51,2.29,2.29,0,0,0-1.65-.53,2.52,2.52,0,0,0-1.42.38,3.15,3.15,0,0,0-.94,1l-.86-.81a3.34,3.34,0,0,1,1.2-1.29,4.49,4.49,0,0,1,4.72.3,2.92,2.92,0,0,1,.93,2.3v5.1h1.07v1.28Zm-4.14-1a3.44,3.44,0,0,0,1-.13,2.28,2.28,0,0,0,.77-.36,1.6,1.6,0,0,0,.5-.54,1.26,1.26,0,0,0,.18-.66v-1.53h-1.9a3.46,3.46,0,0,0-1.81.36,1.15,1.15,0,0,0-.57,1v.38a1.26,1.26,0,0,0,.49,1.06A2.19,2.19,0,0,0,126.72,145.88Z" transform="translate(1 26)"/><path d="M137.17,147.1a4.22,4.22,0,0,1-1.74-.34,3.62,3.62,0,0,1-1.31-1,4.46,4.46,0,0,1-.81-1.53,7.39,7.39,0,0,1,0-4,4.46,4.46,0,0,1,.81-1.53,3.64,3.64,0,0,1,1.31-1,4.39,4.39,0,0,1,1.74-.34,3.68,3.68,0,0,1,2.23.61,3.73,3.73,0,0,1,1.25,1.57l-1.21.61a2.14,2.14,0,0,0-.83-1.11,2.42,2.42,0,0,0-1.44-.4,2.81,2.81,0,0,0-1.13.21,2.37,2.37,0,0,0-.81.57,2.41,2.41,0,0,0-.49.89,3.93,3.93,0,0,0-.16,1.12V143a3,3,0,0,0,.66,2,2.39,2.39,0,0,0,1.93.79,2.6,2.6,0,0,0,2.52-1.62l1.05.7a3.74,3.74,0,0,1-1.34,1.6A4,4,0,0,1,137.17,147.1Z" transform="translate(1 26)"/><path d="M146.12,147.1a4.27,4.27,0,0,1-1.75-.34,3.58,3.58,0,0,1-1.3-1,4.15,4.15,0,0,1-.81-1.53,7.39,7.39,0,0,1,0-4,4.15,4.15,0,0,1,.81-1.53,3.61,3.61,0,0,1,1.3-1,4.44,4.44,0,0,1,1.75-.34,3.67,3.67,0,0,1,2.22.61,3.58,3.58,0,0,1,1.25,1.57l-1.2.61a2.19,2.19,0,0,0-.83-1.11,2.42,2.42,0,0,0-1.44-.4,2.81,2.81,0,0,0-1.13.21,2.19,2.19,0,0,0-.81.57,2.41,2.41,0,0,0-.49.89,3.61,3.61,0,0,0-.16,1.12V143a3,3,0,0,0,.65,2,2.41,2.41,0,0,0,1.94.79,2.62,2.62,0,0,0,2.52-1.62l1,.7a3.68,3.68,0,0,1-1.34,1.6A4,4,0,0,1,146.12,147.1Z" transform="translate(1 26)"/><path d="M155.12,147.1a4.14,4.14,0,0,1-1.71-.34,3.57,3.57,0,0,1-1.32-1,4.75,4.75,0,0,1-.86-1.53,6.82,6.82,0,0,1,0-4,4.5,4.5,0,0,1,.86-1.54,3.59,3.59,0,0,1,1.32-1,4.31,4.31,0,0,1,1.71-.34,4.26,4.26,0,0,1,1.7.34,3.76,3.76,0,0,1,1.32,1,4.36,4.36,0,0,1,.87,1.54,6.82,6.82,0,0,1,0,4,4.59,4.59,0,0,1-.87,1.53,3.74,3.74,0,0,1-1.32,1A4.1,4.1,0,0,1,155.12,147.1Zm0-1.27a2.63,2.63,0,0,0,1.91-.73,2.94,2.94,0,0,0,.74-2.19v-1.33a3,3,0,0,0-.74-2.2,2.89,2.89,0,0,0-3.82,0,3,3,0,0,0-.74,2.2v1.33a2.94,2.94,0,0,0,.74,2.19A2.63,2.63,0,0,0,155.12,145.83Z" transform="translate(1 26)"/><path d="M167.41,145.39h-.07a3.25,3.25,0,0,1-.35.63,2.47,2.47,0,0,1-.51.56,2.35,2.35,0,0,1-.74.38,3.08,3.08,0,0,1-1,.14,3,3,0,0,1-2.28-.92,3.74,3.74,0,0,1-.85-2.62v-6H163v5.72c0,1.67.71,2.51,2.12,2.51a3.34,3.34,0,0,0,.84-.11,2.37,2.37,0,0,0,.72-.33,1.57,1.57,0,0,0,.69-1.35V137.6h1.44v9.29h-1.44Z" transform="translate(1 26)"/><path d="M171.91,146.89V137.6h1.44v1.49h.07a3,3,0,0,1,1-1.24,2.7,2.7,0,0,1,1.66-.47,2.92,2.92,0,0,1,2.28.93,3.77,3.77,0,0,1,.84,2.62v6h-1.44v-5.72c0-1.67-.71-2.51-2.11-2.51a3.34,3.34,0,0,0-.84.11,2.53,2.53,0,0,0-.73.32,1.78,1.78,0,0,0-.51.55,1.68,1.68,0,0,0-.19.79v6.46Z" transform="translate(1 26)"/><path d="M184.19,146.89a1.42,1.42,0,0,1-1.14-.43,1.54,1.54,0,0,1-.39-1.1v-6.48h-1.53V137.6H182a.83.83,0,0,0,.64-.19,1,1,0,0,0,.17-.66V135h1.3v2.58h2v1.28h-2v6.73H186v1.28Z" transform="translate(1 26)"/><path d="M196.16,147.1a4.27,4.27,0,0,1-1.75-.34,3.58,3.58,0,0,1-1.3-1,4.15,4.15,0,0,1-.81-1.53,7.39,7.39,0,0,1,0-4,4.15,4.15,0,0,1,.81-1.53,3.61,3.61,0,0,1,1.3-1,4.44,4.44,0,0,1,1.75-.34,3.67,3.67,0,0,1,2.22.61,3.58,3.58,0,0,1,1.25,1.57l-1.2.61a2.19,2.19,0,0,0-.83-1.11,2.47,2.47,0,0,0-1.44-.4,2.9,2.9,0,0,0-1.14.21,2.37,2.37,0,0,0-.81.57,2.54,2.54,0,0,0-.48.89,3.61,3.61,0,0,0-.16,1.12V143a3,3,0,0,0,.65,2,2.41,2.41,0,0,0,1.94.79,2.62,2.62,0,0,0,2.52-1.62l1,.7a3.68,3.68,0,0,1-1.34,1.6A4,4,0,0,1,196.16,147.1Z" transform="translate(1 26)"/><path d="M205.16,147.1a4.11,4.11,0,0,1-1.71-.34,3.69,3.69,0,0,1-1.33-1,4.73,4.73,0,0,1-.85-1.53,6.61,6.61,0,0,1,0-4,4.48,4.48,0,0,1,.85-1.54,3.71,3.71,0,0,1,1.33-1,4.45,4.45,0,0,1,3.41,0,3.76,3.76,0,0,1,1.32,1,4.52,4.52,0,0,1,.87,1.54,6.82,6.82,0,0,1,0,4,4.77,4.77,0,0,1-.87,1.53,3.74,3.74,0,0,1-1.32,1A4.1,4.1,0,0,1,205.16,147.1Zm0-1.27a2.64,2.64,0,0,0,1.91-.73,2.94,2.94,0,0,0,.73-2.19v-1.33a3,3,0,0,0-.73-2.2,2.89,2.89,0,0,0-3.82,0,3,3,0,0,0-.74,2.2v1.33a2.94,2.94,0,0,0,.74,2.19A2.63,2.63,0,0,0,205.16,145.83Z" transform="translate(1 26)"/><path d="M211.73,146.89V137.6h1.44v1.49h.07a4.68,4.68,0,0,1,.37-.66,2.62,2.62,0,0,1,.5-.55,2.43,2.43,0,0,1,.7-.36,2.84,2.84,0,0,1,.93-.14,3.38,3.38,0,0,1,1.69.44,2.66,2.66,0,0,1,1.16,1.44h0a2.81,2.81,0,0,1,2.83-1.88,2.76,2.76,0,0,1,2.22.93,3.86,3.86,0,0,1,.8,2.62v6H223v-5.72a3.08,3.08,0,0,0-.48-1.88,1.84,1.84,0,0,0-1.55-.63,3.12,3.12,0,0,0-.82.11,2.19,2.19,0,0,0-.69.32,1.61,1.61,0,0,0-.49.55,1.67,1.67,0,0,0-.18.79v6.46h-1.44v-5.72a3,3,0,0,0-.49-1.88,1.77,1.77,0,0,0-1.51-.63,3.26,3.26,0,0,0-.83.11,2.35,2.35,0,0,0-.7.32,1.72,1.72,0,0,0-.49.55,1.57,1.57,0,0,0-.19.79v6.46Z" transform="translate(1 26)"/><path d="M227.44,137.6h1.44v1.49H229A2.59,2.59,0,0,1,230,137.8a3.12,3.12,0,0,1,1.66-.42,3.65,3.65,0,0,1,1.57.34,3.53,3.53,0,0,1,1.2,1,4.56,4.56,0,0,1,.75,1.53,7.94,7.94,0,0,1,0,4,4.56,4.56,0,0,1-.75,1.53,3.41,3.41,0,0,1-2.77,1.31,2.82,2.82,0,0,1-2.72-1.71h-.07v5.1h-1.44Zm3.84,8.23a2.49,2.49,0,0,0,1.92-.77,2.89,2.89,0,0,0,.7-2v-1.59a2.85,2.85,0,0,0-.7-2,2.49,2.49,0,0,0-1.92-.77,3.12,3.12,0,0,0-.93.14,2.5,2.5,0,0,0-.77.37,1.75,1.75,0,0,0-.51.57,1.48,1.48,0,0,0-.19.71v3.47a1.73,1.73,0,0,0,.19.81,1.85,1.85,0,0,0,.51.6,2.5,2.5,0,0,0,.77.37A3.48,3.48,0,0,0,231.28,145.83Z" transform="translate(1 26)"/><path d="M239.41,146.89a1.45,1.45,0,0,1-1.14-.43,1.5,1.5,0,0,1-.39-1.07V133.57h1.44v12h1.37v1.28Z" transform="translate(1 26)"/><path d="M243.5,135.42a.88.88,0,0,1-.68-.22.83.83,0,0,1-.2-.59v-.23a.83.83,0,0,1,.2-.59.88.88,0,0,1,.68-.22.87.87,0,0,1,.67.22.84.84,0,0,1,.21.59v.23a.84.84,0,0,1-.21.59A.87.87,0,0,1,243.5,135.42Zm-.72,2.18h1.44v9.29h-1.44Z" transform="translate(1 26)"/><path d="M254,146.89a1.43,1.43,0,0,1-1.16-.43,2.2,2.2,0,0,1-.45-1.08h-.09a2.42,2.42,0,0,1-1,1.29,3.13,3.13,0,0,1-1.68.43,3.26,3.26,0,0,1-2.29-.75,2.66,2.66,0,0,1-.82-2.06,2.34,2.34,0,0,1,1-2,5.11,5.11,0,0,1,3-.7h1.83v-.92a2,2,0,0,0-.54-1.51,2.27,2.27,0,0,0-1.65-.53,2.49,2.49,0,0,0-1.41.38,3.07,3.07,0,0,0-.95,1l-.86-.81a3.34,3.34,0,0,1,1.2-1.29,4.49,4.49,0,0,1,4.72.3,2.93,2.93,0,0,1,.94,2.3v5.1h1.06v1.28Zm-4.14-1a3.44,3.44,0,0,0,1-.13,2.19,2.19,0,0,0,.77-.36,1.63,1.63,0,0,0,.51-.54,1.35,1.35,0,0,0,.17-.66v-1.53h-1.9a3.49,3.49,0,0,0-1.81.36,1.15,1.15,0,0,0-.57,1v.38a1.26,1.26,0,0,0,.5,1.06A2.16,2.16,0,0,0,249.89,145.88Z" transform="translate(1 26)"/><path d="M256.89,146.89V137.6h1.44v1.49h.07a3.07,3.07,0,0,1,1-1.24,2.73,2.73,0,0,1,1.67-.47,2.92,2.92,0,0,1,2.28.93,3.81,3.81,0,0,1,.83,2.62v6H262.7v-5.72c0-1.67-.7-2.51-2.1-2.51a3.34,3.34,0,0,0-.84.11,2.53,2.53,0,0,0-.73.32,1.67,1.67,0,0,0-.51.55,1.57,1.57,0,0,0-.19.79v6.46Z" transform="translate(1 26)"/><path d="M270.57,147.1a4.27,4.27,0,0,1-1.75-.34,3.58,3.58,0,0,1-1.3-1,4.15,4.15,0,0,1-.81-1.53,7.39,7.39,0,0,1,0-4,4.15,4.15,0,0,1,.81-1.53,3.61,3.61,0,0,1,1.3-1,4.44,4.44,0,0,1,1.75-.34,3.67,3.67,0,0,1,2.22.61,3.58,3.58,0,0,1,1.25,1.57l-1.2.61a2.19,2.19,0,0,0-.83-1.11,2.47,2.47,0,0,0-1.44-.4,2.9,2.9,0,0,0-1.14.21,2.37,2.37,0,0,0-.81.57,2.54,2.54,0,0,0-.48.89,3.61,3.61,0,0,0-.16,1.12V143a3,3,0,0,0,.65,2,2.41,2.41,0,0,0,1.94.79,2.62,2.62,0,0,0,2.52-1.62l1,.7a3.68,3.68,0,0,1-1.34,1.6A4,4,0,0,1,270.57,147.1Z" transform="translate(1 26)"/><path d="M279.55,147.1a4.13,4.13,0,0,1-1.72-.34,3.62,3.62,0,0,1-1.31-1,4.55,4.55,0,0,1-.85-1.53,6.82,6.82,0,0,1,0-4,4.33,4.33,0,0,1,.85-1.54,3.64,3.64,0,0,1,1.31-1,4.29,4.29,0,0,1,1.72-.34,4,4,0,0,1,1.67.34,3.5,3.5,0,0,1,1.26.95,4.21,4.21,0,0,1,.81,1.42,5.82,5.82,0,0,1,.27,1.81v.68h-6.67V143a3.07,3.07,0,0,0,.19,1.1,2.37,2.37,0,0,0,.54.89,2.42,2.42,0,0,0,.86.6,3,3,0,0,0,1.16.22,2.8,2.8,0,0,0,1.54-.42,2.71,2.71,0,0,0,1-1.19l1,.75a3.58,3.58,0,0,1-1.4,1.54A4.17,4.17,0,0,1,279.55,147.1Zm0-8.51a2.85,2.85,0,0,0-1.08.2,2.61,2.61,0,0,0-.84.59,2.92,2.92,0,0,0-.55.88,3.1,3.1,0,0,0-.19,1.12v.12H282v-.19a2.85,2.85,0,0,0-.68-2A2.32,2.32,0,0,0,279.55,138.59Z" transform="translate(1 26)"/><path d="M290.19,146.89V137.6h1.44v1.71h.09a2.88,2.88,0,0,1,.9-1.19,2.74,2.74,0,0,1,1.78-.52H295V139h-.85a3.24,3.24,0,0,0-1.82.44,1.29,1.29,0,0,0-.66,1.11v6.3Z" transform="translate(1 26)"/><path d="M302.52,145.39h-.07a3.94,3.94,0,0,1-.36.63,2.08,2.08,0,0,1-.51.56,2.25,2.25,0,0,1-.74.38,3,3,0,0,1-1,.14,3,3,0,0,1-2.29-.92,3.79,3.79,0,0,1-.85-2.62v-6h1.44v5.72c0,1.67.71,2.51,2.13,2.51a3.26,3.26,0,0,0,.83-.11,2.27,2.27,0,0,0,.72-.33,1.68,1.68,0,0,0,.51-.55,1.55,1.55,0,0,0,.19-.8V137.6H304v9.29h-1.44Z" transform="translate(1 26)"/><path d="M308.55,146.89a1.46,1.46,0,0,1-1.15-.43,1.54,1.54,0,0,1-.38-1.07V133.57h1.44v12h1.37v1.28Z" transform="translate(1 26)"/><path d="M315.41,147.1a4.13,4.13,0,0,1-1.72-.34,3.74,3.74,0,0,1-1.32-1,4.53,4.53,0,0,1-.84-1.53,6.82,6.82,0,0,1,0-4,4.31,4.31,0,0,1,.84-1.54,3.76,3.76,0,0,1,1.32-1,4.29,4.29,0,0,1,1.72-.34,4,4,0,0,1,1.67.34,3.68,3.68,0,0,1,1.26.95,4.19,4.19,0,0,1,.8,1.42,5.54,5.54,0,0,1,.28,1.81v.68h-6.68V143a3.07,3.07,0,0,0,.19,1.1,2.65,2.65,0,0,0,.54.89,2.42,2.42,0,0,0,.86.6,3.09,3.09,0,0,0,1.17.22,2.76,2.76,0,0,0,1.53-.42,2.71,2.71,0,0,0,1-1.19l1,.75a3.54,3.54,0,0,1-1.41,1.54A4.14,4.14,0,0,1,315.41,147.1Zm0-8.51a2.85,2.85,0,0,0-1.08.2,2.41,2.41,0,0,0-.84.59,2.57,2.57,0,0,0-.55.88,3.1,3.1,0,0,0-.2,1.12v.12h5.13v-.19a2.84,2.84,0,0,0-.67-2A2.32,2.32,0,0,0,315.41,138.59Z" transform="translate(1 26)"/><path d="M324.58,147.1a4.31,4.31,0,0,1-2.16-.49,4.88,4.88,0,0,1-1.51-1.32l1-.83a4.2,4.2,0,0,0,1.2,1,3.12,3.12,0,0,0,1.55.37,2.25,2.25,0,0,0,1.43-.4,1.3,1.3,0,0,0,.52-1.11,1.36,1.36,0,0,0-.35-.93,2.12,2.12,0,0,0-1.27-.53l-.74-.11a5.93,5.93,0,0,1-1.19-.28,3.13,3.13,0,0,1-.94-.5,2.13,2.13,0,0,1-.63-.79,2.53,2.53,0,0,1-.23-1.11,2.65,2.65,0,0,1,.25-1.2,2.32,2.32,0,0,1,.7-.85,3,3,0,0,1,1.05-.52,5,5,0,0,1,1.31-.17,4,4,0,0,1,1.9.4,4.14,4.14,0,0,1,1.34,1.1l-.95.86a2.92,2.92,0,0,0-.9-.78,2.86,2.86,0,0,0-1.49-.35,2.08,2.08,0,0,0-1.36.38,1.3,1.3,0,0,0-.46,1.06,1.11,1.11,0,0,0,.46,1,3.49,3.49,0,0,0,1.32.45l.72.1a3.92,3.92,0,0,1,2.2.9,2.33,2.33,0,0,1,.64,1.72,2.62,2.62,0,0,1-.92,2.12A3.81,3.81,0,0,1,324.58,147.1Z" transform="translate(1 26)"/><polygon points="48.02 51.79 44.8 48.56 43.04 50.31 48.02 55.3 58 45.33 56.24 43.57 48.02 51.79"/><path d="M49.52,42.51l-7.7-4.11a13.66,13.66,0,0,1-7.26-12.1V10.09A2.48,2.48,0,0,1,37.05,7.6H62a2.49,2.49,0,0,1,2.49,2.49V26.3a13.68,13.68,0,0,1-7.26,12.1ZM37.05,10.09V26.3A11.22,11.22,0,0,0,43,36.2l6.53,3.48L56,36.2a11.23,11.23,0,0,0,6-9.9V10.09Z" transform="translate(1 26)"/><rect id="_Transparent_Rectangle_" data-name=" Transparent Rectangle " class="cls-2" x="30.57" y="31.1" width="39.9" height="39.9"/></g></svg>