<?xml version="1.0" encoding="UTF-8"?><svg xmlns="http://www.w3.org/2000/svg" viewBox="0 0 800.72 411.94"><defs><style>.cls-1{font-size:10px;}.cls-1,.cls-2{fill:#2d3f49;font-family:MyriadPro-Regular, 'Myriad Pro';}.cls-3{letter-spacing:0em;}.cls-4{letter-spacing:-.03em;}.cls-5{letter-spacing:.02em;}.cls-6{fill:#5aa845;stroke-width:.25px;}.cls-6,.cls-7,.cls-8{stroke-miterlimit:10;}.cls-6,.cls-8{stroke:#394b54;}.cls-2{font-size:10.33px;}.cls-9{letter-spacing:-.03em;}.cls-10{letter-spacing:0em;}.cls-7{fill:#fff;stroke:#5f93ce;}.cls-8{fill:none;stroke-linecap:round;stroke-width:.5px;}.cls-11{letter-spacing:0em;}.cls-12{letter-spacing:0em;}.cls-13{letter-spacing:-.01em;}.cls-14{fill:#8c9ba5;}</style></defs><g id="Visual_Elements"><g id="layer1"><path class="cls-14" d="M103.49,27.95c.58-.22,1.48,.11,2,.74,.52,.63,1.18,1.15,1.46,1.15,.97,0,6.45-4.03,6.45-4.75,0-1.23-1.88-1.96-4.37-1.7-3.16,.33-3.83,.82-2.8,2.06,.63,.75,.55,1.15-.3,1.47-.64,.24-1.59-.09-2.13-.74-.62-.75-1.26-.9-1.74-.42-1.01,1.01,.09,2.7,1.43,2.19Zm7.13-2.41c.87-.22,.41-.3-1.03-.17-1.44,.13-2.8-.07-3.03-.43-.23-.36,.68-.66,2.02-.66s2.67-.09,2.96-.2c.29-.11,.67,.21,.83,.71,.17,.5-.92,1.66-2.41,2.58-3.03,1.87-3.44,1.97-4.04,1-.43-.7,1.93-2.12,4.7-2.83Zm-8,.32c.19,0,.57,.36,.84,.79,.27,.44,.11,.79-.35,.79s-.84-.36-.84-.79,.16-.79,.35-.79Z"/><path class="cls-14" d="M121.08,21.68c.8,.59,1.39,1.32,1.31,1.63-.08,.31,.45,.48,1.19,.39,2.52-.33,3.63,.45,2.53,1.77-.93,1.12-.74,1.43,.6,.98,.33-.11,.51-.47,.4-.79-.39-1.17,1.17-.57,2.58,.99,1.11,1.22,1.69,1.38,2.52,.68,.9-.75,.76-1.32-.81-3.38-2.4-3.13-8.88-5.76-10.62-4.32-1.02,.85-.98,1.11,.29,2.04Zm4.54-.9c2.17,.74,4.33,2.17,5.28,3.51,2.22,3.12,.95,3.47-2.4,.66-2-1.68-3.3-2.21-4.64-1.87-1.11,.28-1.66,.15-1.37-.32,.26-.43-.11-1.11-.83-1.51-2.5-1.4,.27-1.72,3.96-.47Z"/><path class="cls-14" d="M89.96,35.1c.62-.24,1.37-.04,1.67,.44,.53,.86,3.43-2.16,3.47-3.62,0-.38,.52-.28,1.13,.23,.88,.73,1.46,.48,2.81-1.23,1.16-1.48,1.44-2.41,.88-2.97-.56-.56-1.12-.52-1.77,.14-.52,.52-1.87,.97-2.98,.99-2.39,.04-8.54,5.1-7.2,5.92,.48,.3,1.39,.35,2.01,.11Zm.5-2.75c1.58-1.39,3.74-2.53,4.8-2.53s2.35-.42,2.86-.94c1.5-1.5,1.85-.33,.48,1.62-.93,1.33-1.51,1.56-2.28,.92-.78-.65-1.41-.25-2.61,1.64-.87,1.37-1.8,2.13-2.08,1.69s-1.3-.6-2.28-.34c-1.43,.37-1.21-.03,1.1-2.06Z"/><path class="cls-14" d="M429.19,137.67c-1.07,1.42-1.1,1.41-.85-.14,.14-.89-.54-2.47-1.51-3.51-1.11-1.19-1.5-2.21-1.05-2.75,.39-.47,.65-1.22,.58-1.65s.58-.79,1.46-.79c1.23,0,1.59-.53,1.59-2.32,0-1.9-.36-2.35-1.99-2.48-2.72-.22-7.83,2.48-8.83,4.66-.62,1.37-.41,2.86,.9,6.38,.95,2.53,2.17,4.77,2.72,4.98,.78,.3,.73,1.14-.26,3.88-1.23,3.42-1.21,3.54,.65,5.52,2.01,2.13,4.22,2.52,7.44,1.29,1.77-.67,1.89-1.02,1.35-3.97-.33-1.78-.37-3.25-.1-3.26,.27-.01-.2-.55-1.05-1.19-1.52-1.15-1.52-1.17,.07-1.17,2.4,0,2.73-.76,1.29-2.96-1.24-1.9-1.34-1.92-2.41-.51Zm1.46,2.67c-2.15,0-2.76,1.33-1.06,2.31,.77,.45,1.19,.83,.92,.84-.27,.01-.23,1.43,.08,3.14,.5,2.75,.37,3.17-1.1,3.57-3.08,.83-4.99,.48-6.49-1.17-1.41-1.56-1.42-1.83-.2-5.22,1.07-2.97,1.1-3.65,.2-3.99-1.48-.57-4.49-8.84-3.89-10.71,.57-1.81,4.69-4.08,7.72-4.27,1.83-.11,2.19,.18,2.19,1.81,0,1.36-.34,1.81-1.13,1.51-.62-.24-1.56,.08-2.08,.71-.52,.63-.68,1.15-.36,1.15s.19,.48-.3,1.08c-.69,.83-.45,1.55,1.01,3.13,1.05,1.13,1.72,2.24,1.49,2.47-.23,.23-.16,1.05,.14,1.84,.51,1.32,.62,1.33,1.53,.09,.91-1.23,1.05-1.22,1.94,.2,.82,1.31,.74,1.53-.59,1.53Z"/><path class="cls-14" d="M138.95,35.77c-1.2,1.22-1.18,1.4,.24,2.46,1.79,1.33,1.55,1.28,3.16,.66,1.78-.68,1.56-2.48-.43-3.54-1.35-.72-1.94-.64-2.98,.42Zm3.65,1.47c-.4,1.21-1.58,1.44-2.96,.57-.85-.53-.94-.99-.33-1.6,1.02-1.02,3.69-.18,3.29,1.03Z"/><path class="cls-14" d="M169.07,44.56c1.02,1.22,5.92,.93,7.42-.45,.84-.77-3.56-3.15-5.84-3.15-2.04,0-2.92,1.99-1.58,3.6Zm5.54-1.62c1.77,1.01,1.81,1.14,.4,1.18-.87,.02-2.31,.23-3.2,.47-1.78,.48-2.76-.16-2.76-1.78,0-1.38,3.04-1.31,5.56,.13Z"/><path class="cls-14" d="M384.74,82.37c-.62,.62-.52,1.53,.33,3.25,.8,1.6,1.45,2.12,1.99,1.59,.44-.44,1.26-.62,1.82-.41,1.71,.65,2.18-1.26,.83-3.33-1.35-2.06-3.52-2.54-4.96-1.09Zm4.22,3.66c-.6-.23-1.41-.11-1.79,.27-.39,.39-1.08-.13-1.59-1.22-.5-1.05-.7-2.1-.46-2.35,.98-.98,3.35-.34,4.12,1.1,1.11,2.08,1.04,2.69-.27,2.19Z"/><path class="cls-14" d="M145.35,35.93c.25,2.13,.68,2.33,5.95,2.87,.95,.1,2.02,.47,2.38,.83,.63,.63,15.96-.06,17.13-.76,.31-.19,.37-.83,.14-1.43-.23-.6-.03-1.33,.45-1.62,.47-.29,.65-.88,.38-1.31-.31-.5-.81-.5-1.4-.02-.51,.42-1.82,.75-2.91,.73-1.09-.02-5.05,.15-8.79,.37-7.02,.41-8.7-.07-9.72-2.79-.35-.93-1.38-1.4-3.13-1.4-3.36-.02-5.33-1.13-3.34-1.89,1-.38,1.15-.78,.53-1.39-.98-.98-2.85-.15-2.16,.97,.25,.41-.26,.74-1.13,.74s-1.82,.37-2.1,.83c-.94,1.52,1.36,3.15,4.44,3.15,2.69,0,3.06,.24,3.28,2.12Zm-7.14-4.42c-.28-.85,.16-.98,1.93-.53,1.26,.32,3.63,.76,5.27,.99,1.67,.23,2.98,.86,2.98,1.43,0,2.39,3.4,3.37,10.34,2.98,3.72-.21,7.65-.37,8.74-.36,1.09,.01,2.52-.39,3.18-.9,1.03-.8,1.05-.74,.13,.43-.58,.75-.83,1.73-.55,2.19,.32,.51-.5,.84-2.12,.85-1.45,.01-5.13,.23-8.2,.47-3.06,.25-5.86,.15-6.23-.22-.36-.37-1.44-.73-2.38-.81-4.16-.34-4.92-.72-5.3-2.64-.34-1.68-.95-2.05-3.91-2.38-2.01-.23-3.67-.87-3.88-1.5Z"/><path class="cls-14" d="M444.03,126.37c-.48-.3-1.77,.35-2.86,1.44-1.68,1.68-1.84,2.25-1.08,3.68,1.09,2.03,1.49,2.08,3.37,.37,1.61-1.46,1.94-4.65,.58-5.49Zm-.87,5.06c-1.29,1.29-1.96,1.2-2.56-.35-.49-1.28,1.49-4.26,2.84-4.26,1.02,0,.8,3.53-.28,4.61Z"/><path class="cls-14" d="M175.02,63.23c.83,1.34,3.92,.57,4.23-1.06,.18-.93-.31-1.6-1.37-1.88-.91-.24-1.47-.72-1.25-1.08,.22-.36,.06-.86-.35-1.12-.41-.26-.96-.13-1.22,.29-.26,.41-.08,.99,.38,1.28,.59,.37,.58,.85-.06,1.61-.5,.6-.66,1.48-.36,1.96Zm2.25-2.26c.78-.15,1.33,.25,1.33,.99s-.68,1.25-1.66,1.25c-1.94,0-1.66-1.86,.33-2.24Z"/><path class="cls-14" d="M139.63,26.27c.81-.98,.61-1.32-1.16-1.99-2.86-1.09-4.05-.24-2.33,1.66,1.65,1.82,2.22,1.87,3.5,.33Zm-2.91-1.75c.8,.3,1.81,.55,2.23,.55s.56,.36,.29,.79c-.71,1.15-1.64,.98-2.88-.55-.96-1.18-.92-1.28,.37-.79Z"/><path class="cls-14" d="M127.5,31.59c-1.32,.96-1.25,1.2,1,3.67,2.94,3.22,5.84,3.25,6.21,.07,.39-3.32-4.4-5.8-7.21-3.74Zm6.58,3.39c0,2.75-2.51,2.66-5.15-.18-1.87-2.02-1.92-2.24-.6-2.83,2.38-1.07,5.75,.69,5.75,3.01Z"/><path class="cls-14" d="M130.11,43.76c1.14,1.37,.51,1.52-1.6,.38-.93-.5-1.66-.51-1.96-.04-.26,.41,1.41,2.14,3.69,3.83,3.89,2.88,4.3,3.01,6.3,2.01,2.86-1.43,3.29-2.89,1.34-4.56-1.14-.98-1.36-1.63-.76-2.23,1.4-1.4-.39-3.96-2.08-2.98-.75,.43-2.39,1.15-3.64,1.6-1.89,.67-2.11,1.01-1.29,1.99Zm6.63-2.42c.22,.56,.03,1.39-.42,1.83-.55,.55-.33,1.3,.71,2.33,1.78,1.78,1.51,3.41-.57,3.41-.8,0-1.58,.3-1.72,.68-.15,.37-1.7-.37-3.44-1.64-4.03-2.93-5.34-4.29-2.96-3.07,2.24,1.15,3.83,.39,2.51-1.2-.72-.87-.69-1.12,.16-1.13,.6,0,2.05-.51,3.22-1.12,1.71-.89,2.21-.91,2.52-.09Z"/><path class="cls-14" d="M670.28,327.44c-.59,.23-1.22-.32-1.47-1.27-.37-1.4-.63-1.51-1.67-.64-1,.83-1.23,.83-1.23,0,0-1.86-4.09-6.53-4.96-5.67-.54,.54-.28,1.54,.78,3.05,2.51,3.56,2.88,5.66,1.4,7.91-1.26,1.92-1.24,2.03,.33,2.44,.91,.24,1.65,1.04,1.65,1.8s.25,1.61,.55,1.91c1.02,1.02,2.23,0,3.08-2.55,.46-1.4,1.08-2.31,1.37-2.02,.71,.71,2.3-3.6,1.69-4.58-.27-.43-.95-.6-1.52-.39Zm.94,1.63c-.29,.77-.54,1.72-.54,2.13s-.41,.64-.91,.53c-.5-.11-1.23,.96-1.61,2.38-.79,2.89-2.25,3.49-2.25,.92,0-.98-.64-1.83-1.55-2.07-1.44-.38-1.46-.54-.33-2.27,1.38-2.1,.96-4.28-1.49-7.75-.86-1.23-1.39-2.41-1.17-2.63,.46-.46,3.24,3.37,4.03,5.55,.42,1.15,.78,1.28,1.62,.58,.85-.7,1.18-.55,1.51,.71,.3,1.15,.82,1.46,1.83,1.07,1.1-.42,1.29-.24,.87,.86Z"/><path class="cls-14" d="M150.83,125c1.67-.22,4.4,.08,6.06,.67,2.01,.72,2.45,1.09,1.32,1.11-1.76,.04-4.74,3.62-3.59,4.33,.36,.22,.49,1.5,.3,2.83s.08,2.96,.62,3.6c1.44,1.73,2.39,.7,2.39-2.63,0-3.52,2.35-7.51,3.86-6.58,.57,.35,.91,1.13,.77,1.74-.14,.61,.1,1.25,.54,1.41s1.26,.98,1.84,1.8c1.31,1.88,2.53,1.2,2.53-1.41,0-1.09,.33-1.78,.74-1.53,1.17,.72,1.88-1.11,.89-2.3-.49-.59-2.4-1.3-4.26-1.58-2.75-.41-3.56-.94-4.42-2.89-.58-1.31-2.13-2.94-3.45-3.62-2.24-1.16-2.5-1.13-4.1,.36-.94,.88-2.71,1.98-3.94,2.45-3.17,1.2-1.87,2.72,1.9,2.21Zm-1.66-1.39c1.09-.47,2.74-1.57,3.66-2.44,1.43-1.34,1.98-1.44,3.74-.64,1.13,.52,2.61,2.1,3.29,3.52,1.03,2.16,1.83,2.7,4.94,3.27,2.04,.38,3.87,1.14,4.05,1.7,.19,.56-.12,.92-.69,.79-.59-.13-1.23,.8-1.5,2.16q-.47,2.38-1.48,.57c-.55-1-1.31-1.62-1.68-1.39-.37,.23-.5-.26-.28-1.1,.26-.99-.16-1.82-1.19-2.37-1.33-.71-1.82-.5-3.03,1.32-.79,1.19-1.64,3.78-1.87,5.75-.27,2.27-.67,3.21-1.08,2.57-.36-.56-.55-1.99-.42-3.18,.13-1.19,0-2.53-.27-2.97-.69-1.12,1.08-3.32,2.96-3.69,4.52-.87-2.5-3.89-7.81-3.36-2.95,.3-3.11,.23-1.35-.53Z"/><path class="cls-14" d="M79.24,115.69c.83,0,1.9,.72,2.37,1.59,.47,.87,1.21,1.59,1.65,1.59,1.38,0-2.75-3.74-4.63-4.19-.98-.24-1.59-.1-1.34,.29,.25,.4,1.13,.72,1.96,.72Z"/><path class="cls-14" d="M163.94,138.83c.75,1.21,2.21,.75,5.45-1.7,1.72-1.3,3.77-2.36,4.57-2.36,1.72,0,4.88-2.93,4.25-3.95-.24-.39-2.67,.43-5.4,1.82-6.61,3.38-9.41,5.33-8.88,6.19Zm8.84-5.44c3.12-1.57,4.76-2.07,4.49-1.36-.24,.61-1.62,1.45-3.08,1.85-1.46,.4-3.87,1.66-5.36,2.8-1.49,1.14-3.17,2.06-3.73,2.06-1.54,0,2.14-2.56,7.69-5.35Z"/><path class="cls-14" d="M67.28,101.79c.88-.55,.47-3.25-.46-2.99-.75,.21-1.04,1.75-.52,2.8,.17,.34,.61,.42,.97,.2Z"/><path class="cls-14" d="M99.47,34.87c-.15,2.41,1.37,3.59,3.01,2.33,.54-.42,1.88-.49,2.97-.17,1.84,.54,1.86,.6,.25,.67-1.84,.08-2.93,1.11-2.08,1.96,.9,.9,4.98,.54,7.92-.68,1.57-.66,3.84-1.19,5.04-1.19,2.31,0,4.44-1.79,3.64-3.07-.26-.42-1.09-.67-1.85-.56s-1.75-.55-2.21-1.46c-1.23-2.46-3.19-2.13-3.08,.52,.07,1.73-.27,2.19-1.61,2.19-.93,0-2.45-.53-3.36-1.17s-3.21-1.27-5.09-1.39c-3.25-.21-3.43-.11-3.56,2.03Zm3.94-1.4c1.76,.3,3.99,1.06,4.96,1.69,.97,.63,2.59,1.04,3.59,.89,1.46-.21,1.8-.71,1.67-2.45-.2-2.71,1.14-2.86,2.13-.24,.54,1.41,1.21,1.86,2.42,1.63,1.06-.2,1.56,.03,1.36,.64-.17,.53-1.72,1.17-3.43,1.44-1.71,.26-4.12,.89-5.35,1.39-1.23,.5-3.38,.88-4.77,.83-2.18-.07-2.28-.15-.7-.6,1.01-.28,1.81-.87,1.77-1.31-.08-1.07-3.88-2.03-4.45-1.12-.91,1.48-2.42,.66-2.42-1.31s.16-2,3.2-1.49Z"/><path class="cls-14" d="M448.6,32.8c-1.43-.21-3.95,.26-5.94,1.12-1.9,.81-4.48,1.48-5.73,1.48-2.39,0-3.75,1.13-2.38,1.98,.46,.28-.14,1.37-1.38,2.54-1.2,1.12-2.09,2.35-1.98,2.74s-.15,.7-.58,.7c-.87,0-3.1,3.94-2.92,5.17,0,.03,.03,.07,.04,.1,.04-.27,.35-.83,.95-1.76,1.93-3.03,2.4-3.31,4.94-2.98,1.94,.26,1.46-.11-1.3-.98-.7-.22-.23-1.07,1.39-2.56,1.9-1.74,2.23-2.44,1.48-3.18-.74-.74-.41-.96,1.52-.96,1.36,0,4.03-.67,5.93-1.48,1.99-.85,4.51-1.33,5.94-1.12,1.51,.22,3.96-.29,6.24-1.3,3.54-1.56,6.92-1.52,4.11,.05-1.93,1.08-10.89,3.84-12.46,3.84-.77,0-2.42,.53-3.67,1.18-2.84,1.47-9.03,8.32-9.03,9.99,0,1.54,1.59,3.62,3.18,4.15,.66,.22-.48,.37-2.53,.32-2.05-.04-3.54-.38-3.31-.74,.68-1.1-1.34-2.92-2.67-2.41-.32,.12-.52,.16-.63,.12,.21,.3,.64,.51,1.12,.51,.62,0,1.28,.46,1.47,1.02,.19,.56,.04,.91-.33,.79-.56-.19-1.07,.37-1.07,1.17,0,.11,1.96,.26,4.36,.34,4.4,.14,6.5-.89,3.84-1.88-3.57-1.32-3.42-3.73,.52-8.1,3.29-3.65,6.41-5.67,8.76-5.67,1.69,0,10.42-2.74,12.8-4.01,1.48-.79,1.56-1.06,.57-2.05-.98-.98-1.64-.91-4.95,.55-2.33,1.03-4.79,1.55-6.3,1.32Z"/><path class="cls-14" d="M306.03,110.42c.62,1.62,.99,1.58,4.91-.56,2.6-1.42,3.25-2.26,3.66-4.75,.44-2.72,.27-3.14-1.68-4.14-1.96-1.02-2.3-.97-3.58,.44-.78,.86-1.09,1.58-.69,1.61,.4,.03-.15,.4-1.2,.82-1.4,.56-1.68,1.01-1.05,1.64s.63,1.26,0,2.26c-.47,.76-.64,1.97-.37,2.68Zm1.38-3.1c.58-.36,.57-.83-.02-1.54-.64-.77-.42-1.14,.92-1.49,.97-.25,1.52-.71,1.22-1.02-.31-.31-.17-1.01,.29-1.58,.62-.75,1.33-.8,2.61-.22,1.44,.65,1.7,1.31,1.44,3.56-.27,2.31-.85,3.01-3.56,4.32-1.78,.86-3.35,1.57-3.49,1.57-.66,0-.14-3.15,.59-3.6Z"/><path class="cls-14" d="M314.64,97.08c.48,.29,.46,.83-.05,1.44-.57,.69-.33,1.38,.82,2.36,1.24,1.07,1.41,1.64,.73,2.47-.62,.74-.63,1.24-.06,1.59,.84,.52,.95,.39,1.13-1.3,.19-1.81,1.69-1.43,1.8,.46,.07,1.3-.4,2.05-1.47,2.33-.87,.23-1.36,.77-1.09,1.21,.27,.44,.12,1.02-.33,1.3-1.23,.76-.14,1.98,1.84,2.05,1.44,.05,1.3,.26-.84,1.19-2.52,1.1-3.1,1.93-2.08,2.96,.28,.28,.82,.31,1.21,.08,.38-.24,2.56-.59,4.84-.78,5.75-.48,6.94-.98,7.81-3.26,.85-2.24,.4-3.44-1.29-3.44-.63,0-1.17-.27-1.21-.6-.23-2.28-.85-3.61-2.84-6.11-1.25-1.56-2.54-2.84-2.88-2.84s-.03-.89,.68-1.98c1.17-1.78,1.17-2.03,.06-2.46-.68-.26-1.62-.24-2.07,.04-1.32,.82-.97-.34,.78-2.57,2.61-3.32,.56-4.01-2.62-.88-2.83,2.79-4.16,5.92-2.85,6.73Zm3.32-6.25c2.85-2.67,3.58-2.4,1.3,.49-1.93,2.45-1.5,3.75,1.02,3.09,1.74-.46,1.75-.43,.4,1.63-1.06,1.62-1.15,2.24-.38,2.73,1.9,1.22,4.61,4.77,4.94,6.47,.47,2.43,1.13,3.3,2.51,3.3,.88,0,1.05,.48,.64,1.79-.81,2.59-2.81,3.52-6.51,3.04-.55-.07-2.25,.21-3.78,.64-3.43,.95-3.67,0-.32-1.27,2.64-.99,2.5-2.6-.22-2.6-1.37,0-1.48-.2-.65-1.19,.54-.66,.68-1.22,.3-1.24-.38-.03,.09-.37,1.05-.75,1.31-.53,1.68-1.25,1.5-2.93-.13-1.26-.72-2.23-1.34-2.23-1.74,0-3.73-2.25-2.92-3.31,.42-.55,.4-1.11-.05-1.39-1.25-.77,0-3.9,2.52-6.25Z"/><path class="cls-14" d="M693.28,64.87c-4.66-2.06-5-2.05-5.89,.14q-.72,1.79-.77,.07c-.12-4.11-10.77-9.49-20.72-10.48-3.72-.37-7.29-.81-7.95-.99-.91-.25-1.14,.29-.99,2.26q.24,3.02-3.16,1.14c-1.86-1.03-4.1-1.41-7.78-1.32-6.92,.16-8.74-.27-8.74-2.07,0-2.44-2.66-3.22-9.25-2.69-4.6,.37-6.23,.23-6.72-.56-.36-.58-1.29-1.05-2.07-1.06s-1.42-.5-1.42-1.11c0-2.05-2.46-2.88-4.91-1.66-3.7,1.85-3.88,1.89-2.75,.52,.92-1.11,.91-1.38-.1-1.77-.16-.06-.36-.11-.6-.16-.51,.17-1.08,.27-1.71,.27-.72,0-1.35-.13-1.9-.35-1.08,.02-2.45-.02-3.53-.12l-2.78-.24,.82-.12c-.42-.1-.8-.25-1.15-.43-.13,.36-.3,.64-.48,.8-.52,.44-.78,1.72-.56,2.86,.34,1.8,.18,2-1.24,1.55-.9-.29-1.85-.17-2.11,.26-.3,.48-1.27,.36-2.56-.31-1.61-.84-2.41-.87-3.56-.15-1.14,.71-1.85,.7-3.09-.07-1.42-.89-1.69-.77-2.37,1-1.04,2.73-2.04,2.53-6.06-1.18-2.53-2.33-3.06-3.18-2.01-3.18,2.17,0,2.57-.82,1.28-2.67-.93-1.33-2.05-1.68-5.62-1.74-3-.05-4.58,.27-4.85,.97-.27,.7-1.9,1.04-4.89,1.03-2.75,0-4.08-.27-3.43-.68,.85-.54,.79-.77-.26-1.18-2.19-.84-8.21-.57-8.81,.39-.37,.6-.83,.4-1.39-.6-.46-.82-.8-1.67-.75-1.89s-.25-.8-.66-1.3c-.5-.6-.31-1.07,.55-1.4,1.02-.39,1.1-.74,.38-1.61-.64-.77-.67-1.27-.08-1.64,1.09-.67,.18-2.2-1.04-1.75-.51,.18-1.5-.17-2.21-.78-1.03-.9-2.04-.95-5.1-.26-2.64,.59-4.07,.6-4.64,.03-.45-.45-1.54-.83-2.41-.83-1.52,0-1.53-.04-.12-1.07,1.58-1.16,1.19-1.61-2.09-2.39-.02,0-.04,0-.06-.01-.66,.34-1.39,.55-2.16,.52-.2,0-.39,.01-.58,.03-.41,.33-.86,.79-1.4,1.43-1.67,1.99-1.89,2.7-1.12,3.63,.81,.97,.63,1.07-1.18,.62-1.37-.34-3.18-.04-5.05,.85-2.13,1.01-3.27,1.16-4.23,.57-.92-.58-2.58-.49-5.6,.29-2.36,.61-5.42,1.11-6.8,1.11-5.76,0-9.97,3.53-6.65,5.59,1.8,1.11,.61,1.35-3,.59-1.85-.39-3.28-1-3.18-1.37,.17-.62-.21-.83-1.5-.83-.27,0-.02,.57,.55,1.26,.93,1.12,.74,1.23-1.69,.99-2.47-.24-2.77-.06-2.99,1.88-.21,1.82,.2,2.34,2.58,3.34,1.56,.65,2.83,1.71,2.83,2.35s.19,1.67,.43,2.29c.26,.67-.07,1.12-.8,1.12-.84,0-1.17-.63-1.03-1.99,.18-1.72-.37-2.23-4.16-3.81-2.4-1-4.03-1.84-3.62-1.86,.42-.02,.33-.47-.2-.99-.73-.73-1.17-.73-1.88-.03-.71,.71-.61,1.05,.39,1.43,.73,.28,1.11,.84,.86,1.26-.28,.45-.88,.41-1.51-.12-.77-.64-1.21-.61-1.65,.09-.37,.59,.3,1.68,1.72,2.82,2.56,2.05,2.27,2.35-.88,.91-1.28-.59-2.25-1.8-2.52-3.2-.56-2.79-1.68-3.59-2.36-1.67-.28,.79-1.02,2.04-1.65,2.77-.9,1.05-.94,1.69-.21,3.05,.51,.95,.73,1.92,.49,2.16-1.05,1.05,1.29,3.4,3.39,3.4,1.23,0,2.78,.63,3.44,1.39,1.46,1.69,2.35,4.97,1.35,4.97-.4,0-.72-.66-.72-1.47,0-1.94-2.8-4.41-4.34-3.82-.67,.26-1.78,1.88-2.48,3.61-.69,1.73-1.77,3.34-2.39,3.58-1.37,.53-1.41,.11-.22-2.11,1.03-1.92,.99-10.51-.06-12.38-.4-.72-.32-2.01,.2-3.15,.73-1.61,.62-2.11-.68-3.07-2.43-1.78-5.35-1.03-6.66,1.7-.62,1.31-1.94,3.01-2.92,3.78-1.67,1.31-1.71,1.57-.64,3.71,.63,1.27,1.68,2.5,2.32,2.75,1.4,.54,1.58,2.88,.23,2.88-.52,0-1.68-.68-2.58-1.52-.98-.91-3.43-1.74-6.07-2.06-4.17-.51-4.51-.42-5.78,1.52-.74,1.13-1.92,2.06-2.62,2.06-.97,0-1.06-.25-.39-1.07,1.43-1.72,.1-2.15-2.14-.68-1.13,.74-3.21,1.74-4.62,2.23-2.26,.78-2.6,.7-2.96-.65-.38-1.44-.54-1.45-2.81-.28-1.32,.68-3.18,1.24-4.13,1.24s-2.95,1.07-4.44,2.38c-2.8,2.46-4.59,2.98-5.44,1.59-.27-.44,.05-.79,.7-.79,2.52,0,2-1.6-1.03-3.14-3.72-1.9-4.55-1.2-3.25,2.75,1.08,3.27,.5,4.7-1.48,3.64-1.03-.55-2.04-.23-3.93,1.25-1.4,1.1-2.36,2.3-2.13,2.67,.84,1.36-1.22,1.61-3.51,.42-2.78-1.44-4.43-.08-2.04,1.67,2.03,1.49,1.02,2.13-1.53,.97-1.19-.54-2.32-1.85-2.59-3.01-.26-1.13-1.24-2.67-2.17-3.42-2.13-1.73-.23-1.88,2.68-.22,2.62,1.5,6.67,1.49,9.58-.02,3.94-2.04,3.08-3.96-3.2-7.12-3.05-1.54-6.05-2.79-6.66-2.79s-1.57-.54-2.12-1.21c-.75-.91-2.01-1.1-5.07-.78-3.17,.33-3.66,.25-2.23-.38,2.21-.97,1.59-2.41-1.04-2.41-1.04,0-2.12-.36-2.39-.8-.27-.44-1.36-.64-2.42-.45s-2.13,.01-2.38-.39c-.26-.41-1.05-.45-1.8-.09-1.58,.76-2.58,.74-3.87-.08-.52-.33-1.16-.23-1.44,.21-.27,.44-.3,.85-.05,.91,.24,.05,.8,.19,1.24,.3,.44,.11,1.06,.25,1.39,.31,.33,.06,.09,.43-.53,.82-.66,.42-1.9,.42-2.98,0-1.02-.39-1.85-.49-1.85-.23s-.5,.06-1.12-.46c-.77-.64-1.28-.67-1.64-.1-.51,.82-.39,.94,1.17,1.13,.92,.11,1.09,1.66,.2,1.76-.33,.04-1.13,.28-1.79,.53-.66,.25-1.73,.47-2.38,.48-2.43,.04-4.37,.68-4.17,1.38,.11,.4,.56,.72,.99,.72s.79,.27,.79,.6v1.37c0,.42-.47,.59-1.04,.37-.57-.22-2.19,1.03-3.61,2.8-1.41,1.76-3,3.11-3.53,3.01-.53-.1-.91,.44-.85,1.2,.07,.84-.44,1.39-1.29,1.39-2.03,0-3.6,2.06-2.21,2.92,1.24,.77,1.42,3.59,.28,4.38-.43,.3-1.43,.19-2.23-.24-1.6-.86-3.3-.23-2.57,.95,.25,.41-.19,.98-.98,1.27-3.79,1.39-5.32,4.28-3.93,7.44,.3,.67,.4,2.1,.22,3.18-.69,4.22,3.33,5.29,7.31,1.94l2.38-2,1.65,4.42c.91,2.43,1.65,4.72,1.65,5.09,0,1.64,2.11,2.4,3.65,1.32,.86-.6,2.44-1.22,3.52-1.37,1.46-.21,1.99-.79,2.05-2.26,.18-4.15,.36-4.6,1.98-5.02,.92-.24,1.45-.79,1.18-1.23-.27-.44-.1-1.03,.38-1.33,.57-.35,.31-1.13-.76-2.27-1.29-1.37-1.53-2.36-1.14-4.76,.28-1.7,1.05-3.23,1.77-3.5,2.82-1.05,5.65-3.75,5.65-5.4,0-2.22,1.8-3.72,4.07-3.39,2.83,.41,2.53,1.58-1.52,5.97-3.43,3.73-3.77,4.43-3.49,7.3,.17,1.75,.89,3.71,1.62,4.36,1.16,1.04,1.68,1.04,4.49,0,3.64-1.35,8.25-1.49,9.44-.3,.86,.86,.46,.95-5.56,1.21-1.8,.08-3.86,.37-4.57,.64-1.43,.55-1.77,3.34-.5,4.13,.87,.54,1.11,3.58,.29,3.58-.28,0-.96-.62-1.52-1.38-.95-1.3-1.1-1.29-2.7,.15-1.19,1.08-1.57,2.13-1.28,3.57,.52,2.52-2.91,5.54-4.65,4.09-1.2-1-5.7,.28-7.58,2.16-.99,.99-1.22,.92-1.75-.51-.54-1.46-.89-1.55-3.05-.8-2.84,.99-5.2-.32-4.36-2.43,1.58-3.98-.02-6.38-2.56-3.84-.99,.99-1.07,1.9-.43,4.88l.78,3.67-2.24-.17c-1.23-.09-2.89,.41-3.68,1.13-.79,.72-1.78,1.24-2.2,1.16-.42-.08-.97,.75-1.22,1.85-.3,1.26-1.11,2.08-2.24,2.24-.98,.14-2.31,1.07-2.96,2.06-1.35,2.06-4.87,3.9-6.04,3.17-.43-.27-.98,.24-1.21,1.12-.3,1.16-1.01,1.57-2.53,1.47-2.68-.18-2.84,1.83-.25,3.12,4.87,2.43,5.43,12.15,.64,11.03-3.44-.8-9.68-.99-10.93-.33-.99,.53-1.19,1.54-.9,4.57,.21,2.14-.02,4.62-.49,5.51-1.19,2.23,.95,6.56,3.24,6.56,.9,0,2.09,.62,2.64,1.37,.83,1.13,1.33,1.21,2.87,.46,1.03-.5,2.81-1.11,3.95-1.36,3.14-.68,5.62-3.06,5.91-5.66,.14-1.28,.55-2.42,.9-2.54,2.97-1,5.73-3.57,5.96-5.53,.23-1.97,.59-2.24,3.04-2.26,1.53-.01,3.56-.46,4.52-.99,2.68-1.5,4.13-1.17,5.63,1.28,1.37,2.22,6.39,7.02,7.54,7.2,.33,.05,.94,.09,1.36,.09,1.19,0,2.55,3.08,1.85,4.18-.06,.1-.16,.19-.29,.27,.18,.49,.28,1.01,.31,1.54,0,0,0,0,0,0,.12-.16,.28-.2,.45-.1,1.3,.8,2.67-1.83,2.12-4.05-.46-1.82-.36-1.99,.64-1.16,.79,.66,1.34,.7,1.69,.14,.79-1.27-.08-2.16-3.97-4.11-1.96-.98-3.56-2.02-3.56-2.32s-.91-1.89-2.03-3.54c-2.18-3.22-2.14-6.8,.04-3.91,.63,.83,1.16,1.22,1.17,.86,.01-.36,.9,.39,1.98,1.66,1.07,1.28,3.21,3.18,4.75,4.23,1.74,1.19,3,2.82,3.32,4.3,.29,1.31,1.51,3.58,2.71,5.04,1.26,1.53,2.03,3.26,1.81,4.08-.59,2.25,1.15,2.66,3.66,.87,.57-.4,.99-.69,1.33-.88,.76-.59,1.75-.95,2.97-.95,0,0,0,0,0,0-.26-.32-.66-.46-1.11-.18-.41,.25-.74-.09-.74-.75s-.72-1.59-1.59-2.06c-.87-.47-1.59-1.22-1.59-1.66s.36-.59,.8-.32c.44,.27,.99-.01,1.23-.63,.24-.62,1.4-1.15,2.58-1.18,1.84-.05,2.17,.29,2.32,2.34,.14,1.96-.03,2.23-.92,1.49-.75-.62-1.26-.65-1.61-.08-.28,.46-.32,.88-.07,.93,.24,.05,.71,.15,1.04,.21,1.31,.24,2.59,1.43,2.21,2.04-.08,.13-.06,.31,0,.51,.85,.5,1.41,1.28,1.77,2.15,.39,.14,.75,.33,1.07,.56,.34-.04,.88,.11,1.77,.45,.79,.3,1.81,.19,2.25-.25,.54-.55,1.68-.54,3.52,.03,1.97,.6,3.27,.57,4.77-.11,2.03-.93,2.05-.9,1.53,1.66-1.28,6.21-2.98,10.98-4.13,11.62-.78,.44-1.99,.32-3.23-.33-1.47-.76-2.46-.81-3.86-.17-2.02,.92-5.05,.24-12.44-2.81-3.61-1.49-3.87-1.5-5.32-.18-.84,.76-1.64,2.15-1.77,3.08-.39,2.72-2.59,2.44-7.91-1.02-2.73-1.78-5.59-3.23-6.35-3.23-2.29,0-4-2.25-3.06-4.01,1.06-1.97,.18-5.36-1.63-6.33-.92-.49-3.03-.46-5.95,.08-2.49,.46-5.03,.64-5.64,.41-.61-.24-4.13,.63-7.81,1.93-7.06,2.49-9.59,2.87-10.39,1.57-.91-1.47-1.96-.81-3.11,1.93-.65,1.54-2.2,3.28-3.59,4-2.27,1.17-3.08,3.23-2.5,6.32,.31,1.65-1.72,4.92-3.79,6.11-1.22,.7-3.25,3.02-4.5,5.17-1.25,2.14-2.81,4.29-3.46,4.78-1.71,1.28-2.01,3.05-1.81,10.77,.12,4.62-.2,7.81-.99,9.68-1.08,2.58-1.05,2.89,.36,4.17,.84,.76,1.52,1.73,1.52,2.17s1.29,2.36,2.86,4.28c1.57,1.92,2.67,3.98,2.44,4.57-.62,1.61,2.94,5.99,7.02,8.64,3.39,2.21,3.77,2.28,7.27,1.4,2.03-.51,4.62-.73,5.76-.48,1.19,.26,3.94-.24,6.44-1.15,6.64-2.44,7.78-2.24,10.57,1.78,.79,1.14,1.44,1.26,3.51,.66,3.42-.99,4.14,.09,3.66,5.49-.7,7.85-.45,9.63,1.65,11.83,1.85,1.94,3.62,5.38,3.38,6.57-.06,.28,.49,1.18,1.22,1.99,.73,.81,1.33,2.37,1.33,3.46,0,1.09,.25,2.97,.56,4.17,.35,1.4,.09,3.15-.72,4.87-.7,1.48-1.69,4.48-2.19,6.67-.81,3.52-.73,4.38,.7,7.45,1.87,4.02,2.51,6.22,3.06,10.63,.7,5.56,1.97,9.38,5.16,15.53,3.49,6.73,3.66,7.54,1.77,8.26-1.13,.43-.92,.89,1.31,2.93,1.91,1.74,3.11,2.27,4.32,1.91,.92-.28,4.02-.79,6.89-1.15,6.29-.77,7.64-1.44,11.15-5.51,4.54-5.27,6.49-9.01,6.59-12.63,.05-1.86,.34-3.38,.63-3.38,.29,0,1.66-.95,3.03-2.11,2.29-1.92,2.45-2.38,1.96-5.37-.3-1.8-.84-3.84-1.21-4.54-.81-1.54,1.14-3.84,5.64-6.68,2.69-1.7,4.8-4.18,5.22-6.15,.07-.33,.2-.86,.29-1.19,.56-2.01-.28-9.52-1.23-10.87-.62-.89-1.13-2.63-1.13-3.87s-.32-2.86-.71-3.6c-1.41-2.67,4.73-12.97,10.06-16.89,1.65-1.21,4.1-3.76,5.44-5.65,3.11-4.39,7.38-13.18,7.65-15.77,.11-1.09,.86-2.25,1.65-2.58,1.95-.8,.8-2.45-1.34-1.93-10.44,2.56-11.98,2.73-13.79,1.54-.99-.65-1.63-1.46-1.42-1.8,.21-.34-.13-1.05-.77-1.57-.63-.52-2.07-2.53-3.2-4.46s-2.36-3.51-2.74-3.51-1.06-1.08-1.52-2.4c-.46-1.32-1.39-2.61-2.07-2.87-.87-.33-1.23-1.57-1.23-4.18,0-2.04-.48-4.42-1.07-5.28-.59-.86-1.29-2.46-1.57-3.56-.27-1.09-1.75-3.9-3.3-6.23-1.54-2.33-2.78-4.84-2.76-5.56,.03-.84,.34-.6,.85,.67,.72,1.8,.89,1.86,1.78,.66,.9-1.22,1.08-1.19,2.12,.4,1.75,2.67,3.15,6.13,3.15,7.81,0,.84,.63,1.75,1.39,2.04,1.94,.71,2.56,1.83,2.57,4.63,.01,2.52,1.3,4.88,4.64,8.51,1.39,1.51,2.05,3.21,2.17,5.56,.33,6.59,2.21,8.9,5.73,7.04,.76-.4,4.06-2.03,7.34-3.62,3.28-1.59,7.1-3.53,8.5-4.31,3.24-1.82,8.65-6.57,8.4-7.37-.1-.34,.53-1,1.41-1.47s1.38-1.22,1.11-1.66c-.27-.44,.09-1.46,.81-2.25,1.23-1.36,1.18-1.55-.82-3.13-1.17-.92-2.46-1.68-2.86-1.68s-1.26-1.27-1.91-2.83l-1.18-2.83-2.27,2.44c-1.25,1.34-2.64,2.44-3.08,2.44s-1.37,.22-2.07,.48c-.8,.31-1.26,.05-1.26-.7,0-.65-.54-1.63-1.19-2.17-.66-.54-1.2-1.57-1.21-2.28,0-.71-1.09-2.88-2.4-4.81-1.61-2.38-2.09-3.7-1.49-4.08,1.41-.87,3.8,.07,4.32,1.69,.26,.81,1.89,2.6,3.63,3.97,2.66,2.11,3.59,2.42,5.92,1.98,2.2-.41,2.76-.26,2.76,.73,0,1.92,3.72,2.99,11.05,3.18,6.17,.16,6.8,.33,8.17,2.22,.82,1.13,2.61,2.29,3.99,2.6,2.13,.47,2.29,.66,1.11,1.32-1.31,.73-1.31,.85-.01,2.29,1.83,2.02,3.4,1.92,4.29-.27,.57-1.39,.73-.83,.71,2.58-.01,2.4,.13,4.91,.31,5.56,.19,.66,.79,2.9,1.35,4.98,.56,2.08,1.33,3.98,1.71,4.22,.38,.24,.7,1.04,.69,1.78,0,.74,1.33,3.97,2.96,7.18l2.96,5.84,1.78-2.07c2.24-2.6,3.43-6.84,3.44-12.2,0-2.4,.36-4.17,.85-4.17,1.2,0,12.67-11.33,12.67-12.52,0-.59,1.04-.99,2.52-.99,1.39,0,3.15-.57,3.92-1.26,1.3-1.17,1.49-1.07,2.75,1.39,.74,1.46,2.05,3.32,2.89,4.13,1.18,1.13,1.49,2.34,1.31,5.17-.2,3.26-.03,3.72,1.49,3.94,.94,.14,2.42-.45,3.27-1.31,1.55-1.55,1.56-1.53,2.09,2.72,.29,2.35,.88,4.49,1.3,4.75,.44,.27,.6,2.83,.39,5.93-.32,4.56-.13,5.77,1.16,7.41,.85,1.08,1.54,2.5,1.54,3.16,0,4.35,6.07,12.31,7.93,10.39,1.28-1.32-1.09-9.13-3.37-11.09-1.16-1-2.35-2.75-2.63-3.88-.28-1.13-1.03-2.35-1.66-2.7-.96-.54-.98-1.22-.14-4.38,.69-2.6,1.33-3.62,2.09-3.33,.6,.23,1.77,.42,2.61,.42,.99,0,1.52,.55,1.52,1.56,0,.86,.72,1.94,1.59,2.41,.91,.49,1.59,1.66,1.59,2.76s.27,2.07,.6,2.27c.33,.2,2.52-1.37,4.87-3.49l4.28-3.84-.36-4.38c-.26-3.17-1-5.28-2.69-7.64-1.28-1.79-2.81-3.95-3.4-4.79-.96-1.36-.8-1.8,1.42-4.03,2.4-2.4,2.56-2.45,4.04-1.11,1.41,1.28,1.58,1.28,2.04,.09,.27-.72,1.1-1.3,1.85-1.3s1.7-.36,2.14-.8c.44-.44,2.36-1.01,4.27-1.28,2.86-.4,4.14-1.21,7.28-4.57,2.1-2.25,3.83-4.56,3.84-5.13,.02-.58,.96-2.27,2.11-3.77,2.03-2.66,2.12-5.12,.18-5.12-.53,0-.28-.51,.57-1.14,1.5-1.11,1.49-1.16-.39-1.86q-1.92-.72-.18-1.18c1.74-.45,1.74-.48-.7-4.08-2.89-4.28-2.38-6.26,2.1-8.13,1.74-.73,2.42-1.44,2.2-1.94l-2.44,1.13c-1.39,.64-3.12,2.08-3.85,3.19-1.28,1.95-1.24,2.15,1.06,5.56,2.27,3.37,2.31,3.55,.79,3.95-1.81,.47-1.22,2.11,.75,2.11,1.09,0,1.05,.19-.25,1.14-1.44,1.06-1.45,1.17-.15,1.68,1.88,.73,1.75,1.73-.6,4.81-1.09,1.43-2,3.08-2.01,3.65-.01,.58-1.61,2.71-3.55,4.75-2.79,2.92-4.24,3.8-6.9,4.17-1.85,.26-3.72,.83-4.16,1.27-.44,.44-1.45,.8-2.25,.8s-1.67,.55-1.93,1.23c-.42,1.09-.64,1.08-1.94-.1-1.39-1.26-1.63-1.17-4.36,1.57s-2.78,3.05-1.81,4.43c.6,.85,2.14,3.02,3.42,4.82,1.79,2.51,2.4,4.35,2.6,7.79l.27,4.51-4,3.44c-3.93,3.39-4,3.41-4,1.4,0-1.18-.67-2.46-1.59-3.04-.87-.55-1.59-1.63-1.59-2.42,0-1.56-.8-1.99-4.27-2.34-2.11-.21-2.37,.07-3.45,3.71-1.01,3.43-1.02,4.04-.02,4.77,.63,.46,1.42,1.73,1.75,2.82,.33,1.09,1.53,2.74,2.66,3.67,1.37,1.13,2.37,3.1,3.02,5.96,.53,2.35,.85,4.4,.7,4.54-1.47,1.48-6.76-6.3-6.76-9.94,0-.66-.7-2.08-1.55-3.17-1.28-1.63-1.48-2.85-1.17-7.17,.21-2.86,.04-5.61-.37-6.11-.41-.5-1-2.69-1.32-4.88-.75-5.22-1.05-5.59-2.87-3.64-.85,.91-2.15,1.65-2.9,1.65-1.12,0-1.32-.61-1.09-3.43,.21-2.63-.12-3.89-1.42-5.37-.93-1.06-2.41-3.13-3.29-4.6-1.49-2.49-1.7-2.58-3.01-1.39-.78,.7-2.56,1.28-3.96,1.28-1.7,0-2.72,.46-3.07,1.39-.67,1.78-9.6,10.77-11.95,12.02-1.5,.8-1.79,1.61-1.79,5.1,0,4.7-.96,8.62-2.78,11.4l-1.24,1.9-2.76-5.29c-1.52-2.91-2.76-5.93-2.76-6.72s-.31-1.62-.7-1.86-1.15-2.14-1.71-4.22c-.56-2.08-1.17-4.33-1.35-4.98-.19-.66-.3-3.05-.26-5.31,.07-4.22-1.29-6.52-2.08-3.51-.5,1.92-2.02,2.17-3.35,.57-.71-.85-.63-1.21,.35-1.58,1.7-.65,.87-1.79-1.81-2.45-1.21-.3-2.94-1.47-3.85-2.6-1.51-1.88-2.22-2.07-7.95-2.2-7.78-.18-10.39-.87-10.92-2.89-.35-1.32-.85-1.49-3.19-1.05-3.19,.6-7.05-1.69-8.92-5.29-1.26-2.43-3.71-3.31-5.52-1.99-1.13,.83-1.01,1.31,1.14,4.49,1.33,1.96,2.42,4.14,2.43,4.85,0,.71,.55,1.74,1.21,2.28,.66,.54,1.19,1.46,1.19,2.04s.34,1.26,.76,1.52c1.17,.72,6.04-1.59,7.39-3.51l1.2-1.71,.51,2.03c.3,1.18,1.86,2.88,3.75,4.07,3.13,1.97,3.19,2.1,1.84,3.58-.77,.85-1.17,1.76-.9,2.03,.27,.27-.3,1.15-1.26,1.96-.97,.81-1.47,1.48-1.13,1.49,.93,.04-4.72,4.84-7.63,6.47-1.4,.78-5.22,2.73-8.5,4.31-3.28,1.59-6.58,3.22-7.34,3.62-3.33,1.76-4.67-.04-4.94-6.62-.08-1.96-.82-3.72-2.15-5.17-3.33-3.61-4.65-6-4.65-8.38,0-2.86-1.3-5.34-2.81-5.34-.64,0-1.16-.67-1.16-1.49,0-1.96-1.94-6.34-3.9-8.84-1.47-1.86-1.6-1.89-2.14-.47-.55,1.43-.62,1.41-1.23-.26-.67-1.82-2.26-1.61-2.26,.3,0,.59,1.26,2.99,2.81,5.32,1.54,2.33,3.03,5.14,3.3,6.23,.27,1.09,.97,2.69,1.57,3.56,.59,.86,1.07,3.26,1.07,5.34,0,2.96,.34,3.95,1.59,4.62,.87,.47,1.59,1.37,1.59,2.02s.7,1.87,1.56,2.73c.86,.86,2.46,2.98,3.55,4.7,1.09,1.73,2.36,3.37,2.82,3.66,.46,.29,.65,.82,.42,1.2s.57,1.38,1.78,2.24c2.08,1.47,2.48,1.5,7.36,.4,7.68-1.72,9.47-2,7.64-1.2-.86,.38-1.61,1.63-1.75,2.92-.3,2.83-5.03,12.57-8.01,16.5-1.24,1.63-3.5,3.88-5.03,4.99-5.23,3.81-11.64,14.59-10.24,17.24,.39,.74,.71,2.36,.71,3.6s.51,2.98,1.13,3.87c.94,1.35,1.79,8.85,1.23,10.87-.09,.33-.22,.86-.29,1.19-.4,1.88-2.4,4.31-4.38,5.33-1.25,.65-3.39,2.29-4.74,3.64-1.94,1.94-2.3,2.77-1.7,3.9,.42,.79,.87,2.97,.99,4.85,.2,3.1-.03,3.59-2.44,5.24-2.24,1.53-2.7,2.37-2.88,5.24-.21,3.26-1.93,6.68-6.04,11.98-2.7,3.48-5.08,4.66-10.88,5.36-2.95,.36-6.09,.88-6.99,1.15-2.03,.62-6.6-3.15-4.7-3.88,1.73-.66,1.45-1.85-1.95-8.41-3.19-6.15-4.46-9.97-5.16-15.53-.56-4.41-1.19-6.6-3.06-10.63-1.43-3.07-1.51-3.93-.7-7.45,.51-2.19,1.49-5.19,2.19-6.67,.82-1.72,1.08-3.48,.72-4.87-.3-1.2-.55-3.08-.56-4.17,0-1.09-.6-2.65-1.33-3.46-.73-.81-1.28-1.71-1.22-1.99,.24-1.19-1.54-4.63-3.38-6.57-2.1-2.21-2.35-3.99-1.65-11.83,.5-5.6-.74-7.36-4.47-6.29-1.75,.5-2.62,.45-2.82-.17-.6-1.8-3.32-3.88-5.08-3.88-.99,0-3.76,.72-6.16,1.6-2.49,.92-5.25,1.41-6.44,1.15-1.14-.25-3.72-.03-5.74,.47-3.43,.86-3.88,.78-7.14-1.28-3.77-2.38-6.65-6.03-6.27-7.94,.13-.66-1.03-2.74-2.58-4.64-1.55-1.89-2.82-3.8-2.82-4.23s-.69-1.41-1.52-2.17c-1.41-1.27-1.43-1.59-.36-4.17,.78-1.87,1.11-5.06,.99-9.68-.2-7.49,.15-9.82,1.54-10.28,.49-.16,2.01-2.25,3.38-4.63,1.36-2.38,3.47-4.84,4.68-5.47,2.03-1.05,4.3-4.73,3.97-6.45-.54-2.85,.28-4.82,2.51-6.09,1.35-.77,2.85-2.47,3.35-3.78,.93-2.47,1.7-2.95,2.54-1.59,.81,1.31,3.34,.92,10.39-1.57,3.68-1.3,7.19-2.17,7.81-1.93,.61,.24,3.12,.06,5.57-.39,2.45-.45,4.96-.63,5.57-.39,1.54,.59,2.27,3.99,1.26,5.88-.66,1.23-.49,1.89,.78,3.16,.88,.88,2.25,1.61,3.04,1.61s3.67,1.45,6.4,3.23c5.06,3.29,7.06,3.67,8.05,1.54,2.4-5.14,2.34-5.13,11.11-1.94,4.79,1.74,6.35,2,8.1,1.34,1.59-.6,2.7-.54,4.18,.23,3.12,1.62,5.01-.45,6.88-7.58,1.86-7.1,1.65-8.34-1.22-7.03-1.46,.66-2.78,.69-4.73,.09-1.83-.56-2.97-.57-3.52-.03-.46,.46-1.43,.53-2.25,.17-.79-.35-1.68-.66-1.97-.7-.76-.1-1.84-1.27-1.95-2.12-.05-.4-.17-.82-.25-.93-.08-.11-.26-1.36-.4-2.78-.24-2.48,.2-2.95,2.55-2.64,.55,.07,1.22-.42,1.48-1.1,.26-.68,1.24-1.24,2.18-1.26,.94-.02,2.6-.54,3.69-1.16,2.62-1.5,4.21-1.47,7.78,.14,4,1.8,8.62,1.9,10.14,.23,1.66-1.84,.93-3.19-3.66-6.68-3.3-2.51-3.8-3.22-2.98-4.19,1.2-1.44,1.52-3.26,.67-3.78-.75-.46-5.64,1.08-6.78,2.14-.52,.48-.3,1.11,.64,1.8,2.04,1.51,.14,2.48-2.3,1.18-1.41-.75-1.69-1.28-1.07-2.03,.62-.74,.4-1.24-.8-1.88-1.33-.71-2.09-.54-4.04,.9-2.92,2.16-6.58,9.36-5.44,10.73,.51,.62,.44,1.47-.2,2.5-.76,1.22-1.65,1.5-4.05,1.27-2.18-.21-3.2,.04-3.52,.88-.25,.65-.75,.99-1.11,.77-1.58-.98-1.67,1.59-.1,2.86,2.21,1.79,2.16,2.65-.24,4.22-2.42,1.59-2.81,1.6-2.81,.09,0-.66,.52-1.19,1.15-1.19,1.69,0,2.18-1.27,.9-2.33-.85-.7-1.25-.7-1.7,.03-.36,.58-.26,.75,.27,.42,.47-.29,1.09-.17,1.36,.27,.27,.44,.03,.81-.54,.81-1.51,0-5.12-4.82-5.75-7.68-.36-1.65-1.69-3.28-4.1-5.01-1.96-1.41-4.13-3.42-4.82-4.47s-1.53-1.74-1.88-1.53c-.34,.21-.85-.21-1.13-.94-.48-1.24-.6-1.24-1.86,.02-1.1,1.1-1.17,1.6-.38,2.72,.53,.76,1.66,2.64,2.5,4.18,.97,1.78,2.85,3.47,5.18,4.63,2.01,1,3.65,2.2,3.65,2.66,0,.56-.35,.55-1.07-.05-1.48-1.23-2.12-.32-1.6,2.28,.26,1.3,.05,2.44-.52,2.79-.68,.42-.81,.13-.46-.99,.58-1.83-1.61-4.96-3.68-5.26-1.53-.22-5.86-4.12-8.02-7.21-1.6-2.3-3.48-2.59-5.77-.92-.91,.66-2.44,.95-3.73,.7-2.66-.53-4.57,.9-4.57,3.42,0,1.39-.83,2.3-3.18,3.5-1.75,.89-3.21,1.88-3.25,2.2s-.16,1.44-.27,2.49c-.23,2.15-2.27,3.92-5.23,4.55-1.09,.23-2.82,.83-3.85,1.33-1.54,.75-1.99,.67-2.62-.46-.42-.75-1.55-1.37-2.51-1.37-2.33,0-4.04-3.51-2.83-5.78,.47-.88,.69-3.32,.49-5.42-.23-2.42-.04-3.95,.53-4.16,1-.38,7.88,.04,10.48,.65,2.12,.49,4.24-1.75,4.15-4.38-.11-3.24-2.23-7.17-4.29-7.95-2.64-1-2.54-2.69,.12-2.02,1.64,.41,2.14,.19,2.48-1.1,.23-.89,.73-1.42,1.1-1.19,1.04,.64,5.34-1.84,6.3-3.63,.47-.87,1.48-1.58,2.25-1.58,1.85,0,3.31-1.53,3.31-3.47,0-.86,.24-1.32,.53-1.03,.29,.29,1.18-.06,1.98-.78,.8-.72,2.62-1.35,4.04-1.39,2.41-.07,2.56-.25,2.26-2.46-.68-4.87-.48-6.31,.89-6.59,1.36-.27,1.44,.92,.27,3.86-.29,.73,.16,1.83,1.09,2.67,1.29,1.17,2.01,1.28,3.93,.61,2.03-.71,2.4-.61,2.74,.71,.38,1.45,.59,1.42,4.44-.57,3.23-1.68,4.27-1.9,5.19-1.13,.93,.77,1.64,.6,3.61-.86,1.99-1.47,2.37-2.22,2-3.91-.63-2.88,1.57-4.83,3.09-2.74,.58,.79,1.46,1.18,1.96,.87,1.13-.7,1.21-3.38,.12-4.05-1.35-.84-.91-3.57,.6-3.65,9.7-.48,11.74-1.12,9.47-3.01-1.57-1.3-5.88-1.23-9.67,.17-3.9,1.44-4.9,.77-5.31-3.56-.27-2.82,.05-3.6,2.5-6.16,4.86-5.07,5.11-5.51,4-6.84-2.21-2.66-7.15-.34-7.15,3.36,0,.9-.45,1.86-.99,2.13-4.38,2.16-5.75,3.56-6.35,6.42-.53,2.55-.36,3.36,1.03,4.83,1.09,1.16,1.37,1.96,.8,2.31-.48,.29-.66,.87-.41,1.28,.25,.41-.11,.74-.8,.74-1.54,0-2.86,3.2-2.27,5.48,.35,1.32,.08,1.68-1.27,1.68-.94,0-2.56,.56-3.6,1.24-2.1,1.37-2.2,1.28-3.62-3.22-.55-1.75-1.51-4.18-2.13-5.4l-1.13-2.22-2.46,2.07c-1.58,1.33-3.2,1.98-4.53,1.83-1.77-.21-2.05-.59-1.88-2.63,.11-1.31-.04-2.92-.32-3.58-1.3-3.03-.59-4.48,3.37-6.88,.84-.51,1.43-1.31,1.32-1.79-.24-1.05,.59-1.1,2.14-.12,1.78,1.12,3.79-.39,3.67-2.75-.06-1.14-.62-2.39-1.25-2.78-1.15-.71-.91-.87,2.98-2.03,.57-.17,.77-.88,.47-1.71-.28-.78-.21-1.15,.15-.82,.37,.33,1.52-.2,2.58-1.19,1.05-.99,2.15-1.62,2.44-1.4,.29,.22,.53-.32,.53-1.19,0-1,.53-1.59,1.43-1.6,1.89,0,3.11-2.03,2.01-3.35-.86-1.04-.06-1.4,2.39-1.07,.58,.08,1.56-.28,2.19-.8,.62-.52,1.13-.67,1.13-.35s.48,.19,1.07-.29c.59-.49,1.38-.62,1.76-.3,.38,.32,.21-.05-.39-.83-1-1.3-.92-1.35,.86-.68,2.26,.86,4.97-.28,4.14-1.73-.3-.52-.26-.69,.09-.38,.35,.31,1.28,.22,2.07-.2,.98-.53,1.62-.48,2.01,.15,.38,.61,.22,.7-.47,.28-.71-.44-.85-.33-.43,.34,.43,.7,.86,.74,1.46,.14,.6-.6,1.2-.56,2.05,.13,.96,.77,1.08,.77,.61-.02-.33-.55-.24-.99,.2-.99s1.02,.36,1.29,.79c.27,.44,1.45,.82,2.63,.85,2.11,.05,2.12,.06,.3,.79-3.13,1.26-1.16,2.57,3.03,2.02,2.85-.38,4.01-.21,4.77,.71,.55,.66,1.49,1.21,2.08,1.21,2.28,0,11.44,5.13,11.44,6.4,0,2.9-7,4.08-11.24,1.89-1.33-.69-3.01-1.02-3.74-.74-1.17,.46-1.14,.66,.34,1.87,.91,.74,1.9,2.32,2.2,3.5,.66,2.63,4.98,5.2,6.37,3.78,.67-.69,.55-1.18-.49-1.94-2.26-1.67-1.59-2.19,1.05-.82,1.9,.98,2.69,1.05,3.57,.33,.62-.51,.95-1.22,.73-1.58-.72-1.17,3.92-3.87,5.32-3.09,2.11,1.18,3.4-1.09,2.33-4.14-1.31-3.75-1.14-3.97,1.94-2.5,2.64,1.26,2.71,1.39,1.1,1.98-1.42,.52-1.55,.84-.74,1.82,1.45,1.74,2.8,1.46,5.83-1.2,1.49-1.31,3.49-2.38,4.44-2.38s2.74-.53,3.98-1.17c2.08-1.08,2.29-1.05,2.65,.34,.35,1.34,.68,1.41,3.1,.57,1.49-.51,3.77-1.62,5.06-2.46,1.87-1.21,2.13-1.26,1.27-.21-.93,1.14-.89,1.4,.32,1.86,.98,.38,1.98-.13,3.29-1.65,1.76-2.04,2.17-2.15,6.04-1.64,2.43,.32,4.88,1.22,5.9,2.16,1.87,1.72,4.21,1.43,4.21-.51,0-.64-.63-1.64-1.39-2.22-.77-.58-1.84-1.84-2.38-2.81-.87-1.55-.76-1.91,.93-3.02,1.06-.69,2.29-2.31,2.74-3.59,.58-1.68,1.33-2.33,2.64-2.32,3.12,.02,4.25,1.18,3.26,3.36-.49,1.08-.58,2.4-.2,3.08,2.42,4.33-.34,18.23-2.82,14.21-.62-1.01-3.33-1.04-3.95-.05-.25,.41,.77,1.34,2.28,2.05,2.64,1.25,2.84,1.23,5.15-.47,1.32-.98,2.95-3.15,3.63-4.83,.67-1.68,1.69-3.06,2.26-3.06,1.47,0,2.95,1.66,2.95,3.31,0,1.83,3.02,3.52,4.19,2.35,.59-.59,.45-.99-.48-1.35-.73-.28-1.33-1.12-1.33-1.87,0-2.03-3.37-4.82-5.81-4.82-1.17,0-2.16-.27-2.2-.6-.26-2.35-.6-3.95-1.06-5.04-.31-.74-.02-1.69,.69-2.28,.68-.56,1.26-1.6,1.3-2.31,.04-.71,.41-.14,.82,1.28,.48,1.64,1.63,3.03,3.2,3.84,3.26,1.69,4.92,.28,1.96-1.66-1.14-.75-2.07-1.75-2.07-2.22,0-.58,.31-.56,.94,.07,.67,.67,1.23,.69,1.96,.08,.74-.62,2.01-.48,4.57,.5,3.03,1.16,3.52,1.66,3.4,3.43-.11,1.6,.23,2.08,1.45,2.08,1.29,0,1.55-.45,1.36-2.37-.24-2.44-2.67-5.15-4.63-5.15-.63,0-1.1-.8-1.1-1.87,0-1.8,.2-1.86,5.17-1.63,2.85,.13,5.5,.44,5.91,.69,1.49,.92,1.83-1.44,.37-2.51-.83-.61-1.37-1.36-1.2-1.67,.58-1.05,5.03-2.55,7.56-2.55,1.38,0,4.45-.5,6.81-1.11,3.02-.78,4.67-.87,5.6-.29,.95,.6,2.1,.44,4.23-.57,1.67-.79,3.72-1.18,4.79-.91,2.23,.56,3.21-.16,2.07-1.53-.59-.71-.3-1.56,1-3.02,1.41-1.58,2.32-1.93,4.03-1.57,2.03,.42,2.09,.54,.79,1.5-1.34,.98-1.33,1.07,.18,1.55,.87,.28,2.21,.85,2.98,1.25,.87,.47,2.76,.43,5.07-.09,2.93-.66,3.95-.6,4.97,.29,.71,.61,1.82,.93,2.48,.69,1-.35,1.02-.22,.16,.83-.78,.95-.81,1.39-.09,1.83,1.13,.7-2.05,2.67-4.38,2.71-.84,.02-2.16,.6-2.93,1.29-.77,.7-2.59,1.86-4.04,2.58-1.45,.72-2.64,1.68-2.64,2.11,0,.94,4.26,1.17,5.96,.31,.66-.33,1.91-.83,2.78-1.11,1.57-.51,1.57-.53,.05-1.65-1.48-1.09-1.45-1.14,.55-1.14,1.15,0,2.31,.36,2.58,.79,.27,.44,.9,.79,1.39,.79,1.77,0-2.23-2.34-4.17-2.44-1.63-.09-1.48-.23,.79-.76,2.67-.63,3.55-.46,3.61,.68,.02,.29,.5,1.37,1.07,2.4,.76,1.37,1.28,1.64,1.92,.99,1.26-1.26,8.57-1.16,8.31,.11-.29,1.43,8.22,1.84,9.32,.45,.47-.6,2.54-1.07,4.89-1.1,3.12-.04,4.28,.28,4.98,1.39,.76,1.21,.65,1.45-.65,1.45-2.74,0-2.34,1.11,1.64,4.65,4.05,3.59,6.04,3.87,6.81,.95,.34-1.3,.64-1.39,1.91-.6,1.15,.72,1.86,.72,2.99,.02,1.15-.72,1.95-.69,3.52,.13,1.12,.58,2.27,.82,2.56,.54,.29-.29,1.3-.52,2.24-.52,1.36,0,1.73-.49,1.78-2.38,.04-1.64,.42-2.3,1.19-2.11,.62,.15,3.21,.27,5.75,.28,4.33,0,4.54,.09,3.38,1.38-1.94,2.14-.49,2.6,2.45,.78,2.65-1.64,5.44-1.8,5.46-.32,.02,1.5,1.35,2.88,2.39,2.48,.58-.22,1.26,.14,1.51,.81,.38,1,1.55,1.13,6.73,.73,7.1-.54,8.84-.14,8.84,2.04s2.54,2.83,9.14,2.68c4.12-.1,6.25,.25,8.2,1.34,3.25,1.81,4.38,1.23,3.69-1.89-.47-2.13-.37-2.3,.95-1.62,.81,.42,4.4,.99,7.98,1.28,8.92,.71,19.33,5.69,19.33,9.24,0,2.17,1.62,2.83,2.13,.87,.53-2.04,.82-2.05,4.91-.22,2.48,1.11,3.03,1.67,2.31,2.38-.51,.51-1.34,.93-1.84,.93-1.38,0-3.77,2.96-3.18,3.92,.8,1.29-.83,1-1.96-.35-.54-.66-1.43-1.19-1.96-1.19s-1.61-.7-2.39-1.56c-1.07-1.18-1.77-1.38-2.85-.79-1.96,1.05-2.09,1.01-2.59-.9-.56-2.13-2.13-1.22-2.13,1.23,0,2.27-1.71,3.04-4.45,2-1.13-.43-2.39-.57-2.81-.3-.97,.6,.69,2.72,2.13,2.72s3.78,4.85,2.83,5.79c-.44,.44-1.29,.42-2.16-.07-1.64-.92-8.45,1.76-12.68,4.98-2.27,1.73-2.62,1.8-3.75,.67-.9-.9-1.86-1.07-3.5-.61-1.24,.35-2.65,.57-3.14,.49-.49-.08-1.32,.38-1.85,1.02-.53,.64-1.46,.97-2.06,.73-1.56-.6-4.57,4.46-3.45,5.81,.46,.55,.62,1.35,.35,1.78-.26,.43-.12,1,.33,1.27,.44,.27,.81,.86,.81,1.29s-.34,.58-.76,.33c-1.04-.64-2.53,2.36-1.94,3.9,.35,.9,.14,1.13-.74,.79-1.41-.54-4.16,3.07-3.35,4.39,.28,.46,.02,.83-.58,.83s-1.95,1.16-3,2.58l-1.91,2.58-.96-3.18c-1.42-4.72-1.3-10.52,.28-13.19,.75-1.27,1.77-2.31,2.27-2.31s2.74-1.94,4.98-4.31c2.24-2.37,4.68-4.43,5.41-4.57,1.69-.33,4.5-5.18,3.39-5.87-1.01-.63-3.11,1.08-3.11,2.52,0,.6-.42,1.1-.94,1.1s-1.77,.78-2.78,1.73c-1.51,1.42-1.84,1.5-1.84,.44,0-.71,.36-1.51,.81-1.78,1.48-.92-.09-2-2.65-1.82-3.09,.21-10.41,6.05-9.28,7.41,1.02,1.23-4.65,.98-7.01-.31-1.22-.66-2.16-.74-2.78-.23-1.17,.96-6.61,1.48-7.39,.7-1.8-1.8-5.2-.33-11.45,4.95-3.6,3.04-7.06,6.26-7.69,7.16-1.04,1.49-.98,1.69,.69,2.32,1.01,.37,1.84,1,1.84,1.38,0,.97,2.95,.99,4.21,.04,1.49-1.13,3.57,1.22,3.52,3.99-.15,7.95-2.67,13.98-9.16,21.88-3.43,4.17-5.03,5.06-6.68,3.68-.94-.78-1.66-.38-3.94,2.17-1.54,1.72-3.63,4.06-4.67,5.2l-1.88,2.07,2.01,4.98c2.09,5.18,2.02,5.52-1.39,6.96-2.05,.87-2.07,.84-1.9-2.29,.14-2.56-.18-3.4-1.68-4.39-1.48-.97-1.7-1.52-1.07-2.7,.62-1.15,.45-1.66-.76-2.3-2.44-1.3-4.7-.97-5.66,.83-.49,.91-1.09,1.46-1.33,1.22-.24-.24,.13-1.31,.83-2.38,.99-1.51,1.05-2.12,.3-2.74-1.13-.93-8.51,4.11-8.51,5.81,0,1.97,3.56,3.49,7.23,3.1l3.4-.37c-.27-.52-1.59-.77-3.79-.47-3.22,.43-6.06-.69-6.06-2.39,0-1.02,6.81-5.89,7.4-5.3,.25,.25-.11,1.33-.81,2.4-.9,1.37-1.02,2.18-.42,2.79,.6,.6,1.15,.36,1.9-.84,1.69-2.71,6.89-2,5.42,.73-.62,1.15-.4,1.73,1.01,2.72,1.35,.94,1.79,2.04,1.79,4.42,0,3.54-.04,3.5,2.95,2.75,3.81-.96,4.12-2.16,1.94-7.55-1.85-4.57-1.89-4.98-.65-6.27,.73-.76,2.65-2.93,4.27-4.83,2.44-2.86,3.15-3.28,4.12-2.47,1.63,1.35,3.5,.22,7.31-4.43,4.79-5.83,7.35-10.23,7.88-13.54,.27-1.66,.67-3.91,.9-5,.81-3.87,2.08,.65,2.18,7.78,.08,5.88,.28,6.79,1.54,6.98,1.73,.26,2.71-1.79,1.45-3.05-.5-.5-.9-1.95-.9-3.22,0-1.91,.2-2.16,1.12-1.39,1.38,1.14,2.58-.3,1.47-1.76-1.11-1.46-2.63-9.36-2.4-12.49,.15-2.04-.11-2.78-.99-2.78-.66,0-1.11,.42-1.01,.94,.1,.52-.35,1.95-.99,3.18-.67,1.28-1.17,1.7-1.17,.97,0-1.84-2.86-4.19-4.13-3.4-1.72,1.07-4.83,1.28-4.21,.28,.32-.51-.15-1.07-1.11-1.32-2.25-.59-1.29-1.84,6.54-8.48,5.96-5.05,9.38-6.5,11.16-4.72,.78,.78,6.22,.26,7.39-.7,.62-.51,1.57-.44,2.78,.23,3.21,1.75,10.63,1.25,7.76-.52-1.5-.93,5.61-6.31,8.66-6.56,2.37-.19,2.61-.06,1.74,.98-.55,.66-.78,1.79-.5,2.5,.4,1.05,.72,1.11,1.68,.31,.65-.54,1.18-.65,1.18-.26,0,1.04-6.64,7.42-7.72,7.42-.49,0-1.69,1.28-2.66,2.85-1.48,2.4-1.69,3.62-1.34,7.75,.23,2.7,.84,5.98,1.36,7.29l.94,2.38,2.19-2.45c1.21-1.35,2.81-2.69,3.57-2.98,.76-.29,1.16-.88,.89-1.31-.78-1.26,1.14-4.07,2.61-3.82,.88,.15,1.38-.33,1.43-1.37,.16-3.15,.33-3.66,1.06-3.21,1.15,.71,1.89-1.1,.93-2.26-.47-.57-.63-1.26-.35-1.54s.12-.97-.36-1.54c-.48-.58-.58-1.5-.21-2.09,.46-.75,.81-.79,1.2-.16,.3,.49,.89,.68,1.3,.43,.41-.26,.54-.8,.29-1.22-.26-.41-.84-.52-1.31-.23-.48,.3-.69,.05-.47-.58,.2-.61,.92-1.11,1.59-1.12,.67,0,1.76-.47,2.43-1.02,.67-.56,1.52-.94,1.9-.85,.37,.09,1.69-.13,2.93-.47,1.64-.46,2.59-.29,3.5,.61,1.13,1.13,1.48,1.07,3.75-.67,4.24-3.23,11.04-5.9,12.68-4.98,1.04,.58,1.74,.49,2.56-.32,.97-.97,.95-1.48-.17-3.72-.71-1.42-2.2-2.94-3.31-3.36-1.11-.42-1.83-.94-1.62-1.16,.22-.22,1.36-.03,2.55,.42,2.92,1.11,5.21-.18,5.28-2.99,.05-2.08,.08-2.1,.77-.37,.81,2.01,1.08,2.1,3.11,1.02,1.08-.58,1.79-.38,2.85,.79,.78,.86,1.85,1.56,2.39,1.56s1.43,.55,1.98,1.22c1.29,1.55,2.75,1.09,2.76-.87,0-.84,.92-1.95,2.09-2.51,4.26-2.04,4.31-3.13,.25-4.93Zm-311.85,74.07c.66-.66,.68-1.21,.07-1.95-1.12-1.35,2.24-8.43,4.93-10.36,2.16-1.56,5.03-1.09,3.63,.58-.61,.73-.31,1.34,1.14,2.29,2.44,1.6,3.16,1.61,4.41,.11,.8-.96,.74-1.28-.3-1.67-1.85-.71-1.58-1.67,.63-2.22,1.05-.26,2.46-.69,3.12-.94,1.43-.55,1.35,1.29-.13,3.08-.83,1-.35,1.68,2.97,4.25,4.33,3.35,5.34,4.87,4.06,6.15-1.37,1.37-6.32,1.14-9.4-.43-3.41-1.74-5.42-1.81-8.1-.27-1.09,.62-2.8,1.15-3.8,1.16-1,.02-2.02,.56-2.27,1.22-.48,1.25-1.88,1.66-1.88,.56,0-.35,.41-1.05,.92-1.56Zm84.53-72.53c-.63,1.03-1.92,.89-4.37-.47-1.91-1.06-1.92-1.1-.25-1.11,.96,0,1.98,.37,2.27,.84,.29,.47,1.04,.65,1.68,.41,.64-.25,.94-.1,.67,.34Zm74.12-24.73c1.29,.75,1.27,.82-.25,.84-.91,.01-1.92,.29-2.24,.61-.32,.32-1.71,.64-3.09,.71-2.32,.12-2.39,.05-.99-.98,.83-.61,1.87-1.11,2.29-1.11s1.49-.63,2.37-1.39c.87-.77,1.34-.97,1.04-.45-.3,.52,.08,1.31,.86,1.76Zm62.53,64.41c.69-1.39,1.06-2.84,.83-3.22-.24-.38-.01-.7,.5-.7,.64,0,.76,.9,.39,2.87-.53,2.81,.8,10.3,2.1,11.8,1.07,1.24,.74,2.29-.42,1.34-.59-.49-1.3-.65-1.59-.36-.82,.82-.61,4.88,.27,5.43,.44,.27,.79,.95,.79,1.5s-.55,1.01-1.23,1.01c-1.01,0-1.19-1.06-1.05-6.1,.11-3.58-.24-7.12-.84-8.57-.86-2.09-.83-2.85,.24-4.99Zm37.53-22.32c.23-.37,.94-.68,1.59-.68s1.51-.89,1.92-1.99c.42-1.09,1.09-1.99,1.51-1.99s.24,1.03-.39,2.29c-.66,1.33-1.97,2.45-3.09,2.67-1.07,.21-1.76,.07-1.53-.31Z"/><path class="cls-14" d="M140.83,19.82c1.06,.7,2.93,1.29,4.14,1.33,1.22,.03,1.68,.24,1.02,.46-.66,.22-1.73,.57-2.38,.79-1.04,.34-1.03,.51,.08,1.33,.7,.52,1.24,1.29,1.19,1.73-.04,.44,1.3,.91,2.99,1.05,2.27,.19,3.54-.19,4.85-1.42,1.45-1.36,1.94-1.47,2.65-.62,.66,.8,.48,1.3-.75,2.07-.89,.56-1.42,1.22-1.16,1.48s-.16,.92-.92,1.48c-2.44,1.8,.04,2.87,7.42,3.19,3.83,.17,7.14,.49,7.36,.71,.62,.62,1.31,.5,4.47-.82,3.4-1.42,3.38-3.27-.03-2.89-2.18,.24-2.13,.16,.83-1.39,1.73-.9,3.55-1.64,4.05-1.64,1.41,0,3.75-2.98,3.13-3.99-.34-.54-1.41-.7-2.66-.39-1.38,.34-1.83,.25-1.3-.27,.44-.43,1.69-.91,2.78-1.07,1.16-.17,1.89-.73,1.76-1.36-.16-.74,.21-.89,1.19-.49,3.25,1.33,4.48,1.39,5.32,.26,.48-.65,3.65-2.5,7.04-4.11,3.39-1.61,6.16-3.11,6.16-3.33s-.8-.74-1.79-1.13c-1.42-.57-1.49-.73-.37-.77,1.87-.07,7.72-3.07,7.72-3.96,0-.39-1.12-1.41-2.5-2.28-1.97-1.24-3.02-1.43-4.96-.87-3.18,.91-3.88,.89-3.27-.09,.85-1.38-3.65-2.46-8.47-2.04-2.54,.22-6.25,.1-8.23-.27s-3.78-.39-3.99-.05c-.21,.34-1.09,.43-1.96,.21s-2.21-.14-2.98,.2c-.77,.34-1.83,.54-2.36,.46-.94-.15-3.11,2.96-2.81,4.02,.08,.3-1.36,.48-3.21,.4-2.43-.11-3.3,.14-3.14,.91,.15,.71-.51,1-1.99,.88-1.21-.1-2.74,.04-3.4,.3-.66,.26-2.27,.58-3.58,.71-1.35,.13-2.1,.47-2.27,.84l2.73-.1c1.57-.06,3.1-.35,3.4-.65s1.7-.57,3.11-.6c1.69-.03,2.49-.41,2.35-1.1-.16-.77,.69-.98,3.17-.79,1.86,.14,3.42-.1,3.47-.54,.18-1.74,1.37-3.6,2.22-3.47,.5,.08,1.53-.14,2.31-.47,.77-.34,2.11-.43,2.98-.2s1.75,.13,1.96-.21,2.02-.31,4.03,.06c2,.37,5.5,.5,7.77,.28,4.68-.45,8.73,.2,8.05,1.29-.71,1.15,1.39,1.58,4.02,.83,1.73-.49,2.99-.33,4.57,.57,1.2,.69,2.19,1.48,2.19,1.75,0,.61-3.2,2.1-7.95,3.7-1.97,.66-4.02,1.56-4.56,2-1.69,1.37-.29,2.15,2.27,1.26,1.87-.65,2.19-1.03,1.37-1.62-.79-.57-.7-.64,.39-.29,.8,.26,1.87,.49,2.38,.51,.51,.02-1.87,1.38-5.29,3.03s-6.54,3.5-6.92,4.12c-.58,.93-1.15,.96-3.24,.18-2.6-.98-4.27-.68-3.46,.64,.25,.41-.41,.74-1.48,.74-2,0-4.1,1.74-3.2,2.64,.28,.28,1.4,.29,2.48,.01,1.43-.36,1.88-.21,1.62,.55-.19,.58-.86,1.29-1.49,1.59-.63,.3-2.29,1.14-3.69,1.87-1.51,.79-3.34,1.13-4.48,.84-1.07-.27-2.18-.1-2.47,.37-.65,1.06,3.33,2.69,5.3,2.17,2.49-.65,1.51,.72-1.23,1.71-2.97,1.07-3.29,1.12-3.86,.55-.22-.22-3.52-.54-7.33-.71s-7.17-.54-7.46-.83c-.57-.57,1.3-2.01,2.61-2.01,.44,0,.26,.35-.4,.77-.72,.46-.81,.78-.25,.78,1.63,.02,1.94-1.44,.48-2.26-1.25-.7-1.17-.88,.71-1.73,1.73-.79,2.42-.73,3.94,.33,1.42,.99,1.54,1.29,.52,1.29-.73,0-1.54-.36-1.81-.79-.27-.44-.85-.79-1.3-.79s-.24,.56,.45,1.25c1.32,1.32,4,1.28,3.8-.06-.07-.44-1.2-1.37-2.52-2.08-1.32-.71-2.89-1.69-3.48-2.18-.83-.69-1.41-.53-2.52,.69-.97,1.07-2.45,1.59-4.54,1.59-1.73,0-2.9-.33-2.64-.75,.25-.41-.12-1.07-.84-1.47-1.04-.58-.77-.83,1.37-1.27,2.09-.42,2.41-.7,1.48-1.3-.66-.42-2.09-.78-3.18-.8-2.92-.05-4.84-1.72-3.69-3.19,.5-.64,1.36-1.2,1.9-1.25,2.76-.22,2.97-.35,1.81-1.08-1-.63-.97-.82,.2-1.27,1.35-.52,2.18-.3,4.55,1.17,1.69,1.05,4.25,1.93,5.07,1.75,.38-.09,.49,.38,.23,1.04-.25,.66,.15,1.66,.9,2.22,.75,.56,1.36,1.55,1.36,2.2,0,1.63,7.93,2.93,9.57,1.57,1.48-1.23,.66-2.56-1.2-1.97-1.52,.48-7.18-2.42-7.18-3.67s2.36-1.74,4.22-.91c1.28,.57,3.02,.36,6.51-.79,5.47-1.8,7.52-3.31,6.25-4.59-.59-.59-1.99-.23-4.73,1.22-3.98,2.12-8,2.2-11.71,.25-.97-.51-1.81-.45-2.55,.16-.85,.71-1.53,.62-2.93-.36-1-.7-1.64-1.54-1.43-1.86,.22-.32-.85-.8-2.38-1.07l-2.68-.47c-.2,.49,.65,1.04,2.5,1.22,1.43,.14,2.42,.55,2.19,.91s.51,1.26,1.63,1.99c1.55,1.01,2.29,1.12,3.12,.43,.73-.6,1.57-.65,2.53-.15,.79,.42,3.05,1.03,5.02,1.36,2.7,.45,3.2,.74,2.02,1.15-.86,.3-2.53,.19-3.71-.26-2.15-.81-4.67,.25-4.67,1.96,0,1.45,6.43,4.77,8.19,4.23,1.31-.4,1.52-.3,.87,.4-1.27,1.34-9.29,.21-8.74-1.23,.22-.58-.2-1.4-.94-1.82-.74-.42-1.35-1.41-1.36-2.21,0-.8-.36-1.48-.8-1.52-1.13-.1-3.77-1.11-5.17-1.98-2.52-1.57-3.44-1.75-4.68-.93-.71,.47-1.18,1.28-1.05,1.81,.13,.56-.26,.78-.93,.52-.69-.26-1.66,.32-2.39,1.42-1.15,1.75-1.1,1.95,.71,3.13Zm52.93-7.27c-1.32,.35-1.63,.24-1.04-.35,.46-.46,1.31-.68,1.88-.49,.6,.2,.23,.56-.84,.84Zm-25.04,16.42c-.84,.03-1.31-.15-1.04-.42,.26-.26,.95-.29,1.52-.06,.63,.25,.45,.44-.48,.48Zm1.37-15.35c4.29-2.34,4.53-2.41,4.53-1.27,0,.45-.91,1.16-2.02,1.58-4.91,1.87-6.21,1.7-2.51-.32Z"/><path class="cls-14" d="M193.06,77.52c2.92,1.78,3.53,1.92,4.15,.92,.54-.87-1.77-2.93-4.04-3.62-2.85-.87-2.92,.99-.11,2.71Zm-1.53-2.06c.52-.52,4.31,1.03,4.92,2.02,.29,.46,.23,.83-.12,.81-1.11-.05-5.17-2.46-4.8-2.84Z"/><path class="cls-14" d="M181.11,47.83c-2.78-2.33-3.61-2.63-5.86-2.14-1.44,.31-2.53,.99-2.42,1.5,.25,1.14-1.9,1.23-2.6,.11-.28-.45-1.1-.72-1.83-.6-1.05,.17-1.27-.32-1.07-2.36,.23-2.32,.04-2.58-1.82-2.58-1.14,0-2.91,.55-3.94,1.22-1.68,1.1-1.91,1.1-2.33,0-1.18-3.08-9.26,.87-9.26,4.52,0,2.32,3.07,6.97,4.64,7.03,.73,.03,4.9,.16,9.28,.29,5.53,.17,8.92,.68,11.13,1.67,1.75,.79,3.81,1.49,4.57,1.57,2,.19,2.55,1,1.51,2.24-1.15,1.38-.21,2.4,1.17,1.26,.79-.66,1.16-.38,1.55,1.21,.41,1.64,.09,2.41-1.56,3.71-1.15,.9-1.88,1.97-1.63,2.37s-.96,.73-2.68,.73c-3.36,0-5.4,1.57-4.63,3.57,.5,1.31,3.44,1.59,5.16,.5,1.21-.76,5.69,1.12,6.72,2.83,.35,.58,1.15,1.06,1.79,1.06s1.06,.44,.95,.98c-.12,.6,.81,1.04,2.38,1.12,1.42,.08,3.92,.82,5.56,1.64,3.48,1.75,4.85,1.48,2.98-.58-1.21-1.34-1.21-1.46,.08-1.71,2.73-.53,1.86-3.85-1.99-7.54-3-2.88-3.44-3.64-2.46-4.27,1.75-1.12,2.03-1.02,4.74,1.69,2.38,2.38,2.54,2.42,4.02,1.09,.85-.77,1.37-1.66,1.17-1.99-.2-.33,.42-.8,1.38-1.06l1.75-.46-1.84-1.96c-1.01-1.08-2.27-1.8-2.8-1.59s-1.62-.36-2.42-1.25-2.44-1.62-3.64-1.62c-2.35,0-3.76-1.98-1.91-2.69,2.91-1.12-3.36-5.76-7.19-5.32q-1.59,.18,0-1.02c1.48-1.12,1.49-1.24,.19-1.74-.77-.3-1.89-.14-2.49,.36-.85,.7-1.8,.3-4.33-1.81Zm-20.4,2.67c.27,.44,.11,.79-.35,.79s-.84-.36-.84-.79,.16-.79,.35-.79,.57,.36,.84,.79Zm26.43-.79c1.09,0,1.05,.19-.25,1.14-1.35,1-1.39,1.2-.27,1.63,.7,.27,1.59,.41,1.99,.32,.94-.24,5.33,1.84,6.04,2.85,.31,.44,.04,1.09-.6,1.45-1.9,1.06,.06,3.75,2.73,3.75,1.24,0,2.89,.72,3.7,1.62,.81,.89,1.9,1.45,2.43,1.25,.53-.2,1.55,.27,2.27,1.06,1.21,1.34,1.18,1.47-.4,1.88-.94,.24-1.49,.79-1.23,1.2,.26,.42-.02,1.16-.62,1.66-.84,.7-1.66,.37-3.65-1.5-2.95-2.75-3.15-2.8-5.23-1.25-1.48,1.11-1.41,1.29,1.97,4.63,3.89,3.85,4.7,6.58,2.16,7.24-1.57,.41-1.57,.46-.14,2.04,1.71,1.89,1.75,1.9-2.27-.19-1.7-.88-4.19-1.57-5.53-1.53-1.69,.05-2.1-.14-1.32-.62,.85-.53,.61-.82-1.03-1.23-1.18-.3-2.14-.85-2.14-1.23,0-1.21-6.13-3.75-7.28-3.02-.59,.37-1.9,.68-2.91,.69-1.34,0-1.77-.37-1.58-1.38,.2-1.05,1.14-1.42,3.83-1.53,1.96-.08,3.88-.17,4.26-.2,.38-.03,.28-.57-.24-1.18-.74-.89-.56-1.38,.85-2.37,1.62-1.14,1.91-1.13,3.2,.04,1.15,1.04,1.65,1.1,2.62,.29,1.63-1.35,.66-2.64-1.66-2.19-1.28,.24-1.89,0-1.89-.77,0-.62-.38-1.85-.85-2.72-.73-1.36-1.05-1.44-2.19-.54-1.21,.94-1.23,.91-.22-.38,1.27-1.62,.34-3.11-2.08-3.35-.78-.07-2.85-.78-4.6-1.57-2.21-1-5.6-1.51-11.13-1.67-4.37-.13-8.5-.26-9.17-.29-1.46-.06-3.95-4.01-3.95-6.28,0-1.97,3.55-4.9,5.94-4.9,2.13,0,3.71,3.04,2.96,5.68-.46,1.61-.6,1.42-1.03-1.31l-.5-3.18-.11,2.83c-.13,3.2,1.53,6.07,2.99,5.17,.62-.39,.69-.91,.19-1.51-1.13-1.36-.7-5.55,.68-6.66,.66-.53,2.03-.98,3.04-.99,1.46-.02,1.8,.35,1.61,1.76-.28,2.15,.72,3.99,1.8,3.32,.43-.26,1.29-.05,1.92,.47,1.25,1.04,3.93,.44,3.21-.72-.24-.39,.64-.87,1.97-1.06,2.45-.36,5.13,.94,5.13,2.5,0,.47,.36,.89,.79,.94,.44,.04,1.4,.4,2.14,.8,.83,.45,1.53,.42,1.84-.08,.27-.44,1.08-.8,1.79-.8Zm.2,15.9c.93,0,1.46,.36,1.19,.79-.27,.44-.81,.79-1.19,.79s-.92-.36-1.19-.79c-.27-.44,.27-.79,1.19-.79Z"/><path class="cls-14" d="M597.93,243.68l-4.65-1.6-1.82,1.71c-1.47,1.38-2.05,1.53-2.99,.74-.64-.53-.99-1.42-.78-1.98,.21-.55-.08-1.37-.64-1.82-1.31-1.03-5.85-1.91-6.5-1.26-.73,.73,1.93,3.4,3.41,3.43,1.08,.02,1.06,.14-.13,.84-1.13,.66-1.23,1.13-.52,2.45,.61,1.14,1.13,1.38,1.7,.8,.58-.58,2.02-.21,4.72,1.2,4.78,2.5,6.1,4.55,4.25,6.6-1.28,1.41-.46,3.02,1.05,2.08,.37-.23,2.01,.31,3.66,1.19,3.14,1.68,6.54,1.75,6.21,.12-.23-1.13,3.27-2.19,4.57-1.38,.49,.3,1.21,1.4,1.6,2.43,.44,1.15,1.73,2.17,3.33,2.63q3.44,.99,4.14,.3c.33-.33,.92-.64,1.33-.7,1.49-.2,1.61-.32,1.1-1.13-.33-.54-.84-.56-1.44-.07-1.34,1.11-5.47-2.7-5.76-5.32-.37-3.36-7.4-8.37-15.84-11.27Zm14.78,9.44c.04,.27,.16,1.32,.27,2.32,.11,1,1.42,2.86,2.91,4.14,2.88,2.46,2.66,2.69-1.46,1.5-1.42-.41-2.58-1.22-2.58-1.79s-.73-1.7-1.61-2.51c-1.3-1.17-2.04-1.3-3.78-.66-1.19,.44-2.07,1.22-1.96,1.73,.3,1.42-2.64,1.12-5.85-.6-1.57-.84-3.45-1.32-4.17-1.06-1.1,.4-1.07,.2,.19-1.23,1.38-1.57,1.4-1.85,.25-3.6-1.6-2.45-9.02-6.4-9.76-5.2-.37,.6-.73,.55-1.17-.17-.39-.64-.13-1.41,.7-2.01,1.2-.88,1.13-1.06-.78-1.79-3.07-1.17-3.75-2.68-.94-2.06,3.92,.86,4.42,1.15,3.98,2.28-.23,.61,.27,1.74,1.12,2.51,1.48,1.34,1.62,1.32,3.41-.35l1.86-1.75,5.39,1.96c4.88,1.77,13.83,7.1,13.99,8.34Z"/><path class="cls-14" d="M562.78,183.51c.5-3.97,.02-4.68-1.94-2.91-1.65,1.5-1.93,5.05-.5,6.48,1.3,1.3,1.95,.36,2.44-3.57Zm-1.48-2.58c.95-.78,1.05-.39,.69,2.49-.49,3.88-.55,4.01-1.28,3.29-.95-.95-.56-4.82,.59-5.77Z"/><path class="cls-14" d="M610.09,335.45c-1.87,.03-3.34,.23-3.27,.45,.07,.22,.39,1.47,.71,2.78,.31,1.31,.92,2.82,1.34,3.36,1.16,1.48,4.81,.58,5.04-1.24,.04-.29,.35-1.16,.69-1.93,.96-2.17-.76-3.47-4.5-3.42Zm3.72,3.39c-.34,.78-.66,1.75-.69,2.14-.14,1.42-3.68,1.31-4.13-.12-.24-.76-.74-2.16-1.11-3.1-.63-1.59-.45-1.7,2.42-1.55,3.66,.19,4.36,.71,3.52,2.63Z"/><path class="cls-14" d="M562.97,206.64c1.59,.4,2.58,1.81,3.23,4.64,.08,.33,.22,.86,.33,1.19,.25,.77,.53,1.99,.68,2.94,.07,.42,.54,.34,1.04-.17,.7-.7,.67-1.22-.1-2.15-.56-.67-.79-1.27-.52-1.33,.27-.05,.82-.14,1.22-.2,2.04-.28,1.68-1.64-1.16-4.34-5.31-5.05-5.56-5.5-3.98-7.23,.75-.83,1.25-2.33,1.1-3.33-.21-1.42-.78-1.83-2.64-1.85-2.26-.03-2.41,.17-3.05,4.2-.75,4.7,.27,6.73,3.84,7.62Zm-3.13-7.32c.47-3.54,.73-3.95,2.42-3.85,2.21,.13,2.65,2.87,.71,4.48-1.77,1.47-1.56,1.94,2.78,6.28,3.83,3.83,5.41,6.2,2.63,3.95-.77-.62-1.1-.69-.78-.15,.31,.52,.11,1.2-.44,1.52-.55,.32-.75,.3-.44-.05,.98-1.08-1.7-5.15-3.73-5.66-3.06-.77-3.73-2.15-3.14-6.53Z"/><path class="cls-14" d="M482.47,216.65c-2.33,0-3.52,5.11-1.63,7,1.2,1.2,1.59,1.19,3.34-.08,1.32-.96,1.33-1.25,.19-3.97-.67-1.62-1.53-2.94-1.9-2.94Zm1.2,6.49c-2.15,1.37-3.34-.05-2.85-3.39,.4-2.76,1.97-2.66,2.96,.19,.69,1.99,.67,2.71-.11,3.2Z"/><path class="cls-14" d="M546.96,258.55c3.22-1.07-2.22-5.54-7.01-5.75-1.77-.08-4.39-.53-5.81-1-2.24-.74-2.69-.66-3.39,.64-.67,1.26-.39,1.68,1.79,2.66,1.42,.64,3.84,1.38,5.37,1.64,1.53,.26,3.83,.65,5.1,.86,1.28,.21,2.51,.57,2.73,.8,.23,.23,.77,.29,1.21,.15Zm-9.34-2.65c-3.98-.64-6.88-2.15-6.2-3.25,.37-.6,1.58-.51,4.02,.32,1.92,.65,4.24,.98,5.16,.74,1.62-.42,6.85,2.39,6.86,3.69,0,.67-1.11,.8-1.72,.2-.39-.39-1.85-.69-8.11-1.69Z"/><path class="cls-14" d="M541.31,245.78c1.1,1.25,2.23,1.64,4.22,1.45,1.49-.14,2.93,.1,3.19,.52,.31,.5,.81,.5,1.4,0,.51-.42,1.28-.89,1.72-1.03,.44-.15,.69-1.19,.56-2.33-.13-1.14,.32-2.52,.99-3.08,.67-.56,1.23-1.5,1.23-2.08s.74-1.76,1.65-2.6c1.13-1.05,1.36-1.71,.74-2.1-.5-.31-.7-1.1-.45-1.75,.28-.74-.11-1.33-1.04-1.58-1.39-.36-1.36-.53,.46-2.5l1.95-2.11-2.48-2.22-2.48-2.22-3.79,3.95c-2.08,2.17-4.75,4.32-5.93,4.77-1.18,.45-2.14,1.36-2.14,2.03s-.67,1.21-1.49,1.21c-4.33,0-3.49,5.75,1.7,11.64Zm-1.9-10.71c1.04-.15,2.06-.95,2.28-1.79,.22-.84,.92-1.52,1.57-1.52s3.12-1.94,5.51-4.3l4.34-4.3,2.02,1.74,2.02,1.74-2.2,2.2c-2.18,2.18-2.18,2.21-.48,2.65,.95,.25,1.52,.78,1.27,1.19-.25,.41-.02,1.26,.5,1.9,.72,.87,.73,1.16,.03,1.16-.51,0-1.45,1.23-2.07,2.73-.63,1.5-1.54,2.97-2.03,3.28-.53,.33-.69,1.54-.4,2.98,.27,1.34,.25,2.19-.05,1.9-.29-.29-.95-.18-1.47,.25-.52,.43-1.21,.52-1.53,.19-.32-.32-1.89-.59-3.47-.59-2.48,0-3.18-.45-5.04-3.22-1.19-1.77-2.28-4.27-2.42-5.56-.21-1.95,.06-2.39,1.63-2.61Z"/><path class="cls-14" d="M532.48,245.46c.7-.7,.68-1.22-.09-2.14-.56-.67-1.31-1.03-1.69-.8-.79,.49-4.41-2.91-4.1-3.85,.12-.35-1.53-2.31-3.66-4.37-2.13-2.06-4.29-4.54-4.8-5.51-.88-1.67-5.34-3.56-6.68-2.82-.34,.19,.82,2.15,2.58,4.36,1.76,2.21,3.2,4.63,3.2,5.37s.89,2.19,1.99,3.21c1.09,1.03,1.99,2.43,1.99,3.12,0,.69,1.7,3.13,3.77,5.43,2.07,2.3,3.97,4.17,4.21,4.17,1.02,0,2.35-2.03,2.35-3.58,0-.92,.41-2.08,.92-2.59Zm-2.91,5.08c-1.09,.31-7.52-6.95-7.54-8.51,0-.69-.91-2.09-2-3.12s-1.99-2.47-1.99-3.21-1.44-3.16-3.21-5.38l-3.21-4.03,2.61,.75c1.44,.41,2.76,1.2,2.94,1.74,.18,.55,2.25,2.89,4.59,5.22,2.34,2.32,4.09,4.49,3.89,4.82-.54,.87,4.15,5.07,5.04,4.52,1.11-.69,1.92,1.06,1.01,2.18-.43,.53-.91,1.83-1.06,2.88-.15,1.06-.63,2.03-1.07,2.15Z"/><path class="cls-14" d="M623.38,294.93c-1.27-.05-4.37-2.27-4.39-3.14,0-.44-.9-1.64-1.98-2.67-1.08-1.03-1.77-2.19-1.53-2.58,.24-.39-.43-1.11-1.48-1.59-2.43-1.11-4.53-5.44-4.53-9.37,0-2.01-.53-3.51-1.57-4.45-.87-.78-1.8-2.62-2.07-4.07-.27-1.45-.99-3.05-1.59-3.55-1.33-1.1-2.48,1.43-3.53,7.77-.56,3.42-1.73,6.76-2.79,8.04-.12,.14-2.05-1.07-4.31-2.69-3.79-2.73-4.05-3.12-3.56-5.42,.29-1.36,.89-2.92,1.32-3.46,.93-1.16,.17-3.7-.92-3.03-.41,.25-.94,.14-1.18-.25-.24-.39-1.25-.74-2.24-.78-.99-.04-2.51-.18-3.37-.3-.92-.13-1.58,.24-1.59,.9-.01,.62-.52,1.29-1.12,1.49-.63,.21-.88,0-.58-.48,.29-.46,.18-1.05-.23-1.31-.41-.26-.96-.13-1.22,.29-.26,.41-.08,.99,.38,1.28,.59,.36,.56,.86-.08,1.64-.51,.62-.65,1.12-.31,1.12s.03,.65-.69,1.44c-1.03,1.14-1.1,1.65-.33,2.41,.77,.77,.38,.92-1.8,.74-1.52-.12-2.98-.73-3.22-1.35-.68-1.69-3.24-1.77-3.68-.11-.21,.79-1.21,1.82-2.23,2.28-1.41,.64-1.75,1.29-1.42,2.68,.43,1.8,.41,1.81-.8,.24-1.22-1.57-1.25-1.56-1.98,.4-.41,1.09-.59,2.39-.4,2.89,.34,.88-3.69,4.26-5.08,4.26-.8,0-4.82,2.06-9.19,4.71-2.3,1.39-2.98,2.32-2.98,4.02,0,1.22,.54,2.65,1.19,3.2s1.19,1.55,1.19,2.24c0,.99-.23,.93-1.14-.3-1.04-1.42-1.18-1.43-1.66-.18-.32,.83,.15,2.32,1.21,3.81,1.91,2.68,4.14,11.76,3.79,15.45-.18,1.9,.25,2.62,2.33,3.83q2.55,1.49,5.55-.55c1.8-1.22,4.12-2.05,5.8-2.05,1.93,0,3.37-.62,4.67-1.99,1.17-1.24,2.75-1.97,4.23-1.97,1.29,0,3.09-.39,3.99-.87,1.24-.67,2.63-.56,5.84,.45,3.43,1.08,4.45,1.83,5.51,4.05,.71,1.5,1.63,2.73,2.03,2.73s1.45-1.34,2.31-2.98,1.59-2.51,1.61-1.94c.02,.58-.34,1.75-.8,2.6-1.13,2.11-.2,3.49,1.45,2.16,1.08-.88,1.2-.83,.77,.3-.29,.77,.04,1.78,.77,2.38,.7,.58,1.75,2.2,2.34,3.61,1.31,3.14,5.42,4.67,7.57,2.82,1.18-1.02,1.5-.96,2.76,.51,1.82,2.13,2.2,2.09,3.81-.36,.92-1.41,1.78-1.88,2.81-1.56,1.5,.48,2.6-.58,2.89-2.76,.21-1.67,1.82-6.15,3.56-9.95,2.24-4.89,3.71-20.63,1.92-20.7Zm-2.72,20.7c-1.88,4.11-3.35,8.33-3.6,10.33-.14,1.09-.72,1.53-1.86,1.41-.97-.11-2.3,.63-3.21,1.79-1.81,2.3-1.7,2.29-3.57,.25-1.28-1.4-1.62-1.45-2.78-.45-1.62,1.39-6.49,.36-6.49-1.37,0-.61-.88-2.16-1.97-3.44-1.08-1.28-1.76-2.54-1.51-2.79,.25-.25,.21-.85-.09-1.34-.4-.65-.85-.63-1.67,.04-1.37,1.13-1.41,.65-.19-2.03,.69-1.51,.7-2.28,.04-2.94s-1.25-.13-2.27,2.01c-.76,1.59-1.58,2.89-1.83,2.88-.25,0-1.01-1.17-1.71-2.57-1.67-3.39-7.85-5.86-11.52-4.61-1.34,.46-3.35,.84-4.46,.84s-2.98,.89-4.16,1.99c-1.36,1.26-3.08,1.99-4.7,1.99-1.43,0-3.87,.89-5.52,2.01-2.77,1.88-3.11,1.94-5.25,.83-1.77-.91-2.21-1.61-1.93-3.05,.56-2.91-1.81-12.96-3.66-15.57-.92-1.29-1.67-2.81-1.67-3.37,0-.59,.48-.37,1.14,.52,1.07,1.46,1.17,1.46,1.69,.12,.33-.86,.04-1.98-.74-2.84-2.13-2.35-1.61-5.08,1.3-6.8,4.42-2.61,8.05-4.44,8.83-4.44,1.29,0,6.12-4.04,6-5.03-.06-.52-.07-1.63-.02-2.48,.09-1.49,.13-1.49,1.17-.08,.77,1.06,1.23,1.2,1.66,.51,.32-.52,.41-1.43,.18-2.01-.23-.6,.43-1.44,1.52-1.93,1.06-.48,1.92-1.42,1.92-2.09,0-1.46,1.81-1.25,2.43,.29,.43,1.07,5.29,1.92,6.55,1.14,.35-.22,.26-.85-.21-1.41-.61-.74-.51-1.29,.35-2.01,.66-.54,1.02-1.27,.81-1.61-.21-.34,.52-1.21,1.62-1.93,1.1-.72,1.77-1.69,1.48-2.16-.35-.57,.1-.64,1.37-.23,1.04,.34,2.51,.58,3.26,.53,.76-.05,1.59,.26,1.84,.67,.26,.42,.8,.55,1.21,.3,.95-.58,.97,1.46,.03,2.46-.39,.42-.95,1.89-1.24,3.28-.5,2.36-.24,2.73,3.86,5.76,2.41,1.78,4.6,3.24,4.86,3.24,.87,0,3.54-6.74,3.62-9.14,.1-2.99,1.9-8.12,2.5-7.11,.25,.41,.69,1.88,.98,3.25,.29,1.38,1.23,3.13,2.08,3.9,1.02,.93,1.54,2.44,1.54,4.49,0,3.79,2.58,9.09,4.77,9.78,.89,.28,1.44,.8,1.22,1.15-.22,.35,.49,1.6,1.58,2.77s1.97,2.43,1.97,2.79c0,.75,4.11,3.66,4.86,3.44,1.43-.41-.55,15.96-2.42,20.06Z"/><path class="cls-14" d="M592.28,149.8c-.84-.7-1.24-.46-1.82,1.07-.58,1.53-1.48,2.06-4.11,2.41-2.21,.3-4.03,1.17-5.3,2.54-1.41,1.52-2.2,1.86-2.93,1.26-1.79-1.48-2.04,.11-.38,2.44,.89,1.25,1.38,2.65,1.1,3.11-.29,.46-.32,1.36-.08,1.99,.78,2.03,2.18,1.24,3.42-1.93,.88-2.24,1.58-2.99,2.58-2.73,.75,.2,1.83-.2,2.39-.88,.87-1.05,.74-1.35-.85-1.99-1.86-.74-1.86-.75-.12-.8,1.03-.03,2.15,.67,2.69,1.69,.92,1.71,.95,1.72,2.21,.2,.87-1.05,2.3-1.55,4.46-1.56h3.18s1.19-4.91,1.19-4.91c.66-2.69,1.46-5.16,1.79-5.48,.96-.94,.69-4.83-.4-5.64-1.76-1.31-3.37-.71-3.6,1.34-.53,4.7-.99,5.74-2.12,4.8-.69-.57-1.27-.62-1.57-.13-.26,.43-.1,1.01,.37,1.3,.59,.36,.56,.87-.09,1.65-.71,.85-1.21,.91-2.01,.24Zm-10.72,12.68c-.98,2.8-2.75,3.47-2.04,.78,.28-1.06-.19-2.66-1.23-4.17-.92-1.35-1.22-2.03-.66-1.52,.56,.51,1.46,.76,1.99,.56,1.84-.71,2.89,1.63,1.94,4.35Zm13.39-14.91c-.87-1.11-.83-1.14,.34-.23,1.14,.89,1.46,.81,2.19-.54,.47-.87,.85-2.65,.85-3.96,0-1.8,.33-2.32,1.39-2.17,1.58,.23,2.36,3.97,1.14,5.47-.42,.52-1.18,2.95-1.68,5.39l-.91,4.44-3.22-.09c-2.39-.07-3.42,.29-4.01,1.4-.77,1.44-.84,1.43-1.97-.18-1.36-1.94-3.06-2.07-5.85-.46-1.71,.99-1.76,1.13-.4,1.04,2.97-.21,4.47,.14,3.98,.92-.63,1.01-4.26,.71-5.21-.43-1.27-1.53,1.03-3.52,4.79-4.16,2.57-.44,3.82-1.12,4.48-2.45,.6-1.21,1.11-1.52,1.48-.92,.4,.65,1,.53,2.08-.45,1.24-1.12,1.33-1.59,.52-2.64Z"/><path class="cls-14" d="M574.74,234.48c-1.04,.15-1.47,.96-1.54,2.92-.05,1.49,.12,3.06,.39,3.5,.27,.44,.53,1.06,.59,1.39,.06,.33,.16,.8,.21,1.04,.05,.24,.49,.2,.96-.09,.56-.34,.59-.81,.09-1.3s-.36-1.6,.4-3.12c1.38-2.77,.91-4.63-1.11-4.34Zm.94,2.78c-.8,3.24-1.71,3.55-1.83,.63-.07-1.92,.24-2.68,1.12-2.68s1.09,.52,.71,2.05Z"/><path class="cls-14" d="M608.75,131.24c-.4-.25-1.22-.26-1.83-.02-.61,.23-1.94-.47-2.97-1.56-1.07-1.14-1.86-1.64-2.39-1.5l2.21,2.12c1.45,1.39,2.73,1.98,3.59,1.65,.99-.38,1.21-.19,.84,.77-.27,.7-.95,1.28-1.5,1.28s-1.45,.53-1.98,1.17c-.53,.64-1.74,1.09-2.68,.99-1.01-.1-1.63,.23-1.51,.82,.11,.55-.16,.99-.6,.99s-.79-.33-.79-.73-.2-1.25-.44-1.88c-.28-.72,.17-1.31,1.19-1.58,1.23-.32,1.63-1.07,1.63-3.04v-2.56c-.54,.18-.79,1.07-.79,2.68,0,1.51-.41,2.34-1.15,2.34-1.72,0-2.14,1.21-1.24,3.58,.77,2.03,3.02,2.41,2.56,.44-.14-.6,.34-.78,1.28-.48,.87,.28,1.92-.03,2.5-.74,.55-.67,1.48-1.21,2.07-1.21,1.34,0,2.99-2.92,1.99-3.53Z"/><path class="cls-14" d="M557.07,247.34c.47,.57,.64,1.4,.36,1.84-.27,.44,.09,1.71,.81,2.81,1.89,2.89,2.71,1.79,2.23-2.97-.31-3.07-.2-3.84,.43-2.96,.47,.66,.85,1.95,.86,2.88,.02,2.24,2,3.96,2.91,2.52,1.4-2.21,.92-5.32-1-6.59-2.53-1.66-2.4-2.91,.29-2.62,1.52,.16,2.19-.14,2.19-.96s-.86-1.19-2.98-1.19c-1.71,0-2.98-.39-2.98-.91,0-1.25,1.69-1.79,4.14-1.32,2.15,.41,5.92-1.1,5.01-2.01-.99-.99-7.94-.79-9.62,.27-2.06,1.31-4,9.56-2.63,11.2Zm2.41-10.4c.4-.42,2.75-.83,5.23-.91,3.35-.1,4.14,.07,3.09,.66-.78,.44-2.41,.59-3.62,.35-2.53-.51-5.19,1.06-4.64,2.72,.25,.75,1.32,1.03,3.29,.86,1.74-.15,2.92,.1,2.92,.62s-.76,.68-1.9,.39c-2.82-.71-3.51,1.17-1.17,3.18,1.29,1.11,1.94,2.49,1.92,4.04-.05,3.19-1.43,3-2.11-.3-1.21-5.93-3.76-4.57-2.79,1.5,.28,1.73,.41,3.15,.29,3.15-.7,0-2.16-3.38-1.75-4.04,.27-.44,.1-1.27-.38-1.85-.96-1.15,.27-8.93,1.64-10.38Z"/><path class="cls-14" d="M564.4,222.29c1.2-1.2,2.14-1.08,2.14,.29,0,.63,.61,1.49,1.36,1.91,2.23,1.25,4.89-1.88,4.23-4.97-.44-2.05-.85-2.42-2.46-2.19-3.89,.55-4.28,.5-4.3-.47-.01-.55-.29-.99-.62-.99h-1.15c-.31,0-.15,.41,.35,.9,.67,.67,.59,1.37-.31,2.75-1.34,2.04-.72,4.27,.77,2.78Zm1.32-3.5c.02,.69,.62,.63,2.21-.19,2.95-1.54,3.15-1.48,3.51,1.04,.18,1.3-.2,2.69-.95,3.43-1.43,1.41-3.15,1.15-3.15-.47s-1.51-2.23-2.82-1.14c-.64,.53-1.16,.63-1.16,.22,0-1.12,2.33-3.97,2.36-2.88Z"/><path class="cls-14" d="M569.28,261.09c3.73-2.2,4.69-3.47,3.43-4.51-1.23-1.02-7.48,3.9-6.66,5.24,.36,.58,1.42,.34,3.23-.73Zm3.17-3.98c.24,.39,0,1.03-.55,1.44-2.58,1.92-5.36,3.4-5.36,2.84,0-1.07,5.45-5.02,5.91-4.28Z"/><path class="cls-14" d="M184.55,196.98c.87,.16,2.61,.02,3.87-.32,1.25-.34,2.64-.54,3.08-.45,.44,.09,.96-.26,1.16-.79,.76-2.07-8.35-4.22-9.22-2.17-.18,.41-.89,1.17-1.59,1.69-1.38,1.02-.89,1.38,2.7,2.05Zm-1.74-2c.79-.31,1.27-.85,1.05-1.2-.49-.79,3.16-.7,6.05,.15,1.2,.35,2.19,.98,2.19,1.4s-.31,.57-.68,.33c-.37-.23-1.72-.14-2.98,.2-2.87,.77-7.85,0-5.63-.88Z"/><path class="cls-14" d="M180.1,191.71c.73-.88-.34-1.72-5.56-4.37-6.86-3.48-9.78-3.99-12.29-2.14-1.5,1.11-1.49,1.16,.44,1.88,1.09,.41,1.9,.97,1.79,1.25-.41,1.05-.17,1.38,.63,.88,.57-.35,.54-.87-.1-1.64-.64-.78-.66-1.12-.06-1.12,1.3,0,9.62,4.06,9.54,4.65-.04,.28-.02,.78,.03,1.11,.16,1.04,4.63,.64,5.57-.49Zm-5.28-.61c.34-1.55-8.23-5.46-10.93-4.99-1.81,.32-2.1,.22-1.19-.41,.66-.46,2.14-.84,3.3-.84,2.36-.01,14.41,5.86,13.63,6.64-.89,.89-5.02,.54-4.81-.4Z"/><path class="cls-14" d="M278.96,44.91c2.33,.94,2.35,.94,1.85,.12-.46-.74-3.64-1.78-3.64-1.19,0,.19,.8,.67,1.79,1.07Z"/><path class="cls-14" d="M167.39,107.61c-.62-1.15-1.12-1.38-1.72-.78-.6,.6-.55,1.2,.16,2.06,1.41,1.7,2.62,.7,1.55-1.28Zm-1.3-.35c.21-.21,.59,.17,.85,.85,.54,1.4,.08,1.65-.7,.38-.29-.47-.35-1.02-.15-1.23Z"/><path class="cls-14" d="M254.49,249.13c-1.54-.91-3.14-2.29-3.56-3.06-.56-1.05-2.02-1.49-5.74-1.75-4.28-.29-5.37-.7-7.66-2.88-3.21-3.05-5.06-3.2-6.8-.55-.89,1.37-1.98,1.96-3.47,1.91-2.13-.08-2.13-.09-.26-.61,2.56-.72,3.94-2.91,2.65-4.21-.76-.76-1.48-.59-3.36,.8-1.31,.97-2.38,1.49-2.37,1.15,.04-.97,2.34-3.79,3.19-3.9,.42-.05,1-.14,1.28-.2,.29-.05-.13-.81-.92-1.69-.79-.87-1.22-1.59-.96-1.59s.03-1.07-.52-2.39c-1.41-3.35-5.76-6.36-9.19-6.36-2.2,0-3.45-.65-5.74-2.98-1.61-1.64-3.66-3.65-4.55-4.48-.9-.82-1.55-1.88-1.46-2.36s-1.09-1.06-2.62-1.29-2.69-.69-2.58-1.02c.11-.33,.02-.6-.2-.6h-.89c-.27,0-.05,.54,.49,1.19,.83,.99,.72,1.19-.65,1.19-.9,0-1.87-.37-2.14-.82s-.92-.75-1.44-.67c-1.38,.22-3.98-1.03-5.09-2.44-.87-1.1-1.04-1.04-1.47,.49-.27,.95-.99,1.93-1.6,2.16-1.32,.51-1.47-.44-.25-1.66,.62-.62,.6-1.02-.06-1.44-.53-.32-1.87,.33-3.11,1.51-1.2,1.15-2.41,1.85-2.7,1.56-.89-.89-2.82,1.28-3.37,3.8l-.53,2.4-1.93-1.81c-1.74-1.63-2.25-1.73-5.11-.96-2.97,.79-3.29,.71-4.83-1.23-1.42-1.8-1.58-2.76-1.15-7.03l.5-4.95-2.63-1.1c-1.45-.6-3.8-.93-5.23-.72-2.51,.37-2.58,.31-2.05-1.9,.3-1.26,.82-2.64,1.16-3.08,.34-.44,.73-2.4,.88-4.37l.27-3.58-2.97,.09c-3.69,.11-5.38,1.45-5.38,4.28,0,1.96-.34,2.23-3.33,2.63-4.27,.57-5.81-.3-7.79-4.39-1.56-3.23-2.18-10.1-1.02-11.26,.32-.31,.48-1.72,.37-3.11-.16-2.11,.25-2.82,2.41-4.2,2.74-1.75,3.38-1.78,9.75-.48,4.46,.91,5.72,.56,4.28-1.17-1.34-1.61,.59-2.86,3.29-2.13,1.09,.3,2.92,.5,4.06,.45,2.24-.1,3.79,1.9,4.17,5.4,.28,2.58,2.77,6.35,4.21,6.35,1.95,0,2.04-2.08,.34-8.13-.91-3.23-1.65-6.32-1.65-6.86s1.97-2.93,4.37-5.32,4.1-4.35,3.78-4.36c-.33-.01,.04-.39,.81-.84s1.22-1.13,.98-1.51c-.23-.38-.06-.92,.38-1.19,.54-.34,.55-.99,.01-1.99-.44-.82-.76-2.5-.72-3.73q.08-2.23,.63-.25c.66,2.39,1.89,2.25,2.56-.28,.83-3.11,3.19-6.08,4.82-6.08,.85,0,2.27-.38,3.14-.85,1.28-.69,1.4-1.07,.63-2.01-1.23-1.48,.24-5.09,2.07-5.09,.68,0,2.64-.72,4.36-1.59,3.92-2,4.6-2.01,2.81-.03-.83,.92-1.2,2.11-.9,2.9,.47,1.23,.66,1.21,2.28-.2,.97-.85,3.11-2.15,4.75-2.89,1.64-.74,2.98-1.73,2.98-2.2s.33-.65,.74-.4c1.22,.75,1.86-1.14,.82-2.39-.06-.07-.12-.13-.18-.19-.68,.55-1.55,.92-2.62,1-.02,.02-.04,.04-.06,.06-1.68,1.81-4.15,2.1-3.07,.36,.23-.38,.08-.89-.33-1.15-.41-.26-.96-.12-1.22,.3-.26,.42-1.27-.02-2.24-.98-1.74-1.71-1.74-1.75-.18-2.18,.9-.25,1.59-1.11,1.59-1.99,0-2.45-5.42-1.97-8.24,.73-2.6,2.49-4.19,2.82-2.02,.42,3.41-3.78,5.91-4.87,12.5-5.47,5.83-.53,9.7-1.46,13.26-3.18,.69-.34,1.19-1.65,1.19-3.13,0-3.81-1.66-4.94-5.37-3.66-1.64,.57-2.98,.71-2.98,.31s1.08-.94,2.4-1.2c2.93-.59,3.77-1.69,1.82-2.4-.79-.29-2.43-1.2-3.63-2.04-1.2-.83-2.2-1.22-2.21-.86-.01,.36-.44-.07-.95-.94-.51-.87-.76-1.65-.57-1.72s-.47-1.01-1.47-2.07c-1-1.07-2.01-2.96-2.23-4.21-.76-4.18-1.9-4.67-4.42-1.92-1.24,1.36-2.63,2.24-3.09,1.96s-1.26-.18-1.79,.22c-1.75,1.34-4.33-2.66-2.75-4.24,1.18-1.18,.56-2.77-1.37-3.5-1.08-.41-2.72-1.61-3.63-2.66-1.38-1.58-2.36-1.89-5.77-1.82-3.89,.09-4.19,.24-5.43,2.87-.93,1.97-1.09,3.21-.55,4.22,.52,.98,.47,1.81-.18,2.58-.52,.63-.68,1.14-.36,1.14s.19,.49-.3,1.08c-.68,.82-.52,1.56,.7,3.11,1.96,2.49,2.03,5.17,.21,7.76-.89,1.27-1.42,3.63-1.49,6.63-.14,5.88-1.21,6.61-4.83,3.3-2.51-2.3-2.76-2.91-2.51-6.04l.28-3.48-3.9-.56c-2.51-.36-5.38-1.59-8.05-3.43-2.29-1.57-4.65-2.76-5.24-2.63-.67,.14-.99-.33-.84-1.22,.34-1.99-1.19-3.63-2.95-3.17-1.02,.27-1.59-.17-1.93-1.45-.55-2.1,3.42-8.94,5.98-10.31,.85-.46,1.37-1.31,1.14-1.9-.46-1.2,1.33-2.15,2.92-1.54,1.12,.43,5.31-2.47,5.31-3.67,0-.39-1.16-1.05-2.58-1.46l-2.58-.75,2.98-.07c2.83-.07,2.98,.06,2.98,2.42,0,1.4-.58,2.92-1.32,3.46-1.16,.85-1,1.12,1.39,2.32,2.65,1.33,2.74,1.32,4.34-.54,1.49-1.73,1.79-1.8,3.38-.74,.17,.12,.33,.22,.48,.3,.66,0,1.24,.12,1.77,.31,.21-.09,.43-.24,.67-.44,1.02-.85,.89-1.29-.99-3.28-1.19-1.26-3.31-2.51-4.7-2.77-3.02-.57-4.3-2.7-1.62-2.71,1.92,0,6.93-2.75,6.93-3.81,0-.36-.51-1.35-1.13-2.2-.84-1.15-.9-1.81-.24-2.61,1.74-2.09-5.64-5.58-7.62-3.6-.28,.28-.16,1.15,.27,1.94,.83,1.54-.33,2.99-1.22,1.53-.28-.45-.85-.61-1.26-.36-.41,.26-.54,.8-.29,1.22,.26,.41,.8,.55,1.21,.3,1.17-.72,.86,.93-.36,1.94-1.2,.99-2.08-.3-2.08-3.04,0-.77-.67-2.01-1.5-2.76-1.43-1.29-1.58-1.25-3.18,.78-1.63,2.07-1.68,2.08-1.68,.36,0-1.11-.6-1.93-1.61-2.19-1.14-.3-1.38-.7-.82-1.37,.55-.66,.1-1.7-1.5-3.45-1.9-2.08-2.1-2.65-1.18-3.42,.61-.51,.91-1.24,.67-1.62s.06-.7,.67-.7,1.89-.84,2.86-1.87c2.22-2.36,.96-3.69-3.04-3.22-4.2,.5-5.3,2.02-4.27,5.88,.47,1.75,.55,3.18,.18,3.18s-1.28,.93-2.02,2.07c-1.09,1.66-1.17,2.36-.41,3.58,.76,1.21,.73,1.51-.16,1.51-.61,0-1.56-.55-2.11-1.22-.9-1.08-1.2-1.05-2.68,.35-.92,.86-1.94,1.59-2.27,1.62-.89,.07-.72,1.23,.2,1.34,.44,.05,1.09,.14,1.46,.2,.36,.05,.66,.59,.66,1.2,0,.72-1.33,1.25-3.87,1.56-4.12,.49-7.99-.36-6.33-1.38,.52-.32,.73-.92,.48-1.34-.26-.41-.8-.54-1.22-.29-.41,.26-.55,.8-.3,1.21,.25,.41,.12,.74-.3,.74s-.96-.54-1.21-1.19c-.29-.76-1.55-1.2-3.46-1.22-2.93-.03-2.96-.06-1.11-1.08,1.58-.88,2.5-.87,5.48,.02,1.97,.59,4.01,1.43,4.53,1.87,1.54,1.28,2.13-.12,.71-1.69-1.22-1.34-1.16-1.49,.84-2.25,2.57-.98,1.99-2.4-.98-2.42-3.03-.02-4.08-.9-5.3-4.44-.76-2.22-.83-3.39-.22-4.13,.6-.73,.6-1.27,0-1.88-.95-.95-2.85-.15-2.18,.92,.23,.38-.39,.8-1.37,.94-1.29,.18-1.92,.93-2.22,2.64-.31,1.75-.56,2.04-.94,1.08-.28-.72-1.63-1.86-3-2.54-2.17-1.08-2.54-1.09-2.93-.07-.34,.88-.71,.95-1.51,.29-.59-.49-1.4-.68-1.81-.42-.41,.25-.96-.1-1.22-.78-.33-.85-1.01-1.07-2.17-.71-1.1,.35-1.51,.24-1.17-.31,.77-1.25-3.07-3.46-5.65-3.25-1.23,.1-2.84-.09-3.59-.41-2.04-.88-5.77,.65-5.9,2.42-.06,.84-.15,2.15-.2,2.91-.05,.77-.6,1.39-1.23,1.39-1.79,0-2.3,1.54-.69,2.11,.79,.28,1.98,1.16,2.63,1.96,1.07,1.31,1.4,1.34,3.18,.32,1.09-.63,2.79-1.5,3.78-1.95,.98-.45,1.79-1.18,1.79-1.62,0-1.78,1.2-.68,1.31,1.19,.2,3.49,1.78,4.59,5.86,4.1,2.01-.24,4.16-.12,4.78,.27,.73,.45-.82,.78-4.42,.94-5.85,.25-7,1.36-2.57,2.49,1.42,.36,3.34,1.36,4.25,2.21s2.17,1.39,2.78,1.19,2.73-.58,4.69-.86c3.29-.46,3.45-.41,1.99,.67-1.32,.97-1.39,1.25-.4,1.64,1.25,.49,1.87,5.21,.68,5.21-.37,0-.68-.67-.68-1.49,0-2.08-4.01-3.57-8.33-3.08-4,.45-4.97,0-3.05-1.4,1.19-.87,1.11-1.1-.81-2.36-1.67-1.09-2.38-1.19-3.26-.46-.88,.73-1.71,.64-3.77-.44-3.5-1.82-8.75-2.77-9.94-1.78-.62,.52-1.75,.36-3.37-.48-2.59-1.34-3.49-1.09-7.92,2.15-2.59,1.9-4.17,1.74-1.69-.17,2.98-2.29,.23-2.96-3.39-.83-1.85,1.09-3.01,1.38-3.35,.82-.29-.46-.87-.63-1.3-.36-.47,.29-.49,.84-.06,1.4,1.07,1.37,1.88,6.27,.93,5.69-.43-.27-.78-1.34-.78-2.38,0-1.98-.66-2.68-2.98-3.16-.77-.16-2.96-.86-4.87-1.54-1.91-.69-4.31-1.25-5.32-1.25s-2.04-.32-2.28-.71-2.6-.74-5.23-.78-5.5-.45-6.37-.91c-1.07-.57-2.05-.58-3.08-.03-1.12,.6-1.76,.5-2.48-.37-.54-.65-1.98-1.18-3.22-1.18s-2.47-.38-2.76-.83c-.36-.58-.84-.56-1.57,.04-.72,.6-1.21,.61-1.56,.05-.33-.54-1.19-.38-2.46,.45-1.07,.7-1.96,.97-1.97,.59-.01-.38-.46-.15-.99,.5-.53,.66-1.86,1.31-2.96,1.45s-2.57,1.01-3.29,1.93c-.72,.92-1.9,1.75-2.63,1.86-.73,.11-2.24,.79-3.35,1.52l-2.03,1.33,2.67,2.33c2.67,2.34,6.12,4.25,7.24,4.01,.33-.07,.6,.19,.6,.58,0,1.35-2.19,1.55-4.41,.4-1.52-.79-2.48-.9-3.04-.33-.45,.45-1.42,.82-2.15,.82s-1.78,.53-2.32,1.18c-.8,.97-.71,1.29,.5,1.79,.82,.33,1.48,1.14,1.48,1.79,0,1.76,7.63,2.77,8.83,1.18,1.22-1.62,1.66-1.46,1.51,.55-.12,1.59-2.04,2.9-5.17,3.52-2.01,.4-4.06,3.56-3.51,5.4,.74,2.45,3.64,5.35,5.06,5.05,.68-.14,1.61,.25,2.08,.86,1.33,1.74,6.31,3.2,7.89,2.31,1.16-.65,1.27-.49,.78,1.12-.87,2.83-1.76,3.64-6.38,5.83-2.33,1.1-4.45,2.34-4.7,2.75-.7,1.13,1.18,1.94,2.18,.94,1.07-1.07,3.23-1.19,2.59-.14-.1,.17-.14,.33-.14,.48,.31-.45,.7-.84,1.17-1.15-.79-.39,0-.79,5.54-3.84,3.67-2.02,9.06-7.24,8.47-8.2-.22-.35,0-.87,.46-1.17,.47-.29,1.18-1.39,1.58-2.44,.4-1.05,1.36-1.9,2.14-1.89,1.34,.02,1.34,.07,.02,.83-1.52,.88-1.87,3.52-.59,4.31,.44,.27,1.87-.03,3.17-.68,1.38-.69,2.56-.87,2.83-.44,.25,.41,.8,.53,1.21,.28,.41-.26,.54-.8,.29-1.22-.26-.41-.8-.55-1.21-.3-.7,.43-.98-.52-.54-1.81,.29-.84,2.19-1,2.19-.18,0,1.13,4.88,2.97,9.23,3.49,2.24,.27,5.79,1.36,7.9,2.43,2.6,1.31,4.14,1.69,4.77,1.17,.66-.55,1.3-.03,2.18,1.79,1.36,2.8,1.02,4.4-.63,3.02-.73-.6-1.21-.62-1.57-.04-.28,.46-.32,.88-.07,.93,.24,.05,.71,.15,1.04,.21s1.04,.4,1.59,.74c.93,.59,1.31,.15,1.09-1.25-.16-1.02,1.25-.65,2.29,.6,.54,.66,1.48,1.19,2.08,1.19s1.1,.54,1.1,1.19-.32,1.1-.72,.99c-.66-.18-.87,.19-.87,1.49,0,.27,.54,.05,1.19-.49,.66-.54,1.24-.77,1.29-.49,.38,1.89,.31,2.6-.35,3.48-.41,.55-.48,.99-.15,.99s.17,.5-.34,1.12c-.04,.04-.06,.08-.09,.12,.37,.22,.7,.5,.98,.81,0-.19-.01-.41-.05-.66-.11-.73,.19-.74,1.86-.1,1.19,.46,1.19,.61,.01,1.91-.35,.39-.57,.75-.68,1.06,.06,.26,.11,.53,.13,.79,.02,.02,.04,.04,.06,.05,.44,.27,1.01,.14,1.27-.28s1.01-.57,1.67-.32c.91,.35,.98,.71,.27,1.56-.5,.6-.65,1.1-.32,1.1s.11,.58-.48,1.29c-.92,1.11-.75,1.55,1.29,3.2,1.3,1.05,3.39,2.43,4.64,3.07,2.37,1.21,4.09,.9,3.18-.56-.3-.48-.05-.69,.58-.48,.61,.2,1.22,1.39,1.37,2.64,.24,2.01,.12,2.16-1.01,1.22-1.87-1.55-2.24-.71-2.49,5.71-.12,3.18-.34,7.57-.49,9.76-.19,2.96,.18,4.79,1.49,7.15,.96,1.75,2.17,3.08,2.69,2.95,.53-.13,.75,.27,.5,.92-.61,1.59,3.82,8.36,6.01,9.16,.78,.29,1.43,.73,1.68,1.09,.02-.05,.04-.1,.08-.16,.29-.47-.34-1.18-1.41-1.59-2.17-.82-5.48-5.67-5.66-8.28-.07-.94-.52-1.63-1-1.54-1.81,.35-3.75-5.53-3.47-10.51,.15-2.62,.31-7.01,.36-9.74,.08-4.73,.58-5.95,1.68-4.16,.75,1.22,1.98,.12,1.98-1.77s-6.7-8.58-8.7-8.58-2.57-.86-1.58-2.06c1.22-1.47-1.78-3.01-3.29-1.68-.6,.53-.43,.16,.37-.8,1.45-1.73,1.44-1.78-.61-2.71-1.28-.59-1.84-1.28-1.44-1.82,1.13-1.53-.74-6.81-2.42-6.86-1.1-.03-4.59-2.7-4.59-3.51,0-.27-.58-1.38-1.29-2.47-.9-1.38-1.58-1.74-2.23-1.19-.64,.53-2.17,.15-4.78-1.17-2.11-1.07-5.67-2.16-7.9-2.41-4.18-.48-7.61-1.73-8.61-3.13-1.28-1.8-4.84-.37-4.07,1.64,.36,.93-2.39,2.74-4.15,2.74-.96,0-.17-2.74,1.05-3.63,1.32-.98,1.32-1.05-.01-1.57-1.54-.6-3.77,.84-3.77,2.42,0,.55-.53,1.44-1.18,1.98-.65,.54-1.02,1.24-.82,1.57,.53,.86-4.25,5.5-7.49,7.26-1.55,.84-3.36,1.87-4.02,2.27-2.48,1.53-6.63,3.21-7.01,2.84-.21-.21,1.01-.97,2.71-1.68,4.47-1.86,7.48-4.19,8.33-6.44,.91-2.4,.27-3.68-1.39-2.75-1.54,.86-6.59-.8-7.52-2.47-.38-.67-1.33-1.06-2.11-.85-1.58,.41-3.67-1.57-4.49-4.26-.37-1.22-.03-2.25,1.13-3.41,.91-.91,1.91-1.52,2.23-1.34,1.23,.69,5.21-2.37,5.34-4.1,.17-2.28-1.16-3.14-2.34-1.53-1.22,1.67-8.71,.98-8.05-.73,.26-.67-.28-1.39-1.35-1.8-1.72-.66-1.72-.7-.19-1.22,.87-.29,2.19-.86,2.93-1.25,.88-.47,2.09-.32,3.51,.41,1.56,.81,2.59,.9,3.67,.32,1.48-.79,1.58-2.62,.15-2.75-1.61-.15-4.04-1.51-6.5-3.62l-2.59-2.23,2.29-1.18c1.26-.65,2.47-1,2.69-.77,.22,.22,1.11-.49,1.97-1.58s2.54-2.12,3.73-2.28,2.49-.8,2.89-1.43c.4-.63,.73-.83,.74-.46,0,.38,.89,.11,1.96-.59,1.27-.83,2.12-.99,2.46-.45,.35,.56,.84,.55,1.56-.05,.73-.6,1.21-.62,1.57-.04,.28,.46,1.52,.83,2.76,.83s2.68,.53,3.22,1.18c.72,.87,1.36,.97,2.48,.37,1.03-.55,2.01-.54,3.08,.03,.86,.46,3.73,.87,6.37,.91s4.99,.39,5.23,.78,1.27,.71,2.28,.71,3.41,.57,5.32,1.26c3.3,1.2,5.13,1.72,6.46,1.86,.33,.03,.6,.91,.6,1.95,0,1.93,1.75,4.05,2.62,3.18,.66-.66-.25-5.19-1.34-6.66-.74-1-.68-1.04,.35-.23,.99,.77,1.74,.65,3.8-.6,1.41-.86,3-1.54,3.54-1.53,.54,.02-.57,.96-2.45,2.1-2.15,1.29-3.15,2.35-2.68,2.82,.72,.72,3.1-.32,9.52-4.17,2.44-1.46,2.78-1.49,5.03-.33,1.61,.83,2.72,.99,3.34,.47,1.19-.98,6.44-.04,9.94,1.78,2,1.04,2.9,1.16,3.73,.48,.81-.67,1.53-.66,2.85,.05,1.61,.86,1.64,1.02,.4,1.71-2.37,1.33-.1,2.92,3.48,2.44,4.44-.6,7.1,.29,8,2.65,.96,2.53,2.82,2.04,2.54-.67-.16-1.48,.23-2.12,1.47-2.45,1.91-.5,1.34-2.17-.71-2.08-1.1,.05-1.05,.18,.25,.74,1.05,.45,1.18,.7,.4,.73-.66,.02-1.67-.26-2.25-.63-.85-.54-.79-.77,.26-1.18,2.09-.8,5.96-.59,5.96,.33,0,.46,1.25,1.36,2.78,2,2.96,1.24,8.08,.93,11.38-.67,1.39-.68,2.22-.65,3.41,.09,1.91,1.19,2.65,.8,4.16-2.22,1.26-2.53,1.02-3.21-1.14-3.21-2.88,0-2.8-4.02,.1-5.57,2.03-1.08,6,2.88,4.59,4.58-.7,.84-.52,1.18,.83,1.53,.97,.25,1.72,1.08,1.72,1.9,0,2.34,1.31,2.48,2.75,.29,1.07-1.64,1.55-1.85,2.47-1.09,.63,.52,1.14,1.73,1.14,2.68s.48,2.39,1.06,3.18c.99,1.35,1.19,1.28,3.12-1.2,1.58-2.01,1.89-2.98,1.3-4.08-.65-1.22-.44-1.43,1.45-1.41,2.98,.03,5.52,1.96,4.39,3.33-.61,.74-.53,1.45,.28,2.56,.62,.85,1.13,1.82,1.13,2.16,0,1.01-4.73,3.16-6.61,3.01-2.85-.23-3.02-.04-1.72,1.93,.68,1.04,2.35,2.12,3.71,2.39,2.69,.54,6.6,4.14,5.34,4.91-.43,.26-1.61-.06-2.62-.72-1.72-1.13-1.94-1.07-3.34,.79-1.42,1.88-1.63,1.93-3.72,.84-1.77-.92-1.96-1.26-.95-1.65,.92-.35,1.21-1.31,1.03-3.48-.23-2.75-.46-3.01-2.93-3.24-2.8-.27-5.31,1.1-3.21,1.74,4.58,1.41,4.47,1.28,2.39,2.98-1.06,.86-2.42,1.37-3.04,1.14-1.39-.53-4.38,.98-3.8,1.92,.23,.38-.56,1.72-1.77,2.99-5.14,5.39-6.06,7.3-4.95,10.21,.56,1.49,1.25,1.96,2.56,1.78,1.34-.19,1.8,.15,1.82,1.34,.04,2.12,1.09,3.72,2.05,3.12,.43-.26,2.7,.84,5.05,2.46,2.79,1.92,5.5,3.08,7.8,3.34l3.53,.4-.36,3.29c-.33,3-.08,3.54,2.78,6.24,2.71,2.55,3.33,2.81,4.53,1.93,1.03-.75,1.42-2.25,1.5-5.73,.07-3.05,.6-5.41,1.5-6.68,1.82-2.59,1.75-5.27-.21-7.76-1.22-1.55-1.38-2.28-.7-3.11,.49-.59,.63-1.08,.3-1.08s-.17-.51,.36-1.14c.63-.76,.7-1.63,.21-2.58-.49-.96-.39-2.28,.31-3.93,.98-2.33,1.29-2.48,4.86-2.37,2.96,.09,4.32,.6,6.12,2.29,1.27,1.19,2.79,2.17,3.38,2.17,1.21,0,1.47,2.05,.35,2.74-1.09,.67-.61,2.31,1.26,4.32,1.14,1.23,1.86,1.51,2.24,.9,.31-.5,1.1-.7,1.75-.45,.71,.27,2.09-.51,3.44-1.95,2.39-2.55,2.84-2.4,3.49,1.18,.22,1.23,1.2,3.09,2.17,4.12,.97,1.03,1.51,1.87,1.21,1.87s.04,.91,.76,2.01c.73,1.11,1.5,1.83,1.72,1.61s1.33,.26,2.48,1.05c1.14,.8,2.61,1.65,3.27,1.9,.84,.32,.71,.47-.44,.51-2.16,.08-4.7,1.99-4.06,3.03,.35,.56,1.48,.49,3.5-.21,3.57-1.23,4.58-.59,4.58,2.9,0,2.27-.32,2.68-2.38,3.11-1.31,.27-3.17,.91-4.12,1.42-.96,.51-3.5,.93-5.66,.93s-5.05,.22-6.41,.5c-3.25,.65-10.06,6.56-8.9,7.72,.59,.59,1.52,.19,3.1-1.33,2.74-2.63,8.08-3.83,8.08-1.82,0,.73-.64,1.3-1.46,1.3-2.45,0-2.53,.88-.29,3.18,1.69,1.74,2.39,2.01,3.29,1.3,.86-.67,1.01-.67,.6,0-.3,.5-.02,1.33,.61,1.86,.93,.77,1.54,.57,3.12-1.02,1.86-1.86,2.86-1.99,2.86-.37,0,.39-.36,.49-.8,.21s-1,.03-1.25,.68c-.25,.64-1.59,1.62-2.98,2.17-1.39,.55-3.33,1.72-4.32,2.6-1.43,1.28-1.79,1.36-1.79,.39,0-1.45,2.46-3.82,4.04-3.9,.65-.03,.46-.32-.46-.69-1.09-.43-2.77-.04-5.34,1.25-2.06,1.04-4.29,1.88-4.95,1.88s-1.81,.93-2.55,2.07c-1.06,1.62-1.16,2.38-.45,3.51,.98,1.57-.06,2.38-3.04,2.38-1.7,0-5.49,5.09-5.61,7.54-.06,1.31-.18,1.24-.63-.38-.3-1.09-.89-1.99-1.31-1.99-1.11,0-1.39,4.04-.41,5.87,.57,1.07,.58,1.74,.04,2.08-.45,.28-.63,.8-.4,1.16,.22,.36-.18,.88-.9,1.16s-1.12,.68-.91,.89c.22,.22-1.52,2.32-3.86,4.68s-4.25,4.77-4.25,5.35,.72,3.57,1.59,6.63c1.86,6.5,1.94,7.55,.59,7.55s-3.2-3.06-3.51-5.78c-.4-3.55-2.48-6.08-4.9-5.97-1.17,.05-3.01-.16-4.11-.47-1.28-.37-2.55-.16-3.55,.57-1.33,.97-1.4,1.33-.5,2.42,.95,1.14,.78,1.23-1.62,.81-1.47-.26-3.64-.76-4.81-1.13-2.82-.88-3.7-.7-7.28,1.51-2.64,1.63-2.99,2.2-2.79,4.51,.13,1.45-.03,2.9-.34,3.22-1.16,1.16-.53,8.04,1.03,11.28,2.23,4.61,4.35,5.84,8.77,5.1,3.27-.55,3.56-.8,3.79-3.21,.26-2.68,2.28-4.12,5.77-4.12,1.37,0,1.49,.38,1.03,3.38-.28,1.86-.8,3.74-1.14,4.18-.34,.44-.74,1.87-.89,3.18-.24,2.22-.08,2.38,2.52,2.44,1.53,.03,3.77,.34,4.98,.69,2.17,.62,2.19,.68,1.7,5.53-.46,4.5-.33,5.11,1.56,7.36,1.96,2.33,2.21,2.41,5.24,1.6,2.87-.77,3.37-.67,5.16,1.02,1.53,1.44,2.08,1.61,2.38,.75,1.77-5,2.14-5.61,3.15-5.23,.6,.23,1.91-.45,2.91-1.51,2.34-2.49,3.53-2.49,1.9,0-.99,1.52-1.07,2.29-.38,3.6,1.05,1.97,2.71,1.31,2.15-.85-.22-.83-.06-1.5,.35-1.5s1.07-.8,1.47-1.79c.4-.98,.74-1.33,.77-.78,.05,1.07,3.77,2.92,5.36,2.67,.51-.08,1.17,.23,1.45,.69,.32,.53,2.02,.64,4.55,.3,2.66-.35,3.87-.26,3.54,.27-.27,.44,.39,1.66,1.47,2.7,1.08,1.04,3.28,3.24,4.88,4.88,2.28,2.33,3.52,2.98,5.71,2.98,4.4,0,9.56,4.35,8.63,7.27-.09,.28,.55,1.33,1.43,2.32,.87,1,1.17,1.56,.65,1.26-1.02-.6-6.11,6.08-5.27,6.92,.26,.26,1.69-.58,3.18-1.89,3.03-2.66,4.47-3.02,4.09-1.01-.14,.75-1.09,1.55-2.09,1.79-2.54,.6-2.57,1.97-.04,2.26,1.48,.17,2.56-.35,3.69-1.79,2.1-2.67,3.5-2.56,6.57,.51,2.18,2.18,3.23,2.59,7.41,2.89,3.59,.26,5.15,.74,5.92,1.84,.57,.82,2.09,2.03,3.38,2.69,3.47,1.8,3.26,5.99-.57,11.61-1.6,2.34-3.39,4.55-3.97,4.9-.75,.45-1.08,2.57-1.1,7.15-.02,5.32-.44,7.46-2.23,11.61-2.11,4.89-2.32,5.1-5.34,5.39-1.73,.17-3.54,.83-4.02,1.47-.49,.64-1.1,1.16-1.36,1.16-.76,0-6.42,3.99-7.01,4.94-.3,.48-.17,1.68,.27,2.66,.65,1.42,.38,2.65-1.32,6.04-4.2,8.37-6.17,11.11-8.94,12.43-2.55,1.22-2.92,1.22-5.02,.02-3.05-1.75-3.56-.93-1.17,1.91,3.67,4.36,2.12,7.24-4.38,8.1-2.83,.37-4.19,.95-4.48,1.9-.9,2.93-1.77,3.74-3.97,3.74-1.85,0-2.24,.31-2.04,1.59,.14,.87,.77,1.99,1.41,2.49,.98,.76,.91,.96-.45,1.32-1.18,.31-1.61,1.08-1.61,2.88,0,1.56-.4,2.46-1.1,2.46-3.27,0-3.58,5.86-.37,7.05,1.62,.6,1.6,.69-.8,3.43-1.36,1.55-2.3,2.98-2.08,3.2,.21,.21-.33,1.03-1.21,1.83-.88,.79-1.59,2.28-1.59,3.31s-.37,1.86-.81,1.86-1.22,.89-1.72,1.99c-.93,2.03-2.52,2.85-1.78,.91,.48-1.25-3.49-4.16-5.19-3.8-.89,.19-.94,0-.25-.84,.49-.6,.78-2.8,.64-4.89-.2-2.95-.01-3.71,.82-3.39,.59,.23,1.29,.07,1.56-.36,.58-.93-3.64-5.59-4.55-5.03-.84,.52-.8-.6,.05-1.95,.53-.84,.78-.77,1.21,.33,.4,1.05,.76,1.17,1.45,.48,1.32-1.32,1.68-9.71,.51-11.89-.76-1.43-.77-2.4-.03-4.45,.52-1.44,.73-3.7,.47-5.02-.35-1.73,.13-3.59,1.7-6.69,1.43-2.81,2.26-5.81,2.4-8.67,.12-2.4,.65-10.54,1.19-18.08l.98-13.7-2.86-2.59c-1.57-1.43-4.22-3.51-5.88-4.63-2.56-1.73-3.31-2.95-4.92-7.95-1.04-3.25-3.08-8.59-4.53-11.87l-2.64-5.96,1.67-1.29c1.58-1.21,1.59-1.33,.24-2.09-1.29-.72-1.34-1.18-.46-4.67,.54-2.13,2.16-5.31,3.6-7.07,2.06-2.51,2.64-3.97,2.7-6.77,.12-6.26-3.48-11.36-5.61-7.95-.64,1.02-1.25,1.28-1.86,.77-.5-.41-1.83-.83-2.96-.92-1.29-.11-2.38-.87-2.92-2.07-.71-1.56-1.07-1.73-2.04-.93-.99,.82-1.17,.61-1.17-1.36,0-2.39-3.47-6.61-5.44-6.61-1.25,0-6.33-2.59-10.08-5.13-2.36-1.6-3.16-1.79-4.36-1.04-1.22,.76-2.63,.35-8.13-2.38-8.64-4.28-11.2-6.29-10.65-8.38,.51-1.94-.47-3.91-3.99-8.05-1.46-1.72-2.66-3.42-2.66-3.77s-1.61-2.84-3.58-5.51c-1.97-2.67-3.58-5.31-3.58-5.87,0-1.76-2.31-3.19-3.4-2.1-.73,.73-.54,1.71,.83,4.3,.98,1.84,1.78,3.6,1.77,3.91,0,.31,1.07,2.15,2.38,4.09s2.38,3.91,2.38,4.37,.62,1.19,1.38,1.61c.76,.43,1.14,1.02,.83,1.33-.91,.91-5.31-3.09-5.35-4.87-.02-.91-1.15-2.65-2.51-3.85-1.79-1.59-2.23-2.44-1.6-3.07s.45-1.32-.66-2.51c-.84-.9-2.18-3.6-2.98-6.01-1.13-3.43-1.76-4.32-2.92-4.12-.41,.07-.7,.05-.88-.03,.09,.31,.48,.52,.96,.46,.56-.06,1.53,1.73,2.21,4.08,.67,2.3,1.92,4.82,2.78,5.6,1.18,1.07,1.35,1.67,.68,2.47-.68,.82-.32,1.56,1.59,3.24,1.36,1.19,2.48,2.9,2.48,3.78,0,2.25,5.38,6.49,6.63,5.22,.7-.71,.59-1.18-.47-1.97-.77-.57-1.39-1.29-1.39-1.62s-1.07-2.18-2.38-4.13c-1.31-1.94-2.38-3.86-2.38-4.27s-.71-1.91-1.59-3.34c-.87-1.43-1.59-3.05-1.59-3.6,0-1.81,1.61-1.03,2.46,1.19,.46,1.2,2.24,4.05,3.96,6.33s3.12,4.45,3.12,4.83,1.2,2.09,2.66,3.81c3.52,4.13,4.5,6.11,4,8.04-.57,2.18,2.85,4.93,11.32,9.13,5.6,2.77,7.03,3.2,8.25,2.44,1.2-.75,2-.56,4.36,1.04,3.73,2.53,8.83,5.13,10.07,5.13,1.84,0,4.65,3.43,4.65,5.66,0,2.41,1.15,3.65,2.05,2.2,.37-.6,.9-.28,1.55,.93,.59,1.1,1.9,1.97,3.25,2.15,1.24,.17,2.69,.66,3.22,1.1,.68,.56,1.21,.32,1.82-.82,1.85-3.46,4.79,.97,4.68,7.06-.05,2.8-.62,4.25-2.69,6.77-3.33,4.06-5.2,10.67-3.36,11.83,1.1,.69,1.07,.92-.25,2.03-1.46,1.22-1.45,1.34,.19,4.83,.92,1.97,3.02,7.33,4.65,11.92,2.67,7.51,3.32,8.61,6.45,10.96,1.92,1.44,4.52,3.54,5.78,4.67l2.3,2.05-.97,13.62c-.54,7.49-1.07,15.59-1.19,17.99-.14,2.86-.97,5.86-2.4,8.67-1.57,3.1-2.05,4.96-1.7,6.69,.26,1.31,.04,3.6-.49,5.08-.76,2.11-.76,3.02,0,4.23,.53,.85,.97,2.85,.97,4.44,0,2.48-.17,2.75-1.19,1.9-1.13-.94-1.44-.75-.99,.6,.11,.33,.47,.51,.79,.4,.33-.11,.64,.16,.7,.6,.05,.44,.17,1.24,.25,1.79,.28,1.84-.49,2.29-1.51,.9-.94-1.29-1.08-1.26-1.98,.42-.89,1.67-.64,2.86,.62,2.86,.56,0,4.11,3.36,4.11,3.89,0,.17-.63,.26-1.39,.2-1.15-.09-1.39,.57-1.39,3.86,0,2.19-.29,4.42-.64,4.97-.61,.94-.43,1.11,1.44,1.33,1.6,.19,4.53,2.74,4.05,3.52-.93,1.51,1.35,1.96,2.43,.49,1.17-1.6,1.19-1.59,1.46,1.07,.14,1.32-.13,1.71-.97,1.39-.64-.24-1.5-.23-1.92,.03-1.34,.83,.98,2.71,3.34,2.71,1.23,0,2.44,.33,2.69,.72,.58,.94,2.35,.66,3.89-.61,1.07-.88,.82-1.41-1.97-4.2-1.86-1.86-3.66-3.01-4.32-2.75-.62,.24-1.13,.13-1.13-.25s.54-.89,1.19-1.14c.66-.25,1.19-1.31,1.19-2.35s.72-2.54,1.59-3.33c.88-.79,1.42-1.62,1.21-1.83-.21-.21,.69-1.61,2-3.1,2.34-2.67,2.49-4.21,.4-4.21-1.1,0-2.03-1.67-2.03-3.66,0-.63,.89-1.49,1.99-1.9,1.49-.57,1.99-1.33,1.99-3.07s.46-2.44,1.79-2.82c1.58-.44,1.64-.62,.55-1.48-.68-.54-1.49-1.65-1.8-2.47-.47-1.24-.27-1.41,1.21-1.02,2.08,.54,4.61-1.41,4.61-3.55,0-1.13,.87-1.56,4.09-1.98,6.26-.83,8.6-4.08,5.81-8.07-1.19-1.7-1.16-1.74,.99-1.34,4.44,.83,7.75-2.6,13.39-13.83,1.7-3.39,1.97-4.61,1.32-6.04-.45-.98-.58-2.11-.29-2.51,.82-1.14,5.54-4.3,6.41-4.3,.43,0,1.08-.52,1.43-1.15,.35-.63,2.07-1.29,3.82-1.45,2.99-.28,3.31-.57,5.52-5.01,1.94-3.89,2.4-5.95,2.67-11.84,.2-4.46,.7-7.44,1.34-7.95,.56-.45,2.31-2.74,3.89-5.08,2.09-3.1,2.88-5.11,2.88-7.38,0-2.72-.35-3.33-2.8-4.77ZM79.34,114.13c2.38,.68,4.85,3.23,5.16,5.33,.17,1.18-.34,1.16-2.52-.07-6.15-3.48-7.79-6.73-2.64-5.25Zm-10.45-55.68c-.66,.42-1.55,.77-1.99,.77s-.26-.35,.4-.77c.66-.42,1.55-.77,1.99-.77s.26,.35-.4,.77Zm25.44-11.9c0,.43-.49,.77-1.1,.77s-1.51,.5-2.01,1.11c-1.51,1.82-3.71,1.99-4.72,.38-.51-.82-1.55-1.51-2.31-1.53-1.05-.04-.96-.22,.4-.77,1.69-.68,2.14-1.86,1.84-4.87-.15-1.5,4.02-2.78,5.69-1.75,.56,.34,1.97,.52,3.15,.4,2.74-.29,5.33,1.1,5.09,2.72-.19,1.32-1.88,2.72-3.25,2.69-.44,0,.1-.53,1.19-1.15,2.67-1.53,1.33-1.51-1.63,.02-1.29,.67-2.35,1.56-2.35,1.99Zm9.92,10.3c-.72-.79-2.62-1.79-4.22-2.22-2.73-.73-2.58-.78,2.4-.86,2.93-.05,5.53-.42,5.79-.84,.83-1.35-2.28-2.28-6.12-1.85-3.53,.4-3.8,.29-4.59-1.78-.46-1.21-.74-2.27-.62-2.35,1.9-1.28,6.11-3.61,6.53-3.61,.31,0,.34,.69,.07,1.52-.63,1.99,.85,2.89,1.84,1.11,.64-1.15,.97-1.2,2.03-.32,1.05,.87,1.34,.85,1.72-.15,.4-1.04,.74-1.05,2.71-.07,1.24,.62,2.47,1.68,2.73,2.35,.66,1.73,2.07,.6,2.07-1.65,0-1.34,.51-1.96,1.79-2.16,.98-.15,1.7-.71,1.59-1.25-.11-.54,.16-.97,.6-.97,1,0,1.03,1.03,.06,2.03-.98,1,1.06,6.79,2.84,8.1,.76,.55,2.47,1.03,3.81,1.07,1.34,.03,1.9,.26,1.24,.5-2.83,1.05-3.28,1.98-1.81,3.71,1.12,1.32,1.14,1.45,.11,.66-.72-.55-2.86-1.46-4.77-2.02-3-.88-3.89-.84-6.65,.33-5.06,2.14-9.59,2.44-11.15,.72Zm36.05-.47l2.5-.5-1.24,2.48c-1.25,2.5-2.25,3.08-3.06,1.77-.24-.39,.09-.92,.75-1.17,.65-.25,1.18-.91,1.18-1.47,0-.82-.14-.82-.65-.01-.35,.55-1.78,1.34-3.18,1.74-1.59,.45-2.37,.45-2.08-.02,.25-.41-.11-.97-.81-1.24-1.16-.45-1.15-.63,.08-1.99,1.22-1.35,1.49-1.38,2.69-.29,.91,.82,2.13,1.04,3.83,.7Zm1.28-11.04c-.3-1.6-.22-3.22,.17-3.62,.98-.98,6.49-1.63,6.99-.82,.47,.76-1.71,2.78-3.79,3.52-.79,.28-1.24,.83-1,1.22,.24,.39-.07,1.14-.7,1.65-.94,.78-1.23,.44-1.68-1.96Zm44.77,170.19c-.22,.22-.63-.21-.91-.94-.28-.74-.34-1.52-.12-1.74,.22-.22,.63,.21,.91,.94,.28,.74,.34,1.52,.12,1.74Zm2.94,155.15c-.06-2.85,.51-2.76,3.86,.6,1.85,1.85,2.48,2.98,1.87,3.36-1.41,.88-2.85,.95-3.34,.15-.25-.4-1.48-.72-2.74-.72s-2.51-.36-2.78-.79c-.28-.46,.29-.71,1.34-.6,1.53,.16,1.83-.17,1.79-1.99Z"/><path class="cls-14" d="M220.88,122.3c0-.19,.05-.47,.17-.82,.7-2.21-2.02-4.53-4.44-3.78-1.8,.56-1.81,.54-.4-1.04,2.64-2.96-.01-2.6-3.35,.45-1.45,1.33-2.24,2.11-2.55,2.73,.06,.42,.07,.85,.03,1.27,.08,.15,.19,.31,.32,.49,1.07,1.46,2.6,1.44,6.55-.08,.98-.38,1.22-.25,.8,.43-.33,.53-.36,1.58-.07,2.32,.49,1.26,.6,1.25,1.58-.09,.33-.45,.64-.73,.9-.84,.12-.37,.27-.72,.47-1.05Zm-1.34,.29c-1.09,1.89-1.23,1.96-.92,.45,.49-2.38-.24-2.69-3.78-1.6-5.37,1.65-4.96-1.56,.72-5.74,1.55-1.14,1.55-1.12,.2,.47-1.63,1.92-1.07,2.85,1.37,2.24,1.03-.26,2.13,.05,2.72,.76,.8,.96,.74,1.63-.3,3.43Z"/><path class="cls-14" d="M223.55,57.59c.77-1.25-.9-2.62-2.46-2.01-1.08,.42-1.15,.73-.35,1.7,1.16,1.4,2.08,1.51,2.82,.32Zm-1.68-1.52c.68,0,1.24,.36,1.24,.79s-.34,.79-.75,.79-.97-.36-1.24-.79c-.27-.44,.07-.79,.75-.79Z"/><path class="cls-14" d="M662.84,335.96c-1.16-.62-1.85-.4-3.18,1.02-.93,.99-1.7,2.23-1.7,2.73s-.84,1.47-1.86,2.14c-2.5,1.64-7.11,8.15-6.48,9.17,.28,.45,.83,.61,1.23,.36,.4-.25,1.36-.09,2.13,.36,.77,.45,1.79,.82,2.27,.84,.9,.02,4.05-3.08,3.7-3.64-.69-1.09,.08-3.04,1.86-4.68,1.13-1.05,1.85-2.25,1.59-2.66-.26-.41,.07-.96,.72-1.21,1.67-.64,1.48-3.47-.29-4.42Zm-.56,4.22c-.68,.26-1.03,.81-.78,1.23,.25,.41-.44,1.65-1.54,2.75s-2,2.56-2,3.23c0,2.03-.1,2.38-.96,3.41-.99,1.19-2.13,1.23-4.02,.13-.77-.45-1.75-.59-2.19-.33-2.71,1.67,2.45-5.73,5.87-8.41,1.15-.9,2.09-2.04,2.09-2.52,0-1.49,2.48-3.7,3.65-3.24,1.51,.58,1.42,3.15-.13,3.75Z"/><path class="cls-14" d="M420.6,267.24c-1.15,3.56-2.36,5.13-5.03,6.51-3.61,1.87-4.99,4.45-4.39,8.22,.32,2.02,.06,3.54-.86,4.94-1.44,2.19-1.12,5.44,.93,9.44,.94,1.84,1.48,2.11,3.28,1.69,3.69-.86,4.17-1.89,6.93-15.02,.74-3.5,1.64-6.94,2-7.64,.9-1.75,.03-7.63-1.3-8.73-.84-.69-1.19-.56-1.56,.58Zm2.06,8.15c-.36,.71-1.26,4.14-2,7.64-1.77,8.4-2.65,11.74-3.38,12.8-.33,.48-1.54,1.1-2.69,1.38-1.77,.43-2.23,.17-2.95-1.67-1.79-4.53-1.91-6.52-.53-8.63,.93-1.42,1.2-2.88,.87-4.67-.69-3.69,.57-6.32,3.76-7.83,2.88-1.37,5.33-4.36,5.33-6.51,0-.7,.31-1.08,.69-.84,1,.62,1.69,6.82,.92,8.32Z"/><path class="cls-14" d="M299.21,69.19c-.59-.44-1.31-1.45-1.61-2.25-.46-1.23-1.09-1.36-4.3-.88-2.07,.31-4.49,.6-5.37,.65-.89,.04-1.43,.34-1.21,.66,.62,.9-2.59,2.83-5.2,3.13-1.26,.14-1.98,.47-2.17,.85l2.04-.09c2.52-.11,6.33-2.32,5.71-3.31-.22-.36,.23-.62,1-.57,.77,.05,3.11-.17,5.18-.49,3.1-.48,3.78-.37,3.78,.62,0,.66,.52,1.49,1.16,1.85,1.72,.96,.53,2.09-4.24,4.04-2.35,.96-5.04,1.73-5.96,1.7-2.46-.08-4.92-1.19-4.47-2,.22-.39-.68-.94-1.99-1.22l-2.23-.48c-.2,.51,.56,1.08,2.28,1.38,1.29,.22,2.16,.72,1.94,1.11-.22,.39,.32,.99,1.19,1.33,2.66,1.04,4.76,.81,9.23-.99,5.04-2.02,6.89-3.8,5.25-5.03Z"/><path class="cls-14" d="M209.62,10.34c-.47,.29-.64,.86-.39,1.26,.61,.98,2.53,.94,3.15-.06,.6-.98-1.58-1.93-2.76-1.2Zm1.23,1.15c-.84,.03-1.31-.15-1.04-.42s.95-.29,1.52-.06c.63,.25,.45,.44-.48,.48Z"/><path class="cls-14" d="M276.78,53.57c-2.21,.16-2.27,.1-.87-.93,.83-.61,1.25-1.51,.94-2.02-.37-.6,.11-.92,1.38-.92s2.09,.55,2.38,1.66c.28,1.07,.94,1.56,1.87,1.38,2.2-.42,2.28-3.09,.15-4.84-1.19-.97-1.38-1.38-.54-1.11,1.41,.45,3.39-1.25,2.5-2.14-.29-.29-1.18-.52-1.98-.52s-1.37-.45-1.26-.99c.12-.59-.46-.9-1.42-.77-1.1,.15-1.65-.26-1.73-1.25-.15-1.97,2.08-1.75,4.92,.48,1.22,.96,2.65,1.75,3.17,1.75,1.92,0,2.04-1.17,.26-2.54l-1.75-1.35c-.17,.47,.24,1.11,1.28,1.84,1.38,.97,1.49,1.25,.47,1.25-.72,0-2.32-.81-3.56-1.79-2.73-2.18-5.48-2.35-5.31-.33,.1,1.15-.3,1.33-2.11,.93-1.32-.29-2.24-.12-2.61,.27l2.22,.57c1.31,.34,3.16,.65,4.11,.68,.95,.04,1.66,.39,1.59,.79-.07,.4,.76,.99,1.85,1.31s1.81,.65,1.59,.73c-.22,.08-2.46,.25-4.98,.38-3.66,.19-4.42,.03-3.74-.79,.63-.76,.38-1.37-.98-2.37l-1.7-1.26c-.33,.42-.04,1.08,1.1,1.69,1.28,.68,1.46,1.14,.78,1.96-1.14,1.38,.2,2.29,2.37,1.61,2.04-.65,6.36,1.9,6.36,3.75,0,1.97-2.1,1.79-2.63-.23-.33-1.27-.95-1.59-2.68-1.39-1.56,.18-2.18,.66-2.03,1.56,.12,.72-.35,1.52-1.04,1.78-1.83,.7-.49,2.29,1.51,1.8,.94-.23,2.95-.14,4.48,.2l2.78,.61-2.78,.63c-1.53,.35-3.85,1.17-5.15,1.84-1.46,.74-4.3,1.18-7.38,1.13-4-.07-5.33,.23-6.58,1.48-.86,.86-2.01,1.47-2.55,1.36-.55-.11-1.03,.34-1.07,.99-.15,2.33-1.26,3.84-3.51,4.77-1.25,.52-2.62,.74-3.03,.48-1.11-.69-8.09,5.77-8.09,7.48,0,.81-.38,1.71-.84,2s-.78,1.29-.71,2.23c.07,.94,.1,2.26,.05,2.93-.08,1.15-4.75,4.54-4.96,3.59-.05-.24-.14-.89-.2-1.44-.05-.55-1.06-1.01-2.24-1.03-2.51-.04-4.69-1.84-7.77-6.41-1.41-2.09-1.99-3.68-1.57-4.35,.99-1.6-.01-2.53-1.46-1.37-.82,.66-1.07,.69-.71,.09,.31-.52,.18-1.18-.29-1.47-.55-.34-.34-.92,.58-1.62,.79-.6,1.11-1.1,.72-1.12s-.1-.71,.65-1.54c1.61-1.78,.29-3.17-1.55-1.64-.84,.7-1.16,.71-1.16,.05,0-.5,.98-1.29,2.19-1.75,2-.77,2.07-.92,.8-1.85-1.3-.96-1.29-1.1,.21-2.45,1.49-1.35,1.5-1.53,.27-2.9-.73-.8-2.43-1.5-3.78-1.55-1.69-.06-1.96-.21-.87-.48,3.49-.86,4.18-3.64,1.46-5.89-.93-.77-1.23-.63-1.6,.77-.68,2.58-2.01,2.07-1.58-.61,.26-1.62-.09-2.75-1.14-3.7-.83-.75-1.51-1.79-1.51-2.31s-.75-1.63-1.67-2.46-2.19-2.51-2.82-3.73c-.63-1.22-1.42-2.04-1.76-1.84-.34,.21-3.45,.45-6.92,.53-3.47,.09-7.03,.42-7.9,.73-1.83,.66-4.97-.23-4.37-1.24,.22-.37-.5-.91-1.59-1.19-1.79-.46-1.66-.57,1.19-1.09,4.68-.85,5.33-1.15,4.97-2.24-.18-.55-1.73-1.03-3.44-1.08-5.72-.16-6.69-.31-6.69-1.05,0-.94,5.3-2.71,6.29-2.09,.42,.26,.98,.1,1.25-.34,.27-.44,1.48-.81,2.69-.81,1.51,0,2.74-.74,3.96-2.4,2.22-3,1.68-4.07-1.6-3.13-1.37,.39-2.84,.49-3.28,.22-1.03-.63,5.03-3.59,6.34-3.09,.54,.21,1.19,.05,1.44-.35,.25-.4,.92-.55,1.49-.33,1.15,.44,3.41-1.8,2.61-2.6-1.2-1.2,4.08-2.75,8.62-2.53,3.43,.17,4.71-.04,4.57-.74-.27-1.34,.99-1.22,2.18,.21,1.15,1.39,2.69,.75,2.07-.87-.42-1.08,2.09-1.66,5.09-1.17,4,.65,8.01,.54,8.67-.25,.51-.62,.13-1.52-1.17-2.77-1.66-1.59-1.99-1.68-2.41-.58-.62,1.62-1.91,1.65-1.91,.05s2.23-2.44,3.33-1.33c.58,.58,1.39,.59,2.62,.03,1.34-.61,2.41-.48,4.35,.52,2.59,1.34,5.33,1.11,4.41-.37-.49-.79,2.38-1.26,5.56-.91,.87,.1,3.74,.19,6.36,.2,4.36,.03,4.51,.08,1.75,.64-3.21,.65-5.14,1.97-3.96,2.7,.39,.24,2.84,.1,5.44-.32,8.45-1.35,16.03-1.74,14.45-.73-2.5,1.58-.64,2.5,4.07,2l4.45-.47s0-.03-.01-.05c-.33-.54-2.15-.67-5-.35-3.4,.38-4.14,.29-3.07-.37,.77-.48,1.2-1.2,.95-1.61-.58-.95-7.05-.96-10.7-.02-3.91,1-10.71,1.77-10.08,1.15,.29-.29,1.83-.74,3.43-1,4.13-.67,3.02-2.05-1.7-2.12-2.19-.03-4.69-.28-5.56-.56-2.16-.69-7.2,.53-6.96,1.68,.27,1.27-1.02,1.16-3.93-.34-1.77-.91-2.93-1.06-4.13-.51-1.1,.5-2.13,.48-3-.08-1.49-.94-3.84,.47-3.84,2.3,0,1.64,1.74,2.3,2.7,1.03,.75-.99,1.07-.95,2.26,.28,.77,.78,1.3,1.46,1.19,1.5-1.27,.52-6.71,.48-7.7-.05-.71-.38-2.54-.43-4.05-.11-2.15,.45-2.7,.92-2.48,2.12,.27,1.5,.24,1.5-1.34,.07-1.48-1.34-3.82-1.2-2.97,.18,.2,.32-1.67,.45-4.16,.27-5.1-.36-9.27,1.26-9.29,3.59,0,.77-.54,1.45-1.2,1.51-.66,.06-1.55,.19-1.99,.29-.44,.1-1.11,.13-1.5,.06-.39-.07-2.32,.63-4.29,1.55-3.1,1.46-3.43,1.84-2.45,2.81,.85,.85,1.77,.95,3.69,.4,1.41-.4,2.55-.49,2.53-.19-.07,1.51-3.25,4.12-5.02,4.12-1.11,0-2.22,.34-2.48,.76-.26,.42-.95,.57-1.54,.35-1.56-.6-7.02,1.88-6.64,3.01,.43,1.28,3.68,2.09,7.25,1.81,1.6-.13,2.9,.1,2.9,.5s-.87,.73-1.94,.73c-2.78,0-6.2,1.45-5.62,2.38,.27,.44,1.21,.8,2.08,.8s1.37,.36,1.09,.8c-.69,1.12,2.85,2.3,4.77,1.59,.87-.32,4.43-.65,7.9-.74,3.47-.09,6.6-.33,6.96-.55,.35-.22,.65-.03,.65,.42s1.07,2.04,2.38,3.53,2.38,3,2.38,3.34,.63,1.32,1.39,2.17,1.39,2.63,1.39,3.97c0,2.99,1.72,3.77,2.74,1.24,.72-1.77,.78-1.78,1.23-.27,.79,2.61,.58,3.16-1.34,3.61-2.6,.61-2.28,1.9,.55,2.22,3.85,.43,4.73,1.64,2.74,3.75-1.61,1.72-1.62,1.83-.23,2.64,1.24,.72,1.26,.85,.16,.87-1.68,.03-3.37,2.09-2.66,3.24,.4,.65,.8,.66,1.42,.03,1.56-1.56,2.42-.9,.94,.73-.79,.87-1.12,1.6-.72,1.61s.09,.39-.69,.84c-.82,.48-1.16,1.21-.81,1.76,.33,.52,.62,1.3,.65,1.74,.03,.44,.5,.7,1.04,.58,.55-.12,.9,.24,.79,.79-.3,1.46,3.54,7.15,6.51,9.64,1.8,1.52,3.05,1.99,4.25,1.62,.93-.29,1.43-.24,1.11,.1-.32,.34-.2,1.09,.28,1.67,.9,1.08,1.94,.77,5.01-1.53,1.06-.79,1.49-2.02,1.42-4-.06-1.57,.24-3.08,.66-3.34s.77-1.14,.77-1.96c0-1.82,6.12-7.21,7.56-6.66,2.55,.98,7.29-3.16,6.82-5.96-.1-.62,.2-.84,.73-.51,.5,.31,1.6-.18,2.44-1.08,1.26-1.35,2.43-1.63,6.53-1.56,2.75,.05,5.83-.36,6.85-.9,1.01-.54,3.3-1.41,5.07-1.92,6.2-1.8,3.95-3.57-3.8-3Z"/><path class="cls-14" d="M286.35,35.5c1.29,.28,1.98,.56,1.54,.62-.44,.07-.1,.64,.75,1.29,1.46,1.11,1.41,1.17-.95,1.17-1.66,0-2.64,.31-2.88,.83l2.44-.02c2.84-.02,4.07-1.17,2.31-2.16-.63-.35-1.11-1-1.06-1.44,.05-.44-.96-1-2.24-1.26l-2.19-.43c-.11,.52,.64,1.05,2.28,1.4Z"/><path class="cls-14" d="M284.09,34.05l2.22-.31c1.81-.25,2.53-.79,2.23-1.3l-2.23,.48c-1.34,.29-2.08,.7-2.22,1.13Z"/><path class="cls-14" d="M276.21,7.57c-2.55,0-6.11,.86-10.04,2.43-6.93,2.77-8.16,3.64-6.2,4.39,.78,.3,3.46-.43,6.29-1.72,3.61-1.63,6.52-2.31,10.77-2.52,3.92-.19,5.66,0,5.32,.55-1.04,1.68,.43,2.27,2.76,1.11,1.31-.65,2.82-.9,3.37-.56,1.2,.75,4.41,.42,6.43-.66,.8-.43,2.88-.53,4.64-.24l3.18,.54-2.03,1.05c-1.12,.58-2.85,1.18-3.84,1.33s-1.72,.71-1.61,1.25c.13,.65-.96,.97-3.28,.97-1.94,0-3.87,.47-4.37,1.07-1.22,1.47-.28,2.17,2.2,1.65,1.75-.37,1.85-.3,.68,.45-.77,.49-1.39,1.41-1.39,2.06s-.95,1.53-2.12,1.98c-1.52,.58-1.87,1.05-1.25,1.67,.47,.47,.68,1.33,.47,1.9-.4,1.05,2.34,3.04,3.12,2.27,.23-.23,.69,.02,1.02,.55,.45,.72-.05,.84-1.97,.46-2.74-.55-5.98,.64-5.2,1.9,.26,.42,1.61,.8,3,.85l2.36,.09c-.27-.4-1.14-.77-2.61-.99-2-.29-2.4-.56-1.44-.95,.74-.3,2.62-.34,4.17-.08,2.84,.46,3.87-.59,1.83-1.88-.98-.62-1.4-.76-2.98-.95-.44-.05-.79-.42-.79-.81s.45-.66,.99-.6c1.17,.13,1.37-1.43,.2-1.59-2.17-.29-2.25-.45-.58-1.12,.99-.4,2.04-1.36,2.32-2.14,.29-.78,1-1.7,1.59-2.06,1.73-1.04,.26-2.31-2.03-1.75-1.41,.35-1.84,.25-1.3-.28,.44-.44,2.4-.91,4.37-1.05,2.34-.16,3.51-.59,3.38-1.24-.11-.55,.46-.99,1.27-.99,2.46,0,6.72-2.47,5.82-3.37-1.06-1.06-6.92-1.07-10.67-.02-2.8,.79-4.78,.13-2.98-.99,.45-.28,.61-.85,.36-1.26-.26-.41-.8-.54-1.22-.29-.41,.26-.59,.73-.39,1.06,.2,.33-.87,1.16-2.39,1.84-2.53,1.15-2.74,1.14-2.54-.05,.18-1.11-.66-1.3-5.75-1.27-4.81,.02-6.91,.46-10.88,2.27-2.7,1.23-5.35,2.1-5.88,1.92-2-.67,11.88-5.41,15.83-5.41,4.37,0,9.83-1.92,9.23-3.22l-2.63,1.2c-1.47,.67-4.45,1.22-6.62,1.22Z"/><path class="cls-14" d="M283.96,66.7c-1.66-.64-5.47,1.01-4.81,2.09,.74,1.2,4.05,.95,5.16-.39,.8-.96,.73-1.28-.35-1.69Zm-.04,1.29c-.27,.44-1.45,.79-2.63,.78-1.67,0-1.88-.18-.95-.78,1.57-1.02,4.2-1.02,3.58,0Z"/></g><rect class="cls-7" x="140.15" y="143.85" width="42.05" height="13.84" rx="1.47" ry="1.47"/><rect class="cls-7" x="344.69" y="108.13" width="47.88" height="14.56" rx="1.47" ry="1.47"/></g><g id="Text"><text class="cls-1" transform="translate(350.65 118.15)"><tspan class="cls-9" x="0" y="0">F</tspan><tspan class="cls-10" x="4.61" y="0">r</tspan><tspan x="7.83" y="0">ankfu</tspan><tspan class="cls-5" x="31.32" y="0">r</tspan><tspan x="34.83" y="0">t</tspan></text><text class="cls-1" transform="translate(147.95 154.04)"><tspan x="0" y="0">Dallas</tspan></text><text/><g><line class="cls-8" x1="139.98" y1="164.86" x2="136.96" y2="159.48"/><circle class="cls-6" cx="136.56" cy="158.78" r="1.68"/></g><g><line class="cls-8" x1="325.22" y1="110.45" x2="326.87" y2="105"/><ellipse class="cls-6" cx="327.09" cy="104.29" rx="1.38" ry="1.56"/></g><g><line class="cls-8" x1="342.54" y1="122.69" x2="340.24" y2="116.96"/><circle class="cls-6" cx="339.94" cy="116.21" r="1.68"/></g><g><line class="cls-8" x1="88.63" y1="148.26" x2="85.6" y2="142.88"/><circle class="cls-6" cx="85.21" cy="142.17" r="1.68"/></g><g><rect class="cls-7" x="316.76" y="84.69" width="45.31" height="14.02" rx="1.47" ry="1.47"/><text class="cls-2" transform="translate(324.32 94.93) scale(.97 1)"><tspan class="cls-13" x="0" y="0">L</tspan><tspan x="4.73" y="0">ondon</tspan></text></g><rect class="cls-7" x="596.7" y="289.11" width="40.18" height="17.12" rx="1.47" ry="1.47"/><text class="cls-2" transform="translate(601.01 301.66) scale(.97 1)"><tspan class="cls-3" x="0" y="0">S</tspan><tspan class="cls-12" x="5.01" y="0">y</tspan><tspan x="9.77" y="0">dney</tspan></text><g><line class="cls-8" x1="617.9" y1="317.49" x2="615.1" y2="312.15"/><ellipse class="cls-6" cx="614.73" cy="310.02" rx="1.56" ry="1.68"/></g><rect class="cls-7" x="138.76" y="110.43" width="62.03" height="14.02" rx="1.47" ry="1.47"/><text class="cls-2" transform="translate(146.01 120.81) scale(.97 1)"><tspan class="cls-4" x="0" y="0">W</tspan><tspan x="8.4" y="0">ashing</tspan><tspan class="cls-11" x="37.12" y="0">t</tspan><tspan x="40.48" y="0">on</tspan></text><g><line class="cls-8" x1="175.81" y1="142.28" x2="172.78" y2="136.9"/><circle class="cls-6" cx="172.39" cy="136.2" r="1.68"/></g></g></svg>